<svg xmlns="http://www.w3.org/2000/svg" xmlns:xlink="http://www.w3.org/1999/xlink" viewBox="0 0 200 197.03"><defs><style>.cls-1{fill:url(#linear-gradient);}.cls-2{fill:url(#linear-gradient-2);}.cls-3{fill:url(#linear-gradient-3);}.cls-4{fill:url(#linear-gradient-4);}.cls-5{fill:url(#linear-gradient-5);}</style><linearGradient id="linear-gradient" x1="1.38" y1="98.52" x2="210.37" y2="98.52" gradientUnits="userSpaceOnUse"><stop offset="0" stop-color="#b91c1c"/><stop offset="1" stop-color="#ef4444"/></linearGradient><linearGradient id="linear-gradient-2" x1="1.38" y1="79.56" x2="210.37" y2="79.56" xlink:href="#linear-gradient"/><linearGradient id="linear-gradient-3" x1="1.38" y1="141.92" x2="210.37" y2="141.92" xlink:href="#linear-gradient"/><linearGradient id="linear-gradient-4" x1="1.38" y1="89.55" x2="210.37" y2="89.55" xlink:href="#linear-gradient"/><linearGradient id="linear-gradient-5" x1="1.38" y1="42.95" x2="210.37" y2="42.95" xlink:href="#linear-gradient"/></defs><g id="Layer_2" data-name="Layer 2"><g id="Layer_1-2" data-name="Layer 1"><path class="cls-1" d="M38.09,91.41l5.29,4.91c3.79,3.52,7.56,7.05,11.36,10.55a1.56,1.56,0,0,1,.55,1.29q0,28.44,0,56.86a14.41,14.41,0,0,0,12.24,14.63,12.48,12.48,0,0,0,2.2.18h98.42a14.52,14.52,0,0,0,14.33-14.08c0-.5,0-1,0-1.5V62c0-1.18.16-1.09-1.07-1.09H151.9a27,27,0,0,1-27.07-27.07V17.24l-.77,0q-27.19,0-54.39,0A14.63,14.63,0,0,0,55.39,30.05a19.34,19.34,0,0,0-.11,2q0,11.86,0,23.71v.81l-2.42-2.25L38.5,40.8a1.25,1.25,0,0,1-.39-.75c0-3.52-.11-7,.13-10.55A30.5,30.5,0,0,1,47.9,8.89,31.24,31.24,0,0,1,70.26,0C87.11,0,104,0,120.8,0a10.74,10.74,0,0,1,7.07,2.48q28.22,22.91,56.47,45.76c3.93,3.18,7.84,6.39,11.8,9.54A9.72,9.72,0,0,1,200,65.84c0,33.31,0,66.61,0,99.92a31.86,31.86,0,0,1-25.28,30.55A34.58,34.58,0,0,1,168,197q-49,.06-98,0a31.07,31.07,0,0,1-23.69-10.35,30.55,30.55,0,0,1-8.17-18.94c-.08-1.17-.11-2.34-.11-3.52q0-36,0-72Z"/><path class="cls-2" d="M13.22,59.27c5.6-6,11-11.78,16.54-17.63.39.34.75.64,1.09,1l18.6,17.47L76.8,85.72c2.29,2.15,4.6,4.29,6.89,6.45a2.66,2.66,0,0,1,.64,1q4.24,11.3,8.47,22.6c.2.51.34,1-.08,1.45s-1,.31-1.51.15l-18.36-5.58c-1.56-.47-3.12-.93-4.67-1.41a2.25,2.25,0,0,1-.84-.47L48.54,92.23,28.35,73.32q-7.28-6.81-14.52-13.63A5.26,5.26,0,0,0,13.22,59.27ZM82.77,99.78l-8,8.57,12.43,3.77.18-.15Z"/><path class="cls-3" d="M124.58,135.28H164.5a7.06,7.06,0,0,1,4.23,1.25,6.62,6.62,0,0,1-3.2,12c-.6.05-1.21.05-1.81.05q-39.18,0-78.35,0a11.83,11.83,0,0,1-3.21-.3,6.63,6.63,0,0,1,2.1-13c1.61,0,3.22,0,4.82,0Z"/><path class="cls-4" d="M139.47,96.17H112.52a6.6,6.6,0,0,1-5.4-10.46,6.36,6.36,0,0,1,5.46-2.77h53.78A6.62,6.62,0,0,1,173,89.56a6.54,6.54,0,0,1-6.62,6.6Z"/><path class="cls-5" d="M10.17,56.26c-1.87-1.76-3.63-3.33-5.3-5a21.29,21.29,0,0,1-3.09-3.57A11.78,11.78,0,0,1,9.84,29.83a12.87,12.87,0,0,1,11,3.44c1.8,1.61,3.5,3.31,5.27,4.94.38.34.34.53,0,.88q-7.77,8.25-15.5,16.52A7.75,7.75,0,0,0,10.17,56.26Z"/></g></g></svg>