<svg xmlns="http://www.w3.org/2000/svg" xmlns:xlink="http://www.w3.org/1999/xlink" viewBox="0 0 1489.54 113.41"><defs><style>.cls-1{fill:url(#linear-gradient);}.cls-2{fill:url(#linear-gradient-2);}.cls-3{fill:url(#linear-gradient-3);}.cls-4{fill:url(#linear-gradient-4);}.cls-5{fill:url(#linear-gradient-5);}.cls-6{fill:url(#linear-gradient-6);}.cls-7{fill:url(#linear-gradient-7);}.cls-8{fill:url(#linear-gradient-8);}.cls-9{fill:url(#linear-gradient-9);}.cls-10{fill:url(#linear-gradient-10);}.cls-11{fill:url(#linear-gradient-11);}.cls-12{fill:url(#linear-gradient-12);}.cls-13{fill:url(#linear-gradient-13);}.cls-14{fill:url(#linear-gradient-14);}.cls-15{fill:url(#linear-gradient-15);}.cls-16{fill:url(#linear-gradient-16);}.cls-17{fill:url(#linear-gradient-17);}</style><linearGradient id="linear-gradient" x1="-4.89" y1="55.9" x2="1488.21" y2="54.55" gradientUnits="userSpaceOnUse"><stop offset="0" stop-color="#b91c1c"/><stop offset="1" stop-color="#ef4444"/></linearGradient><linearGradient id="linear-gradient-2" x1="-4.89" y1="57.14" x2="1488.21" y2="55.79" xlink:href="#linear-gradient"/><linearGradient id="linear-gradient-3" x1="-4.89" y1="57.48" x2="1488.21" y2="56.13" xlink:href="#linear-gradient"/><linearGradient id="linear-gradient-4" x1="-4.89" y1="57.6" x2="1488.21" y2="56.25" xlink:href="#linear-gradient"/><linearGradient id="linear-gradient-5" x1="-4.88" y1="58.63" x2="1488.22" y2="57.28" xlink:href="#linear-gradient"/><linearGradient id="linear-gradient-6" x1="-4.89" y1="57.77" x2="1488.21" y2="56.42" xlink:href="#linear-gradient"/><linearGradient id="linear-gradient-7" x1="-4.89" y1="57.85" x2="1488.21" y2="56.5" xlink:href="#linear-gradient"/><linearGradient id="linear-gradient-8" x1="-4.89" y1="57.99" x2="1488.21" y2="56.64" xlink:href="#linear-gradient"/><linearGradient id="linear-gradient-9" x1="-4.87" y1="73.13" x2="1488.23" y2="71.78" xlink:href="#linear-gradient"/><linearGradient id="linear-gradient-10" x1="-4.89" y1="56.3" x2="1488.21" y2="54.95" xlink:href="#linear-gradient"/><linearGradient id="linear-gradient-11" x1="-4.87" y1="73.53" x2="1488.23" y2="72.18" xlink:href="#linear-gradient"/><linearGradient id="linear-gradient-12" x1="-4.89" y1="57.44" x2="1488.21" y2="56.09" xlink:href="#linear-gradient"/><linearGradient id="linear-gradient-13" x1="-4.89" y1="57.1" x2="1488.21" y2="55.75" xlink:href="#linear-gradient"/><linearGradient id="linear-gradient-14" x1="-4.89" y1="56.75" x2="1488.21" y2="55.4" xlink:href="#linear-gradient"/><linearGradient id="linear-gradient-15" x1="-4.89" y1="56.92" x2="1488.21" y2="55.57" xlink:href="#linear-gradient"/><linearGradient id="linear-gradient-16" x1="-4.89" y1="57.04" x2="1488.21" y2="55.69" xlink:href="#linear-gradient"/><linearGradient id="linear-gradient-17" x1="-4.89" y1="57.34" x2="1488.21" y2="55.99" xlink:href="#linear-gradient"/></defs><g id="Layer_2" data-name="Layer 2"><g id="Layer_1-2" data-name="Layer 1"><path class="cls-1" d="M112.92,111.46H91.82l38.46-97.34q3.08-7.8,8.68-11T153.31,0q8.61,0,14.2,3.16t8.52,11l37,97.34H191.77L158.51,23.37a5.35,5.35,0,0,0-5.36-3.74,5.63,5.63,0,0,0-5.51,3.74Z"/><path class="cls-2" d="M482,2a42.43,42.43,0,0,1,15.9,2.68,30.89,30.89,0,0,1,10.95,7.14,27.64,27.64,0,0,1,6.33,10.46,38.83,38.83,0,0,1,2,12.49,41.9,41.9,0,0,1-1.3,10.3,34.21,34.21,0,0,1-4.06,9.58,29.86,29.86,0,0,1-7.14,7.87A30.86,30.86,0,0,1,494,67.66l25.47,43.8H498.25l-25-42.34H444.7A2.43,2.43,0,0,0,442,71.88v39.58H422.8V68.14q0-9.24,4.06-13.3T440,50.79h42.67a17.22,17.22,0,0,0,7-1.3,13,13,0,0,0,4.7-3.41A14.26,14.26,0,0,0,497,41.21a18.43,18.43,0,0,0,.89-5.68,15.2,15.2,0,0,0-3.65-10.14q-3.64-4.29-11.6-4.29h-60V2Z"/><path class="cls-3" d="M862.8,2a42.39,42.39,0,0,1,15.9,2.68,30.8,30.8,0,0,1,10.95,7.14A27.52,27.52,0,0,1,896,22.23a38.83,38.83,0,0,1,2,12.49,41.43,41.43,0,0,1-1.3,10.3,34.49,34.49,0,0,1-4.05,9.58,29.86,29.86,0,0,1-7.14,7.87,30.91,30.91,0,0,1-10.71,5.19l25.47,43.8H879L854,69.12H825.49a2.44,2.44,0,0,0-2.76,2.76v39.58H803.59V68.14q0-9.24,4-13.3t13.14-4.05h42.67a17.22,17.22,0,0,0,7-1.3,12.87,12.87,0,0,0,4.7-3.41,14.26,14.26,0,0,0,2.68-4.87,18.14,18.14,0,0,0,.89-5.68,15.15,15.15,0,0,0-3.65-10.14q-3.64-4.29-11.6-4.29h-60V2Z"/><path class="cls-4" d="M1007,2V21.1H952.2q-8.76,0-12.66,3.73t-3.89,10.05q0,13,16.71,13h53.86V65.22H951.87q-16.71,0-16.71,13.31,0,6.5,4.06,10.14t12.49,3.65h55.49v19.14H951.71a53.34,53.34,0,0,1-16.63-2.27A31.73,31.73,0,0,1,923.72,103a23.36,23.36,0,0,1-6.49-9.5,34,34,0,0,1-2-11.84q0-9.4,4-15.66a25.34,25.34,0,0,1,11.68-9.49q-15.41-6.33-15.41-24.66a33.22,33.22,0,0,1,2.11-12,24,24,0,0,1,6.57-9.5,30.94,30.94,0,0,1,11.36-6.16A55.32,55.32,0,0,1,952.2,2Z"/><path class="cls-5" d="M1042.89,2,1076.15,90a5.33,5.33,0,0,0,5.35,3.74,5.52,5.52,0,0,0,5.36-3.74L1121.74,2H1143L1104.38,99.3q-3.08,7.78-8.68,11t-14.2,3.16a30.69,30.69,0,0,1-14-3q-5.92-3-9-11.11L1021.8,2Z"/><path class="cls-6" d="M1178.36,2V111.46h-19.14V2Z"/><path class="cls-7" d="M1292.25,2V21.1h-54.83q-8.76,0-12.66,3.73t-3.89,10.05q0,13,16.71,13h53.86V65.22h-54.35q-16.71,0-16.71,13.31,0,6.5,4.06,10.14t12.49,3.65h55.49v19.14h-55.49a53.3,53.3,0,0,1-16.63-2.27,31.73,31.73,0,0,1-11.36-6.24,23.36,23.36,0,0,1-6.49-9.5,34,34,0,0,1-2-11.84q0-9.4,4.06-15.66a25.34,25.34,0,0,1,11.68-9.49q-15.4-6.33-15.41-24.66a33.22,33.22,0,0,1,2.11-12,24,24,0,0,1,6.57-9.5,30.94,30.94,0,0,1,11.36-6.16A55.32,55.32,0,0,1,1237.42,2Z"/><path class="cls-8" d="M1336.22,2V88.59a6.38,6.38,0,0,0,1.54,4.46,5.33,5.33,0,0,0,4.14,1.7,5.73,5.73,0,0,0,3.65-1.21,7.66,7.66,0,0,0,2.35-3.33l26.61-69.93q3.24-9.41,9.09-14.84T1400.31,0q12.17,0,18.25,6.57t6.08,17.28V88.59a6.38,6.38,0,0,0,1.54,4.46,5.15,5.15,0,0,0,4,1.7,6,6,0,0,0,3.81-1.21,7.76,7.76,0,0,0,2.36-3.33L1468.94,2h20.6l-33.91,91.18q-3.24,9.41-9.16,14.85t-16.8,5.43q-12.17,0-18.17-6.57t-6-17.44V24.83a6.45,6.45,0,0,0-1.62-4.63,5.4,5.4,0,0,0-4.06-1.7,5.66,5.66,0,0,0-3.81,1.3,8.05,8.05,0,0,0-2.35,3.4l-26.61,69.93q-3.09,9.41-8.85,14.85t-16.79,5.43q-12.33,0-18.33-6.57t-6-17.44V2Z"/><rect class="cls-9" x="118.38" y="65.8" width="65.11" height="14.38"/><path class="cls-10" d="M549.67,111.46H528.58L567,14.12q3.09-7.8,8.68-11T590.07,0q8.59,0,14.2,3.16t8.52,11l37,97.34H628.52L595.26,23.37a5.34,5.34,0,0,0-5.35-3.74,5.63,5.63,0,0,0-5.52,3.74Z"/><rect class="cls-11" x="555.14" y="65.8" width="65.11" height="14.38"/><rect class="cls-12" x="803.38" y="1.95" width="19.14" height="109.51"/><rect class="cls-13" x="422.64" y="1.95" width="19.14" height="109.51"/><path class="cls-14" d="M19.14,2V73.5a25.13,25.13,0,0,0,1.06,7.38,13.67,13.67,0,0,0,3.65,6,18.14,18.14,0,0,0,6.9,4,34,34,0,0,0,10.78,1.46H84v19.14H40.4a53.74,53.74,0,0,1-18.58-2.84,32.89,32.89,0,0,1-12.57-7.87A29.79,29.79,0,0,1,2.19,88.83,49.91,49.91,0,0,1,0,73.66V2Z"/><path class="cls-15" d="M292.52,2V21.09h-32v90.37H241.25V21.09h-32V2Z"/><path class="cls-16" d="M398,2V21.09H343.14q-8.76,0-12.65,3.74c-2.6,2.48-3.9,5.84-3.9,10.05q0,13,16.72,13h53.86V65.22H342.82q-16.71,0-16.71,13.31,0,6.48,4.05,10.14t12.5,3.65h55.48v19.14H342.66A53.3,53.3,0,0,1,326,109.19a31.74,31.74,0,0,1-11.36-6.25,23.16,23.16,0,0,1-6.49-9.49,34,34,0,0,1-2-11.84q0-9.4,4.06-15.66a25.29,25.29,0,0,1,11.68-9.49q-15.42-6.33-15.41-24.66a33.44,33.44,0,0,1,2.1-12,24.14,24.14,0,0,1,6.58-9.5,30.83,30.83,0,0,1,11.35-6.16A55.36,55.36,0,0,1,343.14,2Z"/><path class="cls-17" d="M677.53,2V73.5a25.13,25.13,0,0,0,1.05,7.38,13.67,13.67,0,0,0,3.65,6,18.14,18.14,0,0,0,6.9,4,34,34,0,0,0,10.78,1.46h42.51v19.14H698.78a53.74,53.74,0,0,1-18.58-2.84,32.89,32.89,0,0,1-12.57-7.87,29.79,29.79,0,0,1-7.06-11.92,49.91,49.91,0,0,1-2.19-15.17V2Z"/></g></g></svg>