<svg xmlns="http://www.w3.org/2000/svg" xmlns:xlink="http://www.w3.org/1999/xlink" viewBox="0 0 1489.54 183.68"><defs><style>.cls-1{fill:url(#linear-gradient);}.cls-2{fill:url(#linear-gradient-2);}.cls-3{fill:url(#linear-gradient-3);}.cls-4{fill:url(#linear-gradient-4);}.cls-5{fill:url(#linear-gradient-5);}.cls-6{fill:url(#linear-gradient-6);}.cls-7{fill:url(#linear-gradient-7);}.cls-8{fill:url(#linear-gradient-8);}.cls-9{fill:#fff;}.cls-10{fill:url(#linear-gradient-9);}.cls-11{fill:url(#linear-gradient-10);}.cls-12{fill:url(#linear-gradient-11);}.cls-13{fill:url(#linear-gradient-12);}.cls-14{fill:url(#linear-gradient-13);}.cls-15{fill:url(#linear-gradient-14);}.cls-16{fill:url(#linear-gradient-15);}.cls-17{fill:url(#linear-gradient-16);}.cls-18{fill:url(#linear-gradient-17);}</style><linearGradient id="linear-gradient" x1="-4.89" y1="55.9" x2="1488.21" y2="54.55" gradientUnits="userSpaceOnUse"><stop offset="0" stop-color="#b91c1c"/><stop offset="1" stop-color="#ef4444"/></linearGradient><linearGradient id="linear-gradient-2" x1="-4.89" y1="57.14" x2="1488.21" y2="55.79" xlink:href="#linear-gradient"/><linearGradient id="linear-gradient-3" x1="-4.89" y1="57.48" x2="1488.21" y2="56.13" xlink:href="#linear-gradient"/><linearGradient id="linear-gradient-4" x1="-4.89" y1="57.6" x2="1488.21" y2="56.25" xlink:href="#linear-gradient"/><linearGradient id="linear-gradient-5" x1="-4.88" y1="58.63" x2="1488.22" y2="57.28" xlink:href="#linear-gradient"/><linearGradient id="linear-gradient-6" x1="-4.89" y1="57.77" x2="1488.21" y2="56.42" xlink:href="#linear-gradient"/><linearGradient id="linear-gradient-7" x1="-4.89" y1="57.85" x2="1488.21" y2="56.5" xlink:href="#linear-gradient"/><linearGradient id="linear-gradient-8" x1="-4.89" y1="57.99" x2="1488.21" y2="56.64" xlink:href="#linear-gradient"/><linearGradient id="linear-gradient-9" x1="-4.87" y1="73.13" x2="1488.23" y2="71.78" xlink:href="#linear-gradient"/><linearGradient id="linear-gradient-10" x1="-4.89" y1="56.3" x2="1488.21" y2="54.95" xlink:href="#linear-gradient"/><linearGradient id="linear-gradient-11" x1="-4.87" y1="73.53" x2="1488.23" y2="72.18" xlink:href="#linear-gradient"/><linearGradient id="linear-gradient-12" x1="-4.89" y1="57.44" x2="1488.21" y2="56.09" xlink:href="#linear-gradient"/><linearGradient id="linear-gradient-13" x1="-4.89" y1="57.1" x2="1488.21" y2="55.75" xlink:href="#linear-gradient"/><linearGradient id="linear-gradient-14" x1="-4.89" y1="56.75" x2="1488.21" y2="55.4" xlink:href="#linear-gradient"/><linearGradient id="linear-gradient-15" x1="-4.89" y1="56.92" x2="1488.21" y2="55.57" xlink:href="#linear-gradient"/><linearGradient id="linear-gradient-16" x1="-4.89" y1="57.04" x2="1488.21" y2="55.69" xlink:href="#linear-gradient"/><linearGradient id="linear-gradient-17" x1="-4.89" y1="57.34" x2="1488.21" y2="55.99" xlink:href="#linear-gradient"/></defs><g id="Layer_2" data-name="Layer 2"><g id="Layer_1-2" data-name="Layer 1"><path class="cls-1" d="M112.92,111.46H91.82l38.46-97.34q3.08-7.8,8.68-11T153.31,0q8.61,0,14.2,3.16t8.52,11l37,97.34H191.77L158.51,23.37a5.35,5.35,0,0,0-5.36-3.74,5.63,5.63,0,0,0-5.51,3.74Z"/><path class="cls-2" d="M482,2a42.43,42.43,0,0,1,15.9,2.68,30.89,30.89,0,0,1,10.95,7.14,27.64,27.64,0,0,1,6.33,10.46,38.83,38.83,0,0,1,2,12.49,41.9,41.9,0,0,1-1.3,10.3,34.21,34.21,0,0,1-4.06,9.58,29.86,29.86,0,0,1-7.14,7.87A30.86,30.86,0,0,1,494,67.66l25.47,43.8H498.25l-25-42.34H444.7A2.43,2.43,0,0,0,442,71.88v39.58H422.8V68.14q0-9.24,4.06-13.3T440,50.79h42.67a17.22,17.22,0,0,0,7-1.3,13,13,0,0,0,4.7-3.41A14.26,14.26,0,0,0,497,41.21a18.43,18.43,0,0,0,.89-5.68,15.2,15.2,0,0,0-3.65-10.14q-3.64-4.29-11.6-4.29h-60V2Z"/><path class="cls-3" d="M862.8,2a42.39,42.39,0,0,1,15.9,2.68,30.8,30.8,0,0,1,10.95,7.14A27.52,27.52,0,0,1,896,22.23a38.83,38.83,0,0,1,2,12.49,41.43,41.43,0,0,1-1.3,10.3,34.49,34.49,0,0,1-4.05,9.58,29.86,29.86,0,0,1-7.14,7.87,30.91,30.91,0,0,1-10.71,5.19l25.47,43.8H879L854,69.12H825.49a2.44,2.44,0,0,0-2.76,2.76v39.58H803.59V68.14q0-9.24,4-13.3t13.14-4.05h42.67a17.22,17.22,0,0,0,7-1.3,12.87,12.87,0,0,0,4.7-3.41,14.26,14.26,0,0,0,2.68-4.87,18.14,18.14,0,0,0,.89-5.68,15.15,15.15,0,0,0-3.65-10.14q-3.64-4.29-11.6-4.29h-60V2Z"/><path class="cls-4" d="M1007,2V21.1H952.2q-8.76,0-12.66,3.73t-3.89,10.05q0,13,16.71,13h53.86V65.22H951.87q-16.71,0-16.71,13.31,0,6.5,4.06,10.14t12.49,3.65h55.49v19.14H951.71a53.34,53.34,0,0,1-16.63-2.27A31.73,31.73,0,0,1,923.72,103a23.36,23.36,0,0,1-6.49-9.5,34,34,0,0,1-2-11.84q0-9.4,4-15.66a25.34,25.34,0,0,1,11.68-9.49q-15.41-6.33-15.41-24.66a33.22,33.22,0,0,1,2.11-12,24,24,0,0,1,6.57-9.5,30.94,30.94,0,0,1,11.36-6.16A55.32,55.32,0,0,1,952.2,2Z"/><path class="cls-5" d="M1042.89,2,1076.15,90a5.33,5.33,0,0,0,5.35,3.74,5.52,5.52,0,0,0,5.36-3.74L1121.74,2H1143L1104.38,99.3q-3.08,7.78-8.68,11t-14.2,3.16a30.69,30.69,0,0,1-14-3q-5.92-3-9-11.11L1021.8,2Z"/><path class="cls-6" d="M1178.36,2V111.46h-19.14V2Z"/><path class="cls-7" d="M1292.25,2V21.1h-54.83q-8.76,0-12.66,3.73t-3.89,10.05q0,13,16.71,13h53.86V65.22h-54.35q-16.71,0-16.71,13.31,0,6.5,4.06,10.14t12.49,3.65h55.49v19.14h-55.49a53.3,53.3,0,0,1-16.63-2.27,31.73,31.73,0,0,1-11.36-6.24,23.36,23.36,0,0,1-6.49-9.5,34,34,0,0,1-2-11.84q0-9.4,4.06-15.66a25.34,25.34,0,0,1,11.68-9.49q-15.4-6.33-15.41-24.66a33.22,33.22,0,0,1,2.11-12,24,24,0,0,1,6.57-9.5,30.94,30.94,0,0,1,11.36-6.16A55.32,55.32,0,0,1,1237.42,2Z"/><path class="cls-8" d="M1336.22,2V88.59a6.38,6.38,0,0,0,1.54,4.46,5.33,5.33,0,0,0,4.14,1.7,5.73,5.73,0,0,0,3.65-1.21,7.66,7.66,0,0,0,2.35-3.33l26.61-69.93q3.24-9.41,9.09-14.84T1400.31,0q12.17,0,18.25,6.57t6.08,17.28V88.59a6.38,6.38,0,0,0,1.54,4.46,5.15,5.15,0,0,0,4,1.7,6,6,0,0,0,3.81-1.21,7.76,7.76,0,0,0,2.36-3.33L1468.94,2h20.6l-33.91,91.18q-3.24,9.41-9.16,14.85t-16.8,5.43q-12.17,0-18.17-6.57t-6-17.44V24.83a6.45,6.45,0,0,0-1.62-4.63,5.4,5.4,0,0,0-4.06-1.7,5.66,5.66,0,0,0-3.81,1.3,8.05,8.05,0,0,0-2.35,3.4l-26.61,69.93q-3.09,9.41-8.85,14.85t-16.79,5.43q-12.33,0-18.33-6.57t-6-17.44V2Z"/><path class="cls-9" d="M807.84,132.57V156q0,4.17,2.06,6.29a7.57,7.57,0,0,0,5.71,2.11,7.67,7.67,0,0,0,5.77-2.11c1.36-1.41,2-3.51,2-6.29V132.57h5.64v23.31a14.79,14.79,0,0,1-1.83,7.61,11.6,11.6,0,0,1-4.9,4.65,15.63,15.63,0,0,1-13.53,0,11.3,11.3,0,0,1-4.82-4.65,15.09,15.09,0,0,1-1.79-7.61V132.57Z"/><path class="cls-9" d="M856.9,141.13a9.88,9.88,0,0,1,4,4.23,14.65,14.65,0,0,1,1.44,6.77v17.18h-5.59V153a8.82,8.82,0,0,0-1.83-6,6.32,6.32,0,0,0-5-2.09,6.39,6.39,0,0,0-5,2.09,8.73,8.73,0,0,0-1.86,6v16.28h-5.64V140.18H843v3.33a9.59,9.59,0,0,1,3.54-2.8,10.67,10.67,0,0,1,4.58-1A11.6,11.6,0,0,1,856.9,141.13Z"/><path class="cls-9" d="M876.12,130.2v39.11h-5.64V130.2Z"/><path class="cls-9" d="M889.38,167.91a13.19,13.19,0,0,1-4.9-5.29,16.91,16.91,0,0,1-1.78-7.9,16.51,16.51,0,0,1,1.83-7.88,13.07,13.07,0,0,1,5-5.28,14.45,14.45,0,0,1,14.15,0,13.07,13.07,0,0,1,5,5.28,16.51,16.51,0,0,1,1.83,7.88,16.15,16.15,0,0,1-1.88,7.87,13.52,13.52,0,0,1-5.12,5.32,14,14,0,0,1-7.15,1.87A13.27,13.27,0,0,1,889.38,167.91Zm11.06-4.47a8.19,8.19,0,0,0,3.09-3.33,11.21,11.21,0,0,0,1.19-5.39,11.58,11.58,0,0,0-1.14-5.37,8,8,0,0,0-3-3.3,7.81,7.81,0,0,0-4-1.11,7.59,7.59,0,0,0-7,4.41,12.12,12.12,0,0,0-1.09,5.37q0,4.71,2.25,7.27a7.22,7.22,0,0,0,5.67,2.56A8,8,0,0,0,900.44,163.44Z"/><path class="cls-9" d="M916.91,146.82a12.61,12.61,0,0,1,4.73-5.26,14.27,14.27,0,0,1,15.11.66,12.34,12.34,0,0,1,4.38,7.16h-6.08a6.89,6.89,0,0,0-2.38-3.38,7.27,7.27,0,0,0-9.62,1.4q-2.06,2.61-2,7.32c0,3.14.68,5.58,2,7.35a6.63,6.63,0,0,0,5.52,2.64,6.29,6.29,0,0,0,6.48-4.6h6.08a13.08,13.08,0,0,1-4.45,7.06,12.58,12.58,0,0,1-8.11,2.61,12.53,12.53,0,0,1-11.66-7.16,19.21,19.21,0,0,1,0-15.8Z"/><path class="cls-9" d="M958.55,154.77l12.57,14.54H963.5l-10.09-12.53v12.53h-5.65V130.2h5.65v22.72l9.89-12.74h7.82Z"/><path class="cls-9" d="M976.46,135.22a4.16,4.16,0,0,1,0-5.5,3.48,3.48,0,0,1,5.1,0,4.16,4.16,0,0,1,0,5.5,3.51,3.51,0,0,1-5.1,0Zm5.34,5v29.13h-5.64V140.18Z"/><path class="cls-9" d="M1009.73,141.13a10,10,0,0,1,4,4.23,14.78,14.78,0,0,1,1.43,6.77v17.18h-5.59V153a8.82,8.82,0,0,0-1.83-6,6.32,6.32,0,0,0-5-2.09,6.39,6.39,0,0,0-5,2.09,8.73,8.73,0,0,0-1.85,6v16.28h-5.65V140.18h5.65v3.33a9.48,9.48,0,0,1,3.53-2.8,10.7,10.7,0,0,1,4.58-1A11.57,11.57,0,0,1,1009.73,141.13Z"/><path class="cls-9" d="M1039.91,141.06a10.88,10.88,0,0,1,3.84,3.35v-4.23h5.69v29.6a15.75,15.75,0,0,1-1.58,7.16,12,12,0,0,1-4.58,4.95,13.72,13.72,0,0,1-7.15,1.79,14.78,14.78,0,0,1-9.2-2.77,10.36,10.36,0,0,1-4.16-7.53h5.59a6.45,6.45,0,0,0,2.75,3.67,8.86,8.86,0,0,0,5,1.4,7.26,7.26,0,0,0,5.52-2.22q2.1-2.22,2.1-6.45v-4.86a11.71,11.71,0,0,1-3.89,3.46,11,11,0,0,1-5.56,1.4,11.59,11.59,0,0,1-6.51-1.93,13.29,13.29,0,0,1-4.65-5.39,17.45,17.45,0,0,1-1.71-7.85,17,17,0,0,1,1.71-7.77,13.1,13.1,0,0,1,4.65-5.26,11.85,11.85,0,0,1,6.51-1.87A11.41,11.41,0,0,1,1039.91,141.06Zm2.68,8.42a8.59,8.59,0,0,0-3-3.38,7.59,7.59,0,0,0-4-1.16,7.67,7.67,0,0,0-4.06,1.14,8.21,8.21,0,0,0-3,3.33,10.91,10.91,0,0,0-1.17,5.2,11.42,11.42,0,0,0,1.17,5.29,8.5,8.5,0,0,0,3.06,3.46,7.55,7.55,0,0,0,8.09,0,8.54,8.54,0,0,0,3-3.41,11.36,11.36,0,0,0,1.16-5.26A11.25,11.25,0,0,0,1042.59,149.48Z"/><path class="cls-9" d="M1100,169.31h-5.63l-17-27.43v27.43h-5.64V132.52h5.64l17,27.38V132.52H1100Z"/><path class="cls-9" d="M1133.16,157h-20.84a8.32,8.32,0,0,0,2.43,5.6,7.37,7.37,0,0,0,5.34,2.12,6.58,6.58,0,0,0,6.44-4.07h6.08a13.15,13.15,0,0,1-4.48,6.58,12.55,12.55,0,0,1-8,2.56,13.24,13.24,0,0,1-7-1.87,13.07,13.07,0,0,1-4.85-5.29,17,17,0,0,1-1.75-7.9,17.37,17.37,0,0,1,1.7-7.9,12.44,12.44,0,0,1,4.8-5.26,13.5,13.5,0,0,1,7.1-1.85,13.27,13.27,0,0,1,6.88,1.79,12.4,12.4,0,0,1,4.7,5.05,16.07,16.07,0,0,1,1.68,7.48A20.45,20.45,0,0,1,1133.16,157Zm-5.7-4.86a7.06,7.06,0,0,0-2.22-5.34,7.65,7.65,0,0,0-5.4-2,7,7,0,0,0-5,2,8.51,8.51,0,0,0-2.48,5.37Z"/><path class="cls-9" d="M1176.5,140.18,1168,169.31h-5.93l-5.49-21.51-5.49,21.51h-5.94l-8.51-29.13h5.73l5.7,23.42,5.78-23.42h5.89l5.54,23.31,5.64-23.31Z"/><path class="cls-9" d="M1218.36,148.8a9.67,9.67,0,0,1-4,4,13.93,13.93,0,0,1-7,1.56h-6.23v14.91h-5.65V132.57h11.88a14.15,14.15,0,0,1,6.7,1.46,9.77,9.77,0,0,1,4.11,3.93,11.35,11.35,0,0,1,1.36,5.55A11.78,11.78,0,0,1,1218.36,148.8Zm-6.14-.87a5.94,5.94,0,0,0,1.58-4.42q0-6-6.38-6h-6.23v12h6.23A6.6,6.6,0,0,0,1212.22,147.93Z"/><path class="cls-9" d="M1250.76,157h-20.83a8.32,8.32,0,0,0,2.43,5.6,7.37,7.37,0,0,0,5.34,2.12,6.56,6.56,0,0,0,6.43-4.07h6.09a13.15,13.15,0,0,1-4.48,6.58,12.55,12.55,0,0,1-8,2.56,13.24,13.24,0,0,1-7-1.87,13.07,13.07,0,0,1-4.85-5.29,17,17,0,0,1-1.76-7.9,17.37,17.37,0,0,1,1.71-7.9,12.44,12.44,0,0,1,4.8-5.26,13.5,13.5,0,0,1,7.1-1.85,13.29,13.29,0,0,1,6.88,1.79,12.4,12.4,0,0,1,4.7,5.05A16.07,16.07,0,0,1,1251,154,20.37,20.37,0,0,1,1250.76,157Zm-5.69-4.86a7.06,7.06,0,0,0-2.22-5.34,7.67,7.67,0,0,0-5.4-2,7,7,0,0,0-5,2,8.51,8.51,0,0,0-2.48,5.37Z"/><path class="cls-9" d="M1266.42,141a9.21,9.21,0,0,1,4.87-1.24v6.23h-1.43a6.6,6.6,0,0,0-5,1.8q-1.71,1.8-1.71,6.24v15.33h-5.64V140.18h5.64v4.23A9.21,9.21,0,0,1,1266.42,141Z"/><path class="cls-9" d="M1281.61,168.54a10.32,10.32,0,0,1-4-3.38,8.85,8.85,0,0,1-1.59-4.79h5.84a4.33,4.33,0,0,0,1.66,3.1,5.82,5.82,0,0,0,3.79,1.24,6.06,6.06,0,0,0,3.68-1,3,3,0,0,0,1.31-2.51,2.59,2.59,0,0,0-1.46-2.43,25.68,25.68,0,0,0-4.62-1.74,43.42,43.42,0,0,1-5-1.75,8.77,8.77,0,0,1-3.34-2.59,7.1,7.1,0,0,1-1.41-4.6,7.46,7.46,0,0,1,1.29-4.25,8.58,8.58,0,0,1,3.68-3,13,13,0,0,1,5.52-1.11,11,11,0,0,1,7.5,2.51,9.26,9.26,0,0,1,3,6.84h-5.64a4.43,4.43,0,0,0-1.49-3.12,5.33,5.33,0,0,0-3.61-1.16,5.56,5.56,0,0,0-3.41.9,2.84,2.84,0,0,0-1.19,2.38,2.65,2.65,0,0,0,.79,1.95,5.6,5.6,0,0,0,1.93,1.25c.76.3,1.88.68,3.37,1.13a35.87,35.87,0,0,1,4.87,1.72,9.07,9.07,0,0,1,3.29,2.57,7.11,7.11,0,0,1,1.44,4.49,7.91,7.91,0,0,1-1.29,4.44,8.67,8.67,0,0,1-3.64,3.06,12.79,12.79,0,0,1-5.52,1.11A13,13,0,0,1,1281.61,168.54Z"/><path class="cls-9" d="M1314.44,141.08a11.37,11.37,0,0,1,5.59-1.37,11.88,11.88,0,0,1,6.51,1.87,12.89,12.89,0,0,1,4.62,5.26,17.27,17.27,0,0,1,1.68,7.77,17.72,17.72,0,0,1-1.68,7.85,13.08,13.08,0,0,1-4.62,5.39,11.61,11.61,0,0,1-6.51,1.93,11.17,11.17,0,0,1-5.54-1.35,12.4,12.4,0,0,1-4-3.35v18.07h-5.64v-43h5.64v4.28A11.82,11.82,0,0,1,1314.44,141.08Zm11.5,8.33a8.21,8.21,0,0,0-3.07-3.33,7.81,7.81,0,0,0-4.08-1.14,7.65,7.65,0,0,0-4,1.16,8.56,8.56,0,0,0-3.07,3.38,11.25,11.25,0,0,0-1.16,5.24,11.36,11.36,0,0,0,1.16,5.26,8.51,8.51,0,0,0,3.07,3.41,7.58,7.58,0,0,0,8.11,0,8.52,8.52,0,0,0,3.07-3.46,11.42,11.42,0,0,0,1.17-5.29A10.91,10.91,0,0,0,1325.94,149.41Z"/><path class="cls-9" d="M1364.21,157h-20.83a8.32,8.32,0,0,0,2.43,5.6,7.37,7.37,0,0,0,5.34,2.12,6.55,6.55,0,0,0,6.43-4.07h6.09a13.15,13.15,0,0,1-4.48,6.58,12.55,12.55,0,0,1-8,2.56,13.24,13.24,0,0,1-7-1.87,13.07,13.07,0,0,1-4.85-5.29,17,17,0,0,1-1.76-7.9,17.37,17.37,0,0,1,1.71-7.9,12.44,12.44,0,0,1,4.8-5.26,13.5,13.5,0,0,1,7.1-1.85,13.27,13.27,0,0,1,6.88,1.79,12.4,12.4,0,0,1,4.7,5.05,16.07,16.07,0,0,1,1.68,7.48A20.37,20.37,0,0,1,1364.21,157Zm-5.69-4.86a7.06,7.06,0,0,0-2.22-5.34,7.67,7.67,0,0,0-5.4-2,7,7,0,0,0-5,2,8.51,8.51,0,0,0-2.48,5.37Z"/><path class="cls-9" d="M1370.77,146.82a12.59,12.59,0,0,1,4.72-5.26,14.29,14.29,0,0,1,15.12.66,12.44,12.44,0,0,1,4.38,7.16h-6.09a6.81,6.81,0,0,0-2.37-3.38,7.28,7.28,0,0,0-9.63,1.4q-2.06,2.61-2.05,7.32c0,3.14.68,5.58,2.05,7.35a6.63,6.63,0,0,0,5.52,2.64,6.28,6.28,0,0,0,6.48-4.6H1395a13.1,13.1,0,0,1-4.46,7.06,12.56,12.56,0,0,1-8.11,2.61,12.5,12.5,0,0,1-11.65-7.16,19.1,19.1,0,0,1,0-15.8Z"/><path class="cls-9" d="M1408.2,145.1v16.12a3.21,3.21,0,0,0,.72,2.35,3.37,3.37,0,0,0,2.45.72h3.46v5h-4.45a8.22,8.22,0,0,1-5.84-1.91c-1.36-1.26-2-3.33-2-6.18V145.1h-3.22v-4.92h3.22v-7.24h5.69v7.24h6.63v4.92Z"/><path class="cls-9" d="M1421.31,135.22a4.16,4.16,0,0,1,0-5.5,3.48,3.48,0,0,1,5.1,0,4.16,4.16,0,0,1,0,5.5,3.51,3.51,0,0,1-5.1,0Zm5.34,5v29.13H1421V140.18Z"/><path class="cls-9" d="M1445.6,163.91l7.72-23.73h6l-10.39,29.13h-6.73l-10.34-29.13h6Z"/><path class="cls-9" d="M1489.34,157h-20.83a8.27,8.27,0,0,0,2.43,5.6,7.37,7.37,0,0,0,5.34,2.12,6.56,6.56,0,0,0,6.43-4.07h6.09a13.15,13.15,0,0,1-4.48,6.58,12.55,12.55,0,0,1-8,2.56,13.21,13.21,0,0,1-7-1.87,13.07,13.07,0,0,1-4.85-5.29,17,17,0,0,1-1.76-7.9,17.37,17.37,0,0,1,1.71-7.9,12.44,12.44,0,0,1,4.8-5.26,13.5,13.5,0,0,1,7.1-1.85,13.29,13.29,0,0,1,6.88,1.79,12.46,12.46,0,0,1,4.7,5.05,16.07,16.07,0,0,1,1.68,7.48A20.37,20.37,0,0,1,1489.34,157Zm-5.69-4.86a7,7,0,0,0-2.23-5.34,7.63,7.63,0,0,0-5.39-2,7,7,0,0,0-5,2,8.46,8.46,0,0,0-2.48,5.37Z"/><rect class="cls-10" x="118.38" y="65.8" width="65.11" height="14.38"/><path class="cls-11" d="M549.67,111.46H528.58L567,14.12q3.09-7.8,8.68-11T590.07,0q8.59,0,14.2,3.16t8.52,11l37,97.34H628.52L595.26,23.37a5.34,5.34,0,0,0-5.35-3.74,5.63,5.63,0,0,0-5.52,3.74Z"/><rect class="cls-12" x="555.14" y="65.8" width="65.11" height="14.38"/><rect class="cls-13" x="803.38" y="1.95" width="19.14" height="109.51"/><rect class="cls-14" x="422.64" y="1.95" width="19.14" height="109.51"/><path class="cls-15" d="M19.14,2V73.5a25.13,25.13,0,0,0,1.06,7.38,13.67,13.67,0,0,0,3.65,6,18.14,18.14,0,0,0,6.9,4,34,34,0,0,0,10.78,1.46H84v19.14H40.4a53.74,53.74,0,0,1-18.58-2.84,32.89,32.89,0,0,1-12.57-7.87A29.79,29.79,0,0,1,2.19,88.83,49.91,49.91,0,0,1,0,73.66V2Z"/><path class="cls-16" d="M292.52,2V21.09h-32v90.37H241.25V21.09h-32V2Z"/><path class="cls-17" d="M398,2V21.09H343.14q-8.76,0-12.65,3.74c-2.6,2.48-3.9,5.84-3.9,10.05q0,13,16.72,13h53.86V65.22H342.82q-16.71,0-16.71,13.31,0,6.48,4.05,10.14t12.5,3.65h55.48v19.14H342.66A53.3,53.3,0,0,1,326,109.19a31.74,31.74,0,0,1-11.36-6.25,23.16,23.16,0,0,1-6.49-9.49,34,34,0,0,1-2-11.84q0-9.4,4.06-15.66a25.29,25.29,0,0,1,11.68-9.49q-15.42-6.33-15.41-24.66a33.44,33.44,0,0,1,2.1-12,24.14,24.14,0,0,1,6.58-9.5,30.83,30.83,0,0,1,11.35-6.16A55.36,55.36,0,0,1,343.14,2Z"/><path class="cls-18" d="M677.53,2V73.5a25.13,25.13,0,0,0,1.05,7.38,13.67,13.67,0,0,0,3.65,6,18.14,18.14,0,0,0,6.9,4,34,34,0,0,0,10.78,1.46h42.51v19.14H698.78a53.74,53.74,0,0,1-18.58-2.84,32.89,32.89,0,0,1-12.57-7.87,29.79,29.79,0,0,1-7.06-11.92,49.91,49.91,0,0,1-2.19-15.17V2Z"/></g></g></svg>