<svg xmlns="http://www.w3.org/2000/svg" xmlns:xlink="http://www.w3.org/1999/xlink" viewBox="0 0 152.56 200"><defs><style>.cls-1{fill:url(#linear-gradient);}.cls-2{fill:url(#linear-gradient-2);}.cls-3{fill:url(#linear-gradient-3);}.cls-4{fill:url(#linear-gradient-4);}.cls-5{fill:url(#linear-gradient-5);}.cls-6{fill:url(#linear-gradient-6);}.cls-7{fill:url(#linear-gradient-7);}.cls-8{fill:url(#linear-gradient-8);}.cls-9{fill:url(#linear-gradient-9);}.cls-10{fill:url(#linear-gradient-10);}</style><linearGradient id="linear-gradient" x1="0.17" y1="100" x2="152.3" y2="100" gradientUnits="userSpaceOnUse"><stop offset="0" stop-color="#b91c1c"/><stop offset="1" stop-color="#ef4444"/></linearGradient><linearGradient id="linear-gradient-2" x1="0.17" y1="81.31" x2="152.3" y2="81.31" xlink:href="#linear-gradient"/><linearGradient id="linear-gradient-3" x1="0.17" y1="50.91" x2="152.3" y2="50.91" xlink:href="#linear-gradient"/><linearGradient id="linear-gradient-4" x1="0.17" y1="25.72" x2="152.3" y2="25.72" xlink:href="#linear-gradient"/><linearGradient id="linear-gradient-5" x1="0.17" y1="71.72" x2="152.3" y2="71.72" xlink:href="#linear-gradient"/><linearGradient id="linear-gradient-6" x1="0.17" y1="81.31" x2="152.3" y2="81.31" xlink:href="#linear-gradient"/><linearGradient id="linear-gradient-7" x1="0.17" y1="41.28" x2="152.3" y2="41.28" xlink:href="#linear-gradient"/><linearGradient id="linear-gradient-8" x1="0.17" y1="50.91" x2="152.3" y2="50.91" xlink:href="#linear-gradient"/><linearGradient id="linear-gradient-9" x1="0.17" y1="60.56" x2="152.3" y2="60.56" xlink:href="#linear-gradient"/><linearGradient id="linear-gradient-10" x1="0.17" y1="90.94" x2="152.3" y2="90.94" xlink:href="#linear-gradient"/></defs><g id="Layer_2" data-name="Layer 2"><g id="Layer_1-2" data-name="Layer 1"><path class="cls-1" d="M61.29,185.65V166.22c0-2.38,0-2.38-2.31-2.38H13.88c-6,0-10.38-2.7-12.77-8.2A14.54,14.54,0,0,1,.05,150Q-.06,105,0,60.09c0-8.77,5.56-14.28,14.31-14.27H26.58V43.37c0-11,0-22,0-33.08A10.15,10.15,0,0,1,40.6.75a9.65,9.65,0,0,1,6.26,7.82c.17,1,.21,2,.32,3.19H74l-.66,4.12H71.82c-7.69,0-15.37,0-23,0-1.27,0-1.73.27-1.72,1.65q.06,45.36,0,90.71v1.88h69.76c3.56,0,5-1.41,5-4.92v-84c0-3.95-1.26-5.24-5.16-5.25H66.82V11.81H117.1c5.62,0,8.87,3.28,8.87,8.94,0,7.8,0,15.59,0,23.39,0,1.34.41,1.72,1.7,1.7,3.73-.07,7.46-.05,11.19,0,7.7.05,13.15,5.19,13.67,12.87,0,.66.05,1.33.05,2q0,44.35,0,88.7c0,7.51-4,12.77-10.82,14.19a16.71,16.71,0,0,1-3.32.24q-22.47,0-44.94,0c-2.18,0-2.19,0-2.19,2.2,0,5.9.06,11.8,0,17.7,0,1.61.52,2,2,1.94a58.59,58.59,0,0,1,8.49.27,12,12,0,0,1,9.9,10.54c.26,2.87-.29,3.5-3.16,3.5H56.36c-4.12,0-8.24,0-12.36,0-2.28,0-2.91-.67-2.81-2.89a12.26,12.26,0,0,1,12-11.44C55.78,185.6,58.4,185.65,61.29,185.65ZM4.08,133.17H5.87q70.49,0,141,.05c1.41,0,1.66-.5,1.66-1.74q0-36,0-72c0-.34,0-.67,0-1-.37-4.27-3.36-7.9-7.6-8.32-4.41-.44-8.88-.23-13.33-.29a11.4,11.4,0,0,0-1.3.11c-.33.82-.19,41.14-.24,56.45a7.74,7.74,0,0,1-6.41,7.53,24.33,24.33,0,0,1-5,.24,2,2,0,0,0-2.31,1.49,10,10,0,0,1-9.81,6.65q-32.65,0-65.3,0c-6.23,0-10.58-4.39-10.58-10.66,0-16.75,2-58.82-.2-61.82h-12C8,49.87,4.08,53.7,4.08,60.16q0,35.4,0,70.81Zm72.21,4.16H47.9c-14,0-27.94,0-41.91-.05-1.56,0-2,.48-1.94,2,.09,3.45,0,6.9,0,10.35,0,6.26,3.83,10.17,10.07,10.17q62.28,0,124.57,0c5.77,0,9.72-4,9.75-9.81,0-3.4,0-6.8,0-10.19,0-2.46,0-2.46-2.38-2.46ZM42.91,103.78v-2.25q0-45.44,0-90.86c0-3.77-2.64-6.58-6.11-6.57s-6.08,2.76-6.08,6.54q0,45.6,0,91.19v1.9A11.28,11.28,0,0,1,42.91,103.78Zm35.31,81.81h9v-2c0-6,0-11.91.05-17.86,0-1.52-.5-1.88-1.93-1.86-6.06.07-12.13,0-18.2,0-.53,0-1.06.08-1.59.12V185.6h8.27c-.12,1.47-.22,2.79-.34,4.2H71.38c-6,0-12,0-18,0-3.81,0-7.35,2.89-7.49,6h61.33a6.91,6.91,0,0,0-.32-1.21,7.86,7.86,0,0,0-7.41-4.79c-6.45-.06-12.91,0-19.37,0H78.22Zm30.21-71.34H46.18c-2.59,0-2.94-.33-3.33-2.83a6,6,0,0,0-4.26-5.08,6.1,6.1,0,0,0-7.35,8.23c1.24,2.8,3.59,3.67,6.53,3.67q32-.06,64,0a14,14,0,0,0,1.84-.07C105.79,117.83,107.31,116.6,108.43,114.25Z"/><path class="cls-2" d="M113.66,81.3c0,3,0,6,0,9,0,2-.62,2.66-2.54,2.66-6.18,0-12.36,0-18.53,0a2,2,0,0,1-2.26-2.25c0-6.23,0-12.46,0-18.69,0-1.63.72-2.33,2.36-2.34q9.27,0,18.53,0c1.72,0,2.41.73,2.43,2.45C113.68,75.17,113.66,78.23,113.66,81.3ZM94.4,73.89c0,4.71,0,9.31,0,13.92,0,.38.78,1.06,1.21,1.07q6.33.12,12.66,0c.42,0,1.19-.7,1.19-1.08.09-4.6.06-9.2.06-13.91Z"/><path class="cls-3" d="M78.57,50.89c0,3,0,6,0,9,0,2-.66,2.68-2.72,2.68q-9,0-18,0c-2,0-2.58-.63-2.59-2.62q0-9,0-18c0-2,.66-2.68,2.72-2.68q8.92,0,17.86,0c2.15,0,2.74.61,2.75,2.8C78.58,45,78.57,47.94,78.57,50.89Zm-4.22-7.56c-4.7,0-9.24,0-13.79,0-.91,0-1.29.33-1.28,1.27,0,4.16,0,8.33,0,12.49,0,1.08.41,1.48,1.48,1.46,2.22,0,4.44,0,6.66,0h6.93Z"/><path class="cls-4" d="M84.3,27.79c-3.74,0-7.47,0-11.2,0-1.74,0-2.71-.74-2.71-2s.9-2.08,2.66-2.09c7.69,0,15.37,0,23.06,0a2.09,2.09,0,0,1,2.36,2.06c.1,1.25-.87,2.05-2.48,2.06C92.09,27.8,88.19,27.79,84.3,27.79Z"/><path class="cls-5" d="M69.13,69.65c3.68,0,7.35,0,11,0,1.74,0,2.7.72,2.74,2s-1,2.13-2.65,2.13q-11.17,0-22.37,0c-1.74,0-2.65-.78-2.62-2.11s.9-2,2.7-2Z"/><path class="cls-6" d="M68.92,79.29H79.43c.44,0,.89,0,1.33,0,1.3.09,2.13.75,2.09,2.09a1.86,1.86,0,0,1-2.07,1.92q-11.76,0-23.52,0a1.81,1.81,0,0,1-2-2,1.92,1.92,0,0,1,2.14-2c3.84,0,7.68,0,11.51,0Z"/><path class="cls-7" d="M100,39.24c3.67,0,7.34,0,11,0,1.39,0,2.46.4,2.62,1.92.15,1.31-.86,2.16-2.55,2.16q-11.25,0-22.51,0c-1.37,0-2.45-.44-2.54-2C86,40,87,39.24,88.67,39.24,92.45,39.23,96.23,39.24,100,39.24Z"/><path class="cls-8" d="M99.84,53H88.66c-1.75,0-2.71-.75-2.63-2.07.1-1.55,1.13-2,2.53-2h22.69c1.34,0,2.3.49,2.38,2,.07,1.31-.81,2.06-2.45,2.07-3.78,0-7.56,0-11.34,0Z"/><path class="cls-9" d="M100,58.55c3.72,0,7.45,0,11.17,0,1.58,0,2.57.82,2.46,2-.12,1.42-1,2-2.4,2H88.39c-1.34,0-2.32-.53-2.34-2s.89-2,2.28-2C92.22,58.56,96.11,58.55,100,58.55Z"/><path class="cls-10" d="M56.81,92.83c-.56,0-1.44-1.17-1.45-1.81s.78-1.41,1.39-1.94c.3-.26,1-.14,1.46-.14h22c.39,0,.92-.13,1.14.08.64.58,1.5,1.22,1.64,2a1.56,1.56,0,0,1-1.67,1.84c-1.72.07-3.45.13-5.17.15C73.75,93,59.78,93,56.81,92.83Z"/></g></g></svg>