<svg xmlns="http://www.w3.org/2000/svg" xmlns:xlink="http://www.w3.org/1999/xlink" viewBox="0 0 153.58 200"><defs><style>.cls-1{fill:url(#linear-gradient);}.cls-2{fill:url(#linear-gradient-2);}.cls-3{fill:url(#linear-gradient-3);}.cls-4{fill:url(#linear-gradient-4);}.cls-5{fill:url(#linear-gradient-5);}.cls-6{fill:url(#linear-gradient-6);}.cls-7{fill:url(#linear-gradient-7);}.cls-8{fill:url(#linear-gradient-8);}.cls-9{fill:url(#linear-gradient-9);}.cls-10{fill:url(#linear-gradient-10);}.cls-11{fill:url(#linear-gradient-11);}.cls-12{fill:url(#linear-gradient-12);}.cls-13{fill:url(#linear-gradient-13);}.cls-14{fill:url(#linear-gradient-14);}</style><linearGradient id="linear-gradient" x1="-10.69" y1="162.63" x2="205.44" y2="162.63" gradientUnits="userSpaceOnUse"><stop offset="0" stop-color="#b91c1c"/><stop offset="1" stop-color="#ef4444"/></linearGradient><linearGradient id="linear-gradient-2" x1="-10.69" y1="84.99" x2="205.44" y2="84.99" xlink:href="#linear-gradient"/><linearGradient id="linear-gradient-3" x1="-10.69" y1="32.08" x2="205.44" y2="32.08" xlink:href="#linear-gradient"/><linearGradient id="linear-gradient-4" x1="-10.69" y1="50.79" x2="205.44" y2="50.79" xlink:href="#linear-gradient"/><linearGradient id="linear-gradient-5" x1="-10.69" y1="50.79" x2="205.44" y2="50.79" xlink:href="#linear-gradient"/><linearGradient id="linear-gradient-6" x1="-10.69" y1="59.92" x2="205.44" y2="59.92" xlink:href="#linear-gradient"/><linearGradient id="linear-gradient-7" x1="-10.69" y1="28.19" x2="205.44" y2="28.19" xlink:href="#linear-gradient"/><linearGradient id="linear-gradient-8" x1="-10.69" y1="28.19" x2="205.44" y2="28.19" xlink:href="#linear-gradient"/><linearGradient id="linear-gradient-9" x1="-10.69" y1="9.5" x2="205.44" y2="9.5" xlink:href="#linear-gradient"/><linearGradient id="linear-gradient-10" x1="-10.69" y1="167.25" x2="205.44" y2="167.25" xlink:href="#linear-gradient"/><linearGradient id="linear-gradient-11" x1="-10.69" y1="157.71" x2="205.44" y2="157.71" xlink:href="#linear-gradient"/><linearGradient id="linear-gradient-12" x1="-10.69" y1="167.27" x2="205.44" y2="167.27" xlink:href="#linear-gradient"/><linearGradient id="linear-gradient-13" x1="-10.69" y1="157.66" x2="205.44" y2="157.66" xlink:href="#linear-gradient"/><linearGradient id="linear-gradient-14" x1="-10.69" y1="139.37" x2="205.44" y2="139.37" xlink:href="#linear-gradient"/></defs><g id="Layer_2" data-name="Layer 2"><g id="Layer_1-2" data-name="Layer 1"><path class="cls-1" d="M116.27,125.26a37.37,37.37,0,1,0,37.31,37.41A37.27,37.27,0,0,0,116.27,125.26Zm-10.9,43c-.44,2.74-1.82,5.16-4.64,5.39-4.76.38-9.58.1-14.43.1V151.53c4.59,0,9-.19,13.49.07,2.29.14,3.83,1.89,4.36,4.16.6,2.55-.48,4.54-2.73,6.11.36.24.61.43.88.59A5.63,5.63,0,0,1,105.37,168.28Zm14.56,5.86-11.38,0a1.81,1.81,0,0,1-.5-.19,8.08,8.08,0,0,1,2.4-5.68c2-2.27,4.25-4.33,6.31-6.55a8.84,8.84,0,0,0,1.67-2.56,2.91,2.91,0,0,0-1.52-4.12c-1.8-.63-3.28.19-4,2.18-.11.32-.22.63-.38,1.07l-4.2-.29a22.88,22.88,0,0,1,.47-2.29c1.29-3.86,6-5.69,10.34-4a6.34,6.34,0,0,1,3.33,8.94,23,23,0,0,1-4,5.19,43.73,43.73,0,0,1-4,3.49l.54.84h7.85c.19.31.32.42.33.54C123.46,174.14,123.46,174.14,119.93,174.14Zm21.39-.4c-4.65.29-9.33.11-14.11.11V151.53c4.57,0,9-.19,13.47.09,2.17.13,3.71,1.76,4.27,4,.67,2.65-.4,4.67-2.76,6.37,2.16.93,3.86,2.26,3.89,4.51a9.39,9.39,0,0,1-1.16,4.83A5.42,5.42,0,0,1,141.32,173.74Z"/><path class="cls-2" d="M52.93,96.08c5.17,0,10.34,0,15.52,0h0c5.3,0,10.61,0,15.92,0,2.84,0,4-1.17,4.09-4,.05-1.38.05-2.76,0-4.14-.37-7.86-5.54-13.34-13.35-13.86-3.91-.26-7.85-.19-11.78-.15a14.12,14.12,0,0,0-11.66,5.6c-2.92,3.77-3,8.17-2.87,12.61C48.88,95,50,96.06,52.93,96.08Z"/><path class="cls-3" d="M52.94,42.08c4.77,0,9.53,0,14.29,0h7.46c2.48,0,5,0,7.45,0,2.28,0,2.86-.57,2.94-2.78a43.18,43.18,0,0,0,0-5C84.41,27,80,22.59,72.63,22.18a105.4,105.4,0,0,0-11.79.1A11.77,11.77,0,0,0,50.1,31.16a36.9,36.9,0,0,0-.59,7.38C49.41,41.51,50,42.07,52.94,42.08Z"/><path class="cls-4" d="M11.94,60.73h14.5c5,0,10.08,0,15.12,0,1.52,0,2.62-.48,2.65-2.17a53.44,53.44,0,0,0-.14-6.82A12.19,12.19,0,0,0,32.35,40.93c-3.94-.12-7.88-.11-11.81,0A11.91,11.91,0,0,0,9.3,49.75a35.35,35.35,0,0,0-.67,7.58C8.53,60.21,9.12,60.73,11.94,60.73Z"/><path class="cls-5" d="M96.22,60.72h14.49c5,0,10.08,0,15.12,0,1.93,0,2.8-.81,2.76-2.72,0-1.37,0-2.76,0-4.14-.25-8-5.36-13-13.27-13-3.45,0-6.9-.09-10.35,0a12,12,0,0,0-10.4,6.45C92.73,50.54,93,54,93,57.44,93,60.26,93.46,60.72,96.22,60.72Z"/><path class="cls-6" d="M68.75,49.36a10.56,10.56,0,0,0-.26,21.12,10.44,10.44,0,0,0,10.6-10.41A10.55,10.55,0,0,0,68.75,49.36Z"/><path class="cls-7" d="M26.51,37.67a9.45,9.45,0,0,0,9.41-9.5,9.48,9.48,0,1,0-19,.11A9.44,9.44,0,0,0,26.51,37.67Z"/><path class="cls-8" d="M110.8,37.67a9.4,9.4,0,0,0,9.45-9.45,9.45,9.45,0,1,0-18.89,0A9.33,9.33,0,0,0,110.8,37.67Z"/><path class="cls-9" d="M67.37,19a9.5,9.5,0,1,0-9.51-9.4A9.5,9.5,0,0,0,67.37,19Z"/><path class="cls-10" d="M97.7,164.35c-2.12-.14-4.26,0-6.61,0v5.87c2.29,0,4.42.07,6.54,0,1.7-.07,2.89-.87,3-2.76A2.75,2.75,0,0,0,97.7,164.35Z"/><path class="cls-11" d="M97.44,160.16a2.31,2.31,0,0,0,2.29-2.45c0-1.35-.6-2.36-2-2.45-2.22-.14-4.45,0-6.75,0v5C93.24,160.2,95.35,160.31,97.44,160.16Z"/><path class="cls-12" d="M139.2,164.46c-2.43-.2-4.88-.06-7.36-.06v5.76c2.43,0,4.76.1,7.08,0a2.65,2.65,0,0,0,2.58-2.74A2.54,2.54,0,0,0,139.2,164.46Z"/><path class="cls-13" d="M138.12,160.19a2.47,2.47,0,0,0,2.52-2.72c0-1.56-1.16-2.25-2.64-2.35-.61-.05-1.23,0-1.85,0-4.76,0-4.76,0-4.28,5.14C134,160.22,136.08,160.31,138.12,160.19Z"/><path class="cls-14" d="M75.33,170.49c-3.94-21.94,8.86-42.22,30.28-48.29a5,5,0,0,0,2.45-1.63c5.34-6.95,10.6-13.95,15.88-20.95a7.76,7.76,0,0,0,1.63-4.32c-.16-2.84-2.13-5.19-6-7.61a54.8,54.8,0,0,0-13.85-6,106,106,0,0,0-14.46-2.93s0,0,0,0c.31,1.94.57,3.51.82,5v0c0,.22.08.44.11.66h0c9.75,2.74,20.08,3.69,27.91,11.57-5,5.54-11.12,7.36-17.19,9a154.77,154.77,0,0,1-59.67,3.56c-9.5-1.2-18.82-4-28.1-6.59l-2-.55c-2.76-.76-5.07-3.19-8.09-5.18a34,34,0,0,1,7.79-5.42c6.65-3.39,13.78-4.53,20.68-6.36.17-1.13.34-2.23.54-3.56.11-.67.21-1.4.34-2.22-10.73,1.65-20.62,3.8-29.26,9.62C-.53,92.23-1.42,96.05,2,101.53c12.56,20.1,24.93,40.32,38,60.08,5.09,7.71,8.66,15.31,7.33,24.62-.59,4.09,1.45,6.64,4.57,8.69.88.57,1.76,1.08,2.65,1.54,7.07,3.66,14.69,4,22.92,3.13l.73-.09v-.13c0-6.77-.09-13.13,0-19.47A39.86,39.86,0,0,1,75.33,170.49Z"/></g></g></svg>