<svg xmlns="http://www.w3.org/2000/svg" xmlns:xlink="http://www.w3.org/1999/xlink" viewBox="0 0 310.12 200"><defs><style>.cls-1{fill:url(#linear-gradient);}.cls-2{fill:url(#linear-gradient-2);}.cls-3{fill:url(#linear-gradient-3);}.cls-4{fill:url(#linear-gradient-4);}</style><linearGradient id="linear-gradient" x1="-0.25" y1="45.53" x2="309.35" y2="45.53" gradientUnits="userSpaceOnUse"><stop offset="0" stop-color="#b91c1c"/><stop offset="1" stop-color="#ef4444"/></linearGradient><linearGradient id="linear-gradient-2" x1="0" y1="121.41" x2="309.6" y2="121.41" xlink:href="#linear-gradient"/><linearGradient id="linear-gradient-3" x1="-0.25" y1="91.51" x2="309.35" y2="91.51" xlink:href="#linear-gradient"/><linearGradient id="linear-gradient-4" x1="-0.25" y1="143.82" x2="309.35" y2="143.82" xlink:href="#linear-gradient"/></defs><g id="Layer_2" data-name="Layer 2"><g id="Layer_1-2" data-name="Layer 1"><path class="cls-1" d="M90.33,27.83c5.45.67,9.28-1.75,12-6.18a2.9,2.9,0,0,1,2.9-1.62c5.29,0,10.59,0,15.88,0a13,13,0,0,1,1.7.22,3.56,3.56,0,0,1-.36.72,3.37,3.37,0,0,1-.77.74,62.72,62.72,0,0,0-18.66,18A62.41,62.41,0,0,0,92.25,64c-.73,3.8-.79,3.86-4.8,4-3.07.1-4.51,1.24-4.59,4.14-.13,4.93-.12,9.87,0,14.81C82.93,89.66,84.5,91,87.27,91q7,0,14,0c3,0,4.53-1.57,4.55-4.66,0-4.36,0-8.73,0-13.09,0-4-1-5.11-5-5.29-1.55-.07-2.18-.65-1.68-2.11,1.66-4.83,3-9.84,5.16-14.41a56.57,56.57,0,0,1,20.58-23.3,50.66,50.66,0,0,1,15.66-6.9c0,1.95-.06,3.62,0,5.28.12,2.75.93,3.55,3.67,3.62,2.29,0,4.58,0,6.87,0,4.51,0,9,0,13.52,0,2.88,0,3.54-.73,3.59-3.57,0-1.28,0-2.57,0-3.86,0-1.14.55-1.56,1.67-1.14,1.39.53,2.79,1,4.2,1.53C183.94,26.62,191.65,33,198.16,41A62.43,62.43,0,0,1,210,65.41c.53,2.12.28,2.45-2,2.54-3.25.13-4.52,1-4.58,3.57-.12,5.29-.11,10.58,0,15.88.05,2.46,1.38,3.6,3.85,3.63,4.87,0,9.73,0,14.6,0,2.73,0,4.08-1.39,4.1-4.1,0-4.87,0-9.73,0-14.6,0-3-1.22-4.22-4.29-4.36-.71,0-1.43,0-2.14,0-1.48,0-2-.75-2.42-2.14-1.36-4.84-2.52-9.8-4.44-14.42A64,64,0,0,0,188,22.05a19.52,19.52,0,0,1-2.14-2c5.8,0,10.95,0,16.08.07.61,0,1.38.85,1.77,1.49,2.19,3.62,5.07,6.15,9.49,6.47,5.23.37,9-1.61,11.44-5.93A11.84,11.84,0,0,0,223.59,9.1c-5.42-6.53-14.81-5.82-19.52,1.6a3.33,3.33,0,0,1-3.25,1.81c-9.87,0-19.75,0-29.62,0-2.9,0-2.89-.13-3-3-.12-2.38,1-5-1.78-7.19-14.86-5-24.73-.17-24.73-.17-.41,2.17-.81,4.09-1.11,6a11.72,11.72,0,0,0,0,2.37c.07,1.47-.64,2-2.08,2-11.23,0-22.47,0-33.7-.07a3.06,3.06,0,0,1-2.31-1.36A12,12,0,0,0,86.94,5.43C81.9,7.58,78.39,15,80.5,20,82.33,24.35,85.4,27.21,90.33,27.83Z"/><path class="cls-2" d="M302.7,185.21c-9.52.07-19,0-28.55,0-.74,0-1.48-.08-1.81-.1.7-2.54,1.88-4.87,1.89-7.2q.15-64.17.07-128.34c0-4.85-1.94-6.75-6.78-6.76q-13.2,0-26.41,0h-4.72c-1.19,0-1.79.47-1.42,1.71.55,1.85,1.21,3.66,1.68,5.52.38,1.48,1.25,1.81,2.67,1.8,7.65-.06,15.31,0,23,0,2.91,0,3,.1,3,3V175.26c0,2.74-.19,2.93-2.92,2.93H43.23c-3,0-3,0-3-3.15V54.84c0-3,0-3,2.93-3,7.8,0,15.6,0,23.4-.06A3.15,3.15,0,0,0,69,50.47a50.57,50.57,0,0,0,1.47-5.57c.44-1.54-.29-1.94-1.61-1.94-11.09,0-22.18,0-33.27.09-3.33,0-5.19,2.12-5.33,5.47-.05,1.07,0,2.15,0,3.22q0,61.82,0,123.63c0,3.41,0,6.72,2.57,9.38,0,.05-.05.25-.09.49l-.66.06h0c-.31,0-.64.06-1,.06-4.43,0-19.2,0-26.66-.07A4.36,4.36,0,0,0,0,189.66H0A10.34,10.34,0,0,0,10.34,200H299.79a10.34,10.34,0,0,0,10.33-10.34v-.3C308.62,186,306,185.19,302.7,185.21Zm-137.32,6.42c-.11,2.43-1.62,3.86-4.17,3.88-2.79,0-5.58,0-8.36,0s-5.58,0-8.36,0a3.81,3.81,0,0,1-3.86-4,3.73,3.73,0,0,1,3.73-4.08c4.21-.11,8.43,0,12.64,0,1.43,0,2.86-.05,4.29,0C163.94,187.54,165.49,189.17,165.38,191.63Z"/><path class="cls-3" d="M176,133.71c3.38-8.84,6.91-17.62,10.32-26.45a2.89,2.89,0,0,0-.21-2.11c-2.67-5.18-5.62-10.23-8.1-15.5-3.4-7.2-6.65-14.47-9.6-21.86a145.35,145.35,0,0,1-4.81-15c-1.15-4.13-1.24-4.31-5.56-4.12-1.64.07-2.17.61-2.17,2.3q0,22-.11,44c0,2.44.2,4.38,2.43,6.08,2.57,2,2.26,5.41-.2,7.65a5.42,5.42,0,0,1-7.66-.47c-2-2.31-1.77-6.07.74-7.75a3.07,3.07,0,0,0,1.44-3c0-7.72,0-15.45,0-23.18h.06V51.72c0-3.51-.19-3.7-3.7-4-1.16-.09-1.71.19-2.08,1.48-1.16,4-2.41,8-3.91,12-2.22,5.77-4.47,11.55-7.09,17.15-4.07,8.71-8.4,17.3-12.76,25.87a4.76,4.76,0,0,0-.26,4.27q4.9,12.06,9.82,24.1a2.7,2.7,0,0,0,2.64,2.07q19.11.28,38.2.69A2.25,2.25,0,0,0,176,133.71Z"/><path class="cls-4" d="M154.33,139.86H138.88c-5.18,0-5.07,0-5.23,5.16-.07,2.17.55,2.82,2.74,2.8,10.87-.11,21.75-.05,32.62-.05,5.6,0,5.51,0,5.62-5.5,0-2-.7-2.45-2.48-2.43C166.21,139.9,160.27,139.86,154.33,139.86Z"/></g></g></svg>