<?xml version="1.0" encoding="utf-8"?>
<!-- Generator: Adobe Illustrator 27.5.0, SVG Export Plug-In . SVG Version: 6.00 Build 0)  -->
<svg version="1.1" xmlns="http://www.w3.org/2000/svg" xmlns:xlink="http://www.w3.org/1999/xlink" x="0px" y="0px"
	 viewBox="0 0 500 500.001" style="enable-background:new 0 0 500 500.001;" xml:space="preserve">
<g id="BACKGROUND">
	<rect x="0.013" style="fill:#48A3A8;" width="499.999" height="499.999"/>
</g>
<g id="OBJECTS">
	<path style="opacity:0.5;fill:#48A3A8;" d="M455.512,191.893c-15.846,25.001-55.942,35.801-98.818,35.488
		c10.963-16.433,14.766-33.981,14.963-50.085c10.772-5.847,18.366-9.798,21.105-10.874c3.959-1.555,7.449-2.669,10.505-3.418
		c0.283-0.069,0.563-0.137,0.839-0.2c0.476-0.109,0.936-0.205,1.388-0.295c0.221-0.044,0.449-0.094,0.665-0.133
		c0.63-0.115,1.238-0.213,1.821-0.291c0.189-0.025,0.363-0.041,0.547-0.062c0.41-0.048,0.813-0.09,1.198-0.12
		c0.215-0.017,0.423-0.028,0.63-0.039c0.348-0.019,0.684-0.028,1.01-0.031c0.185-0.001,0.371-0.005,0.549-0.002
		c0.418,0.008,0.817,0.028,1.199,0.061c0.081,0.007,0.165,0.012,0.244,0.021c0.405,0.042,0.786,0.102,1.148,0.173
		c0.133,0.026,0.256,0.058,0.383,0.089c0.252,0.06,0.495,0.126,0.725,0.2c0.121,0.04,0.24,0.079,0.354,0.123
		c0.237,0.089,0.459,0.189,0.669,0.295c0.075,0.038,0.157,0.071,0.229,0.111c0.268,0.151,0.515,0.315,0.735,0.495
		c0.055,0.044,0.099,0.094,0.15,0.14c0.161,0.144,0.311,0.295,0.444,0.455c0.058,0.07,0.11,0.142,0.163,0.215
		c0.112,0.156,0.211,0.318,0.299,0.487c0.037,0.072,0.078,0.143,0.111,0.217c0.107,0.245,0.198,0.498,0.257,0.767
		c1.039,4.748-4.303,6.677-4.303,6.677s-1.189-6.232-5.787-5.936c-4.6,0.297-10.388,5.934-8.161,12.167
		c2.225,6.233,20.329,11.278,28.49-2.076c7.607-12.448,1.417-23.088-7.989-26.518c0.004,0.001,0.009,0.002,0.014,0.004
		c0,0-12.355-8.651-36.839,0.697c-2.795,1.067-7.729,3.419-14.271,6.743c-3.548-22.589-12.215-38.864-12.215-38.864
		c-0.7,25.163-14.422,37.34-63.879,60.027c0.001-0.143-0.083-0.275-0.206-0.354c0.409-2.326,1.538-9.546-0.132-10.029
		c-1.991-0.576-3.719-0.576-3.719-0.576s-1.891-4.142-6.585-4.956c0.006-0.018,0.012-0.037,0.018-0.056
		c0.103-0.31,0.197-0.62,0.291-0.93c0.058-0.19,0.12-0.38,0.175-0.57c0.14-0.491,0.267-0.982,0.382-1.473
		c0.038-0.159,0.067-0.317,0.102-0.476c0.076-0.348,0.15-0.695,0.213-1.042c0.035-0.191,0.063-0.382,0.095-0.572
		c0.051-0.315,0.1-0.63,0.14-0.944c0.025-0.199,0.047-0.396,0.067-0.595c0.033-0.308,0.061-0.615,0.083-0.922
		c0.014-0.197,0.026-0.393,0.036-0.589c0.016-0.313,0.022-0.624,0.026-0.936c0.002-0.185,0.006-0.371,0.004-0.555
		c-0.004-0.339-0.018-0.677-0.036-1.015c-0.009-0.153-0.012-0.307-0.022-0.459c-0.036-0.488-0.084-0.975-0.151-1.458
		c-2.277-16.396-15.507-17.773-16.335-22.872c-0.826-5.098,4.548-27.418-1.239-36.369c-5.786-8.951-15.662-4.888-15.662-4.888
		c-3.868-14.605-26.911-18.677-44.822,0.198c-5.565,5.865-8.389,12.747-9.71,19.232c-0.314-0.219-0.5-0.341-0.5-0.341
		c-1.29,1.648-2.171,3.247-2.737,4.765c-1.105-0.841-2.553-1.794-4.48-2.831c0,0-0.631,2.267-0.531,5.484
		c-0.152,0-0.309-0.003-0.455,0.007c-0.267,0.034-0.526,0.066-0.774,0.099c-0.492,0.069-0.948,0.109-1.332,0.211
		c-0.386,0.099-0.721,0.185-0.997,0.256c-0.553,0.146-0.866,0.243-0.866,0.243c0.331,1.535,0.788,2.876,1.334,4.046
		c-1.36,0.146-3.03,0.438-5.084,0.98c0,0,1.193,2.299,3.702,4.709c-0.048,0.058-0.099,0.121-0.146,0.177
		c-0.311,0.39-0.614,0.732-0.823,1.07c-0.212,0.335-0.396,0.629-0.55,0.872c-0.301,0.485-0.463,0.771-0.463,0.771
		c1.872,1.285,3.658,2.099,5.32,2.551c-1.075,1.147-2.427,2.904-3.968,5.61c0,0,0.815,0.247,2.162,0.441
		c-8.014,9.186-0.606,23.705-0.606,23.705c-11.774,3.325-15.33,9.785-15.242,16.49c-33.211-13.396-43.917-24.363-46.506-45.17
		c0,0-22.163,53.416,4.434,97.835c-42.162-0.013-81.326-10.851-96.937-35.486c0,0,19.741,76.525,78.304,99.513
		c-18.979,15.603-23.644,30.034-21.821,33.33c0.053,0.097,0.119,0.193,0.182,0.29l-0.005,0.003c0,0,0.018,0.024,0.044,0.059
		c0.137,0.204,0.294,0.406,0.474,0.607c2.979,3.745,18.512,22.184,38.448,26.041c-2.241,5.725-4.2,11.878-5.801,18.524
		c0,0,43.911,11.913,80.007-14.462c1.842,0.418,3.655,0.836,5.448,1.253c0.859,21.167,10.539,45.527,36.739,71.728
		c0,0,12.584-11.377,23.119-29.888c-0.018,0.171-0.041,0.34-0.041,0.519c0,4.515,5.933,10.188,5.803,15.605
		c-0.006,0.267-0.022,0.551-0.043,0.844c-0.003,0.056-0.007,0.108-0.011,0.165c-0.021,0.27-0.046,0.552-0.074,0.841
		c-0.01,0.098-0.021,0.195-0.03,0.295c-0.027,0.255-0.056,0.517-0.087,0.785c-0.672,5.849-2.083,14.551,4.114,19.77
		c0,0-2.605,6.647,3.505,9.416c1.14,0.516,0.88-5.029,4.363-15.219c3.482-10.189,4.257-28.245,5.418-33.662
		c0.143-0.67,0.372-1.438,0.662-2.267c0.105-0.302,0.221-0.612,0.342-0.929c0.034-0.09,0.068-0.18,0.103-0.271
		c0.121-0.31,0.247-0.625,0.38-0.945c0.015-0.036,0.03-0.074,0.046-0.111c1.587,0.633,3.328,1.033,5.246,1.093
		c0,0,6.252-11.895,14.338-26.583c28.831,9.254,55.462,2.024,55.462,2.024c-5.345-22.189-14.566-39.036-25.622-51.842
		c0.437-0.579,0.855-1.115,1.252-1.601c5.467-6.691,8.151-13.092,7.226-18.711c3.924-0.501,7.971-1.136,12.153-1.931
		C432.118,282.609,455.512,191.893,455.512,191.893z M268.214,395.191c3.043-5.791,5.819-12.191,7.941-19.091
		c0.573,0.189,0.874,0.289,0.874,0.289s0.628,2.281,2.058,5.234c-0.355,3.969-1.217,8.281-3.267,9.272
		C273.346,392.095,270.229,393.343,268.214,395.191z"/>
	<g>
		<g>
			<g>
				<path style="fill:#93E3E4;" d="M258.273,273.969c0,0-12.857-80.526,39.282-104.191c52.14-23.661,66.426-35.808,67.142-61.519
					C364.697,108.258,434.695,239.689,258.273,273.969z"/>
				<path style="fill:#79CCD0;" d="M364.697,108.258c0,0,20.676,49.843-32.143,82.857c-62.854,39.281-74.28,82.853-74.28,82.853
					C434.695,239.689,364.697,108.258,364.697,108.258z"/>
				<path style="fill:#BBEEEF;" d="M364.697,108.258c0,0,0.329,0.752,0.832,2.208c0.496,1.457,1.18,3.615,1.801,6.426
					c0.625,2.809,1.214,6.265,1.513,10.272c0.298,4.002,0.314,8.565-0.323,13.484c-0.644,4.912-1.905,10.181-4.007,15.474
					c-2.094,5.291-5.026,10.606-8.825,15.531c-3.796,4.924-8.358,9.505-13.45,13.568c-1.3,0.981-2.607,1.964-3.914,2.952
					c-1.317,0.976-2.719,1.84-4.077,2.769c-2.72,1.81-5.448,3.627-8.178,5.444l-4.11,2.706c-1.316,0.963-2.631,1.927-3.941,2.889
					c-1.31,0.963-2.617,1.926-3.921,2.885l-1.953,1.436c-0.651,0.476-1.255,1.014-1.884,1.516c-2.487,2.043-4.956,4.069-7.396,6.07
					c-2.329,2.128-4.632,4.23-6.895,6.298c-4.393,4.272-8.575,8.478-12.259,12.727c-1.926,2.052-3.579,4.231-5.257,6.277
					c-1.707,2.024-3.175,4.117-4.622,6.098c-0.708,1.002-1.465,1.94-2.087,2.936c-0.646,0.98-1.276,1.938-1.891,2.872
					c-1.274,1.843-2.334,3.682-3.359,5.395c-1.057,1.694-1.901,3.36-2.725,4.878c-0.847,1.508-1.487,2.962-2.121,4.247
					c-1.22,2.595-2.069,4.685-2.61,6.123c-0.532,1.442-0.764,2.23-0.764,2.23s0.201-0.796,0.68-2.259
					c0.493-1.459,1.244-3.593,2.405-6.225c0.597-1.308,1.2-2.785,2.006-4.32c0.782-1.548,1.586-3.246,2.598-4.977
					c0.981-1.748,1.995-3.628,3.223-5.516c1.191-1.908,2.435-3.922,3.892-5.917c1.422-2.018,2.864-4.15,4.545-6.215
					c1.652-2.087,3.281-4.312,5.184-6.41c3.634-4.34,7.759-8.664,12.181-12.973c2.269-2.095,4.573-4.226,6.907-6.382
					c2.444-2.03,4.92-4.083,7.414-6.154c0.629-0.51,1.232-1.055,1.889-1.539l1.963-1.461c1.31-0.977,2.627-1.956,3.944-2.936
					c1.319-0.978,2.642-1.957,3.965-2.939l4.097-2.725c2.745-1.805,5.489-3.61,8.224-5.408c1.343-0.907,2.729-1.751,4.031-2.704
					c1.293-0.964,2.582-1.925,3.867-2.882c5.03-3.967,9.53-8.438,13.277-13.241c3.726-4.82,6.704-9.952,8.847-15.111
					c2.151-5.158,3.482-10.317,4.198-15.15c0.692-4.841,0.809-9.347,0.63-13.323c-0.185-3.979-0.676-7.432-1.219-10.243
					C365.925,111.326,364.697,108.258,364.697,108.258z"/>
			</g>
			<g>
				<path style="fill:#93E3E4;" d="M252.108,273.969c0,0,5.078-81.388-49.09-99.943c-54.17-18.559-69.556-29.275-72.731-54.799
					C130.287,119.227,73.213,256.76,252.108,273.969z"/>
				<path style="fill:#79CCD0;" d="M130.287,119.227c0,0-15.802,51.596,39.939,79.391c66.332,33.077,81.882,75.351,81.882,75.351
					C73.213,256.76,130.287,119.227,130.287,119.227z"/>
				<path style="fill:#BBEEEF;" d="M130.287,119.227c0,0-0.928,3.172-1.478,8.883c-0.271,2.851-0.428,6.334-0.231,10.313
					c0.202,3.975,0.752,8.449,1.905,13.201c1.177,4.743,2.996,9.75,5.632,14.678c2.627,4.931,6.085,9.752,10.255,14.192
					c4.19,4.422,9.099,8.44,14.487,11.907c1.37,0.83,2.746,1.663,4.126,2.499c1.387,0.823,2.848,1.531,4.272,2.305
					c2.893,1.527,5.798,3.061,8.704,4.594l4.339,2.319c1.412,0.85,2.822,1.699,4.229,2.545c1.406,0.85,2.809,1.699,4.207,2.545
					l2.095,1.267c0.699,0.419,1.352,0.903,2.028,1.349c2.681,1.823,5.34,3.63,7.968,5.416c2.53,1.923,5.029,3.822,7.488,5.69
					c4.814,3.865,9.335,7.773,13.369,11.745c2.093,1.905,3.929,3.964,5.773,5.882c1.871,1.895,3.512,3.879,5.12,5.752
					c1.641,1.845,3.073,3.731,4.44,5.517c1.403,1.76,2.593,3.533,3.736,5.181c1.174,1.625,2.136,3.238,3.064,4.703
					c0.949,1.452,1.691,2.865,2.412,4.109c1.407,2.509,2.359,4.561,2.99,5.965c0.616,1.412,0.894,2.184,0.894,2.184
					s-0.306-0.762-0.975-2.147c-0.676-1.38-1.722-3.378-3.185-5.844c-0.754-1.22-1.53-2.604-2.518-4.025
					c-0.964-1.433-1.966-3.01-3.18-4.596c-1.184-1.605-2.415-3.335-3.86-5.046c-0.702-0.871-1.421-1.765-2.159-2.679
					c-0.715-0.932-1.559-1.792-2.359-2.722c-1.63-1.834-3.292-3.776-5.186-5.628c-1.865-1.875-3.72-3.886-5.834-5.744
					c-4.073-3.876-8.641-7.661-13.422-11.493c-2.452-1.841-4.943-3.712-7.466-5.607c-2.62-1.759-5.271-3.539-7.944-5.334
					c-0.674-0.439-1.325-0.918-2.02-1.329l-2.081-1.242c-1.39-0.83-2.783-1.662-4.18-2.496c-1.397-0.831-2.797-1.664-4.2-2.498
					l-4.352-2.299c-2.89-1.547-5.781-3.094-8.66-4.635c-1.443-0.794-2.919-1.521-4.324-2.365c-1.397-0.857-2.791-1.712-4.179-2.563
					c-5.46-3.556-10.44-7.678-14.69-12.216c-4.254-4.537-7.683-9.547-10.274-14.612c-2.601-5.068-4.361-10.19-5.473-15.019
					c-1.106-4.836-1.528-9.378-1.616-13.391c-0.086-4.017,0.169-7.514,0.522-10.369c0.348-2.858,0.822-5.072,1.176-6.57
					C130.03,120.008,130.287,119.227,130.287,119.227z"/>
			</g>
			<g>
				<path style="fill:#93E3E4;" d="M262.431,268.001c0,0,18.571-59.281,71.426-52.854c52.855,6.427,108.922-2.857,128.388-33.571
					c0,0-23.394,90.717-94.817,104.283C296.002,299.43,262.431,268.001,262.431,268.001z"/>
				<path style="fill:#79CCD0;" d="M331.267,236.917c-42.589-2.518-68.836,31.085-68.836,31.085s33.571,31.429,104.996,17.858
					c71.424-13.566,94.817-104.283,94.817-104.283C427.064,240.147,373.855,239.434,331.267,236.917z"/>
				<path style="fill:#BBEEEF;" d="M462.244,181.576c0,0-0.466,0.767-1.337,2.205c-0.436,0.72-0.974,1.606-1.605,2.649
					c-0.631,1.044-1.445,2.188-2.314,3.497c-0.441,0.652-0.903,1.339-1.389,2.061c-0.517,0.697-1.06,1.427-1.623,2.188
					c-0.564,0.761-1.152,1.554-1.763,2.376c-0.645,0.794-1.313,1.618-2.002,2.469c-2.736,3.426-6.114,7.061-10.051,10.762
					c-3.923,3.718-8.543,7.361-13.727,10.765c-5.188,3.393-10.99,6.496-17.28,9.011c-12.567,5.107-26.941,7.813-41.313,8.661
					c-7.195,0.4-14.402,0.41-21.475,0.166c-3.54-0.108-7.044-0.286-10.505-0.474c-1.723-0.097-3.436-0.194-5.136-0.29
					c-1.703-0.051-3.411-0.163-5.06-0.099c-3.314-0.015-6.594,0.338-9.773,0.718c-3.173,0.468-6.263,1.058-9.218,1.859
					c-5.919,1.561-11.315,3.759-16.092,6.167c-4.763,2.445-8.947,5.046-12.48,7.596c-3.544,2.541-6.466,4.987-8.777,7.102
					c-4.638,4.225-6.895,7.036-6.895,7.036s0.541-0.716,1.643-1.99c1.102-1.271,2.762-3.104,5.034-5.278
					c2.264-2.182,5.134-4.713,8.632-7.36c3.485-2.662,7.636-5.395,12.42-7.924c4.787-2.509,10.216-4.821,16.2-6.501
					c2.987-0.861,6.116-1.51,9.341-2.037c3.235-0.455,6.551-0.794,9.967-0.809c1.716-0.071,3.396,0.032,5.107,0.074
					c1.712,0.088,3.434,0.176,5.166,0.265c3.453,0.17,6.949,0.329,10.471,0.417c7.044,0.208,14.203,0.155,21.335-0.271
					c14.249-0.769,28.46-3.371,40.884-8.345c6.205-2.475,11.982-5.417,17.161-8.694c5.174-3.283,9.803-6.816,13.749-10.441
					c3.946-3.622,7.396-7.139,10.206-10.475c0.709-0.829,1.396-1.631,2.057-2.406c0.629-0.803,1.234-1.577,1.815-2.32
					c0.581-0.745,1.14-1.458,1.673-2.14c0.503-0.706,0.981-1.378,1.435-2.016c0.897-1.285,1.743-2.402,2.412-3.422
					c0.668-1.021,1.234-1.888,1.695-2.592C461.753,182.327,462.244,181.576,462.244,181.576z"/>
			</g>
			<g>
				<path style="fill:#93E3E4;" d="M237.597,268.001c0,0-18.571-59.281-71.427-52.854c-52.853,6.427-108.922-2.857-128.386-33.571
					c0,0,23.392,90.717,94.817,104.283C204.027,299.43,237.597,268.001,237.597,268.001z"/>
				<path style="fill:#79CCD0;" d="M168.76,236.917c42.589-2.518,68.837,31.085,68.837,31.085s-33.57,31.429-104.997,17.858
					c-71.425-13.566-94.817-104.283-94.817-104.283C72.963,240.147,126.172,239.434,168.76,236.917z"/>
				<path style="fill:#BBEEEF;" d="M37.784,181.576c0,0,0.491,0.751,1.411,2.159c0.46,0.704,1.028,1.571,1.695,2.592
					c0.67,1.02,1.514,2.137,2.413,3.422c0.454,0.638,0.932,1.31,1.434,2.016c0.533,0.682,1.092,1.395,1.674,2.14
					c0.581,0.744,1.186,1.518,1.814,2.32c0.662,0.775,1.348,1.577,2.057,2.406c2.809,3.336,6.26,6.854,10.205,10.475
					c3.945,3.625,8.576,7.158,13.75,10.441c5.179,3.277,10.957,6.218,17.162,8.694c12.424,4.974,26.634,7.576,40.885,8.345
					c7.131,0.426,14.289,0.479,21.333,0.271c3.523-0.088,7.017-0.247,10.47-0.417c1.733-0.089,3.456-0.177,5.166-0.265
					c1.71-0.041,3.391-0.145,5.107-0.074c3.416,0.015,6.731,0.354,9.967,0.809c3.223,0.527,6.354,1.176,9.341,2.037
					c5.984,1.68,11.413,3.993,16.2,6.501c4.784,2.529,8.935,5.262,12.419,7.924c3.499,2.647,6.369,5.179,8.633,7.36
					c2.273,2.175,3.933,4.008,5.034,5.278c1.102,1.274,1.643,1.99,1.643,1.99s-2.256-2.811-6.894-7.036
					c-2.311-2.114-5.234-4.561-8.777-7.102c-3.534-2.55-7.718-5.151-12.481-7.596c-4.777-2.407-10.173-4.605-16.092-6.167
					c-2.954-0.801-6.044-1.391-9.218-1.859c-3.179-0.38-6.458-0.733-9.773-0.718c-1.647-0.064-3.355,0.048-5.06,0.099
					c-1.701,0.096-3.413,0.193-5.136,0.29c-3.46,0.188-6.965,0.366-10.503,0.474c-7.074,0.243-14.28,0.234-21.476-0.166
					c-14.371-0.849-28.745-3.554-41.313-8.662c-6.291-2.514-12.091-5.618-17.28-9.011c-5.184-3.404-9.805-7.047-13.727-10.765
					c-3.936-3.701-7.314-7.336-10.049-10.762c-0.69-0.851-1.358-1.675-2.003-2.469c-0.61-0.822-1.198-1.615-1.763-2.376
					c-0.564-0.761-1.105-1.491-1.623-2.188c-0.486-0.721-0.948-1.408-1.388-2.061c-0.87-1.31-1.685-2.453-2.315-3.497
					c-0.632-1.043-1.17-1.93-1.605-2.649C38.249,182.343,37.784,181.576,37.784,181.576z"/>
			</g>
			<g>
				<path style="fill:#93E3E4;" d="M250.013,267.882c0,0-98.834-5.791-122.404,92.061
					C127.609,359.943,228.139,387.245,250.013,267.882z"/>
				<path style="fill:#79CCD0;" d="M250.013,267.866c0,0-74.034-4.338-91.692,68.964
					C158.321,336.83,233.627,357.281,250.013,267.866z"/>
				<path style="fill:#BBEEEF;" d="M158.321,336.83c0,0,0.496,0.122,1.438,0.292c0.939,0.181,2.326,0.394,4.093,0.626
					c1.767,0.236,3.924,0.426,6.399,0.567c1.239,0.032,2.556,0.117,3.946,0.097c0.694,0.001,1.406,0.001,2.135,0.003
					c0.729-0.022,1.474-0.046,2.235-0.07c3.041-0.127,6.333-0.397,9.765-0.986c1.725-0.245,3.465-0.656,5.249-1.039
					c0.89-0.2,1.771-0.476,2.674-0.701c0.902-0.231,1.81-0.472,2.703-0.787c0.9-0.296,1.807-0.594,2.72-0.894
					c0.893-0.355,1.792-0.714,2.697-1.074c0.451-0.184,0.909-0.354,1.356-0.549l1.329-0.636c0.884-0.431,1.788-0.836,2.669-1.292
					c1.711-1.005,3.512-1.892,5.147-3.064c0.832-0.563,1.682-1.1,2.501-1.685l2.382-1.856l1.2-0.921l1.126-1.007l2.25-2.011
					c0.738-0.681,1.4-1.438,2.101-2.148c0.68-0.733,1.408-1.42,2.043-2.182c0.63-0.771,1.258-1.535,1.882-2.297
					c0.618-0.767,1.273-1.499,1.806-2.318c0.56-0.799,1.115-1.593,1.667-2.381c0.552-0.789,1.117-1.561,1.577-2.392
					c0.955-1.639,1.955-3.218,2.826-4.821c0.835-1.628,1.652-3.22,2.448-4.77c0.726-1.584,1.367-3.156,2.024-4.661
					c0.312-0.759,0.669-1.485,0.929-2.234c0.265-0.748,0.525-1.482,0.78-2.2c0.511-1.436,1.002-2.815,1.468-4.124
					c0.397-1.333,0.773-2.598,1.127-3.787c0.353-1.191,0.684-2.306,0.989-3.335c0.282-1.037,0.482-2.004,0.694-2.871
					c0.838-3.473,1.316-5.456,1.316-5.456s-0.366,2.009-1.005,5.526c-0.173,0.877-0.33,1.857-0.566,2.908
					c-0.259,1.047-0.54,2.179-0.839,3.388c-0.302,1.212-0.623,2.5-0.961,3.858c-0.43,1.333-0.881,2.733-1.353,4.197
					c-0.236,0.731-0.477,1.478-0.724,2.237c-0.242,0.764-0.581,1.507-0.876,2.283c-0.62,1.537-1.225,3.143-1.917,4.768
					c-0.763,1.594-1.546,3.23-2.348,4.903c-0.371,0.852-0.901,1.633-1.36,2.46c-0.477,0.82-0.959,1.647-1.445,2.479
					c-0.46,0.851-1.029,1.643-1.583,2.451c-0.555,0.809-1.115,1.623-1.677,2.443c-0.536,0.84-1.198,1.594-1.821,2.384
					c-0.631,0.784-1.266,1.571-1.902,2.362c-0.644,0.786-1.38,1.495-2.069,2.251c-0.712,0.736-1.382,1.516-2.132,2.221l-2.286,2.081
					l-1.146,1.043l-1.223,0.951l-2.462,1.884c-0.846,0.591-1.722,1.137-2.58,1.705c-1.689,1.184-3.541,2.078-5.304,3.09
					c-0.906,0.46-1.835,0.866-2.744,1.299l-1.365,0.637c-0.46,0.197-0.93,0.366-1.393,0.551c-0.929,0.36-1.851,0.717-2.767,1.072
					c-0.936,0.298-1.864,0.594-2.786,0.887c-0.915,0.314-1.844,0.551-2.766,0.778c-0.921,0.228-1.826,0.485-2.739,0.659
					c-1.828,0.343-3.607,0.711-5.366,0.911c-3.5,0.503-6.84,0.684-9.917,0.729c-3.079,0.077-5.897-0.138-8.384-0.343
					c-2.484-0.254-4.64-0.541-6.402-0.859c-1.764-0.303-3.135-0.623-4.064-0.854C158.81,336.98,158.321,336.83,158.321,336.83z"/>
			</g>
			<g>
				<path style="fill:#93E3E4;" d="M250.013,267.882c0,0,98.835-5.791,122.405,92.061
					C372.418,359.943,271.889,387.245,250.013,267.882z"/>
				<path style="fill:#79CCD0;" d="M250.013,267.866c0,0,74.036-4.338,91.693,68.964C341.706,336.83,266.4,357.281,250.013,267.866z
					"/>
				<path style="fill:#BBEEEF;" d="M250.013,267.866c0,0,0.486-0.047,1.401-0.085c0.912-0.04,2.255-0.088,3.965-0.061
					c1.708,0.021,3.783,0.107,6.16,0.28c2.374,0.191,5.057,0.444,7.953,0.936c2.902,0.444,6.022,1.088,9.293,1.898
					c3.269,0.821,6.68,1.848,10.125,3.148c3.432,1.327,6.942,2.821,10.353,4.654c3.456,1.749,6.766,3.896,10.014,6.119
					c3.137,2.376,6.204,4.86,8.939,7.609c0.686,0.682,1.37,1.364,2.051,2.041c0.663,0.693,1.276,1.428,1.91,2.134
					c0.624,0.714,1.26,1.412,1.863,2.128c0.571,0.741,1.14,1.475,1.703,2.206c0.557,0.734,1.135,1.443,1.658,2.182
					c0.501,0.754,0.996,1.501,1.485,2.241c0.487,0.741,0.968,1.475,1.442,2.197c0.427,0.756,0.846,1.5,1.261,2.235
					c1.734,2.897,3.011,5.827,4.277,8.477c0.542,1.363,1.063,2.673,1.558,3.917c0.239,0.624,0.474,1.232,0.701,1.823
					c0.19,0.603,0.376,1.191,0.555,1.76c0.359,1.135,0.695,2.197,1.006,3.181c0.15,0.493,0.315,0.959,0.436,1.417
					c0.113,0.457,0.221,0.895,0.325,1.31c0.802,3.318,1.26,5.215,1.26,5.215s-0.57-1.863-1.567-5.126
					c-0.122-0.408-0.25-0.837-0.385-1.288c-0.141-0.448-0.328-0.904-0.499-1.388c-0.355-0.963-0.739-2.003-1.149-3.115
					c-0.205-0.556-0.416-1.129-0.634-1.72c-0.253-0.575-0.514-1.167-0.781-1.775c-0.53-1.217-1.086-2.496-1.665-3.831
					c-1.332-2.585-2.674-5.442-4.468-8.249c-0.43-0.712-0.863-1.434-1.303-2.164c-0.488-0.699-0.983-1.409-1.482-2.124
					c-0.497-0.718-0.998-1.442-1.504-2.176c-0.521-0.721-1.098-1.41-1.65-2.128c-0.561-0.711-1.125-1.43-1.693-2.151
					c-0.601-0.696-1.232-1.375-1.851-2.071c-0.629-0.686-1.236-1.402-1.893-2.076c-0.675-0.658-1.353-1.319-2.031-1.983
					c-2.707-2.671-5.74-5.071-8.833-7.379c-3.164-2.207-6.39-4.348-9.771-6.099c-3.334-1.835-6.774-3.336-10.145-4.676
					c-1.7-0.633-3.368-1.267-5.031-1.803c-1.648-0.583-3.293-1.054-4.892-1.521c-3.21-0.893-6.28-1.62-9.146-2.145
					c-5.721-1.086-10.566-1.604-13.967-1.805c-1.7-0.096-3.038-0.158-3.952-0.168C250.501,267.852,250.013,267.866,250.013,267.866z
					"/>
			</g>
			<g>
				<path style="fill:#79CCD0;" d="M249.803,418.462c0,0,81.143-73.341,3.836-150.646
					C253.639,267.816,164.806,333.467,249.803,418.462z"/>
				<path style="fill:#93E3E4;" d="M249.86,407.259c0,0,58.893-67.885,2.784-139.442C252.645,267.816,188.17,328.584,249.86,407.259
					z"/>
				<path style="fill:#79CCD0;" d="M249.925,393.397c0,0,33.811-61.136,1.6-125.581
					C251.525,267.816,214.508,322.544,249.925,393.397z"/>
				<path style="fill:#BBEEEF;" d="M249.925,393.397c0,0,0.923-1.815,2.296-5.094c0.7-1.633,1.49-3.642,2.349-5.962
					c0.847-2.324,1.742-4.966,2.664-7.863c0.899-2.905,1.821-6.068,2.638-9.454c0.858-3.375,1.567-6.979,2.291-10.702
					c0.301-1.872,0.679-3.767,0.919-5.705c0.135-0.967,0.268-1.938,0.405-2.917c0.105-0.98,0.213-1.967,0.32-2.956
					c0.439-3.959,0.64-8.001,0.768-12.042c0.004-2.022,0.076-4.044,0.032-6.058c-0.027-1.005-0.054-2.011-0.081-3.013l-0.042-1.5
					l-0.101-1.492c-0.141-1.984-0.229-3.959-0.475-5.896c-0.21-1.939-0.394-3.859-0.712-5.729c-0.284-1.875-0.551-3.721-0.915-5.509
					c-0.356-1.789-0.617-3.561-1.055-5.245c-0.409-1.69-0.762-3.348-1.188-4.928c-0.45-1.575-0.886-3.098-1.304-4.558
					c-0.406-1.465-0.938-2.824-1.354-4.146c-0.443-1.313-0.811-2.579-1.282-3.722c-0.442-1.156-0.858-2.236-1.241-3.235
					c-0.383-1.001-0.727-1.923-1.104-2.728c-1.418-3.263-2.229-5.128-2.229-5.128s0.916,1.817,2.52,4.998
					c0.415,0.789,0.803,1.697,1.231,2.682c0.429,0.984,0.895,2.051,1.392,3.189c0.524,1.127,0.95,2.381,1.458,3.679
					c0.477,1.31,1.034,2.67,1.488,4.13c0.462,1.46,0.943,2.981,1.44,4.555c0.474,1.582,0.876,3.242,1.337,4.935
					c0.488,1.689,0.801,3.468,1.212,5.265c0.434,1.795,0.685,3.665,0.999,5.556c0.339,1.887,0.544,3.826,0.774,5.783
					c0.266,1.957,0.373,3.951,0.535,5.957l0.115,1.51l0.056,1.516c0.037,1.014,0.073,2.028,0.11,3.047
					c0.061,2.036,0.013,4.08,0.02,6.126c-0.165,4.086-0.407,8.171-0.887,12.167c-0.117,0.998-0.234,1.992-0.35,2.983
					c-0.146,0.986-0.292,1.966-0.436,2.942c-0.261,1.955-0.66,3.861-0.981,5.749c-0.734,3.759-1.58,7.365-2.532,10.741
					c-0.916,3.388-1.933,6.544-2.917,9.44c-1.991,5.788-4.067,10.452-5.597,13.669c-0.759,1.612-1.423,2.845-1.874,3.688
					C250.186,392.961,249.925,393.397,249.925,393.397z"/>
			</g>
			<g>
				<path style="fill:#79CCD0;" d="M249.887,271.542c-29.6,0-87.185-63.072,0.126-184.198
					c87.313,121.126,29.727,184.198,0.125,184.198H249.887z"/>
				<path style="fill:#93E3E4;" d="M249.909,271.542c-24.271,0-71.484-51.714,0.104-151.028
					c71.589,99.314,24.374,151.028,0.104,151.028H249.909z"/>
				<path style="fill:#79CCD0;" d="M249.957,271.542c-12.939,0-38.11-41.131,0.056-120.115
					c38.166,78.983,12.996,120.115,0.055,120.115H249.957z"/>
				<path style="fill:#BBEEEF;" d="M250.013,151.427c0,0,0.918,1.836,2.524,5.048c0.816,1.6,1.723,3.583,2.757,5.866
					c0.516,1.142,1.084,2.349,1.648,3.636c0.533,1.299,1.095,2.667,1.681,4.092c0.293,0.714,0.591,1.442,0.895,2.185
					c0.282,0.75,0.568,1.516,0.861,2.294c0.578,1.561,1.176,3.173,1.788,4.831c0.563,1.677,1.139,3.4,1.729,5.161
					c0.602,1.758,1.067,3.601,1.618,5.451c0.565,1.847,0.991,3.766,1.485,5.691c0.515,1.922,0.892,3.899,1.321,5.883
					c0.834,3.973,1.466,8.053,1.977,12.15c0.203,2.054,0.381,4.112,0.513,6.164c0.072,2.057,0.219,4.101,0.179,6.137
					c0.065,4.068-0.227,8.072-0.649,11.925c-0.433,3.856-1.231,7.536-2.173,10.964c-0.945,3.432-2.191,6.575-3.544,9.37
					c-1.35,2.799-2.895,5.221-4.528,7.152c-1.615,1.943-3.28,3.418-4.8,4.411c-1.525,1.002-2.925,1.396-3.862,1.596
					c-0.479,0.07-0.852,0.067-1.099,0.093c-0.247,0.022-0.376,0.015-0.376,0.015s0.128,0,0.375-0.037
					c0.245-0.04,0.615-0.06,1.082-0.157c0.922-0.251,2.249-0.737,3.702-1.773c1.442-1.04,3.005-2.555,4.5-4.525
					c1.507-1.963,2.909-4.399,4.174-7.169c1.248-2.777,2.385-5.891,3.222-9.286c0.831-3.394,1.496-7.024,1.915-10.816
					c0.379-3.794,0.633-7.738,0.533-11.749c0.021-2.005-0.145-4.024-0.233-6.051c-0.147-2.023-0.345-4.054-0.558-6.081
					c-0.468-4.05-1.057-8.091-1.848-12.032c-0.404-1.968-0.762-3.932-1.255-5.84c-0.474-1.913-0.877-3.82-1.421-5.658
					c-0.523-1.843-0.996-3.668-1.529-5.434c-0.539-1.765-1.066-3.492-1.578-5.174c-0.565-1.665-1.114-3.285-1.646-4.851
					c-0.27-0.783-0.537-1.552-0.796-2.307c-0.283-0.747-0.56-1.48-0.831-2.199c-0.541-1.438-1.058-2.816-1.551-4.126
					c-0.503-1.306-1.016-2.532-1.478-3.691c-0.928-2.318-1.744-4.34-2.488-5.975C250.827,153.312,250.013,151.427,250.013,151.427z"
					/>
			</g>
		</g>
		<g>
			<g>
				<g>
					<path style="fill:#C05C44;" d="M286.036,364.071c0,0,0.516,14.574-3.483,16.509c-3.997,1.935-9.672,3.998-9.672,8.513
						c0,4.515,5.933,10.188,5.803,15.605c-0.128,5.417-3.481,16.509,3.869,22.699c0,0-2.604,6.647,3.505,9.416
						c1.14,0.516,0.88-5.029,4.363-15.219c3.483-10.189,4.257-28.245,5.418-33.662c1.16-5.418,7.866-17.155,7.866-17.155
						L286.036,364.071z"/>
					<path style="fill:#AA4D37;" d="M287.448,388.168c2.534-1.569,5.711-2.178,9.03-2.44c2.04-5.873,7.227-14.95,7.227-14.95
						l-17.669-6.706c0,0,0.516,14.574-3.483,16.509c-3.997,1.935-9.672,3.998-9.672,8.513c0,4.515,5.933,10.188,5.803,15.605
						c-0.027,1.183-0.209,2.637-0.399,4.25C280.308,401.525,280.241,392.543,287.448,388.168z"/>
				</g>
				<g>
					<path style="fill:#B71E13;" d="M223.76,260.642c0,0-75.429-11.142-98.358,27.858c3.584,41.201,46.821,49.282,72.022,54.725
						c51.227,11.065,86.337,22.85,86.337,22.85s4.928,17.999,18.856,18.429c0,0,33.001-62.787,45.43-78.001
						c12.43-15.215,10.5-28.931-15.643-35.357c-26.144-6.43-54.215-10.286-54.215-10.286L223.76,260.642z"/>
					<path style="fill:#E23924;" d="M332.405,271.144c-21.416-5.268-44.115-8.805-51.628-9.914
						c11.32,2.726,48.541,18.421,49.668,30.417c2.329,24.827-19.803,28.032-29.965,54.063c-6.606,16.922,0.561,38.743,2.138,38.793
						c0,0,33.001-62.787,45.43-78.001C360.478,291.286,358.548,277.57,332.405,271.144z"/>
					<g>
						<g>
							<path style="opacity:0.3;fill:#961411;" d="M287.348,292.358c3.81,10.903,4.626,22.551,8.071,33.554
								c3.541,11.309,10.636,20.805,21.964,25.077c0.494,0.188,0.707-0.605,0.218-0.791c-11.764-4.438-18.458-14.522-21.903-26.189
								c-3.096-10.49-3.94-21.515-7.559-31.869C287.966,291.644,287.173,291.857,287.348,292.358L287.348,292.358z"/>
						</g>
						<g>
							<path style="opacity:0.3;fill:#961411;" d="M287.25,292.836c10.297,2.398,13.107,12.398,18.105,20.314
								c2.449,3.878,5.459,7.484,9.153,10.229c3.976,2.951,8.32,3.181,13.071,2.468c0.522-0.078,0.299-0.869-0.218-0.791
								c-2.912,0.438-5.789,0.601-8.64-0.283c-2.499-0.776-4.725-2.697-6.585-4.46c-3.547-3.356-6.309-7.573-8.555-11.884
								c-3.739-7.172-7.586-14.396-16.115-16.384C286.954,291.925,286.736,292.716,287.25,292.836L287.25,292.836z"/>
						</g>
						<g>
							<path style="opacity:0.3;fill:#961411;" d="M287.442,293.603c10.615,1.976,21.036,5.113,31.747,6.551
								c10.038,1.347,19.921,0.053,29.502-3.096c0.5-0.163,0.285-0.956-0.218-0.791c-9.567,3.146-19.271,4.31-29.284,3.067
								c-10.637-1.319-21.001-4.563-31.529-6.522C287.145,292.716,286.924,293.507,287.442,293.603L287.442,293.603z"/>
						</g>
						<g>
							<path style="opacity:0.3;fill:#961411;" d="M286.483,292.644c9.957,2.852,18.049,8.506,26.122,14.777
								c6.623,5.144,13.591,9.215,22.159,9.612c0.528,0.023,0.525-0.796,0-0.82c-9.538-0.441-16.852-5.632-24.09-11.34
								c-7.234-5.707-15.061-10.467-23.974-13.02C286.191,291.707,285.976,292.498,286.483,292.644L286.483,292.644z"/>
						</g>
						<g>
							<path style="opacity:0.3;fill:#961411;" d="M339.563,276.868c-18.192,2.102-37.064,4.04-52.603,14.643
								c-0.434,0.296-0.023,1.005,0.413,0.707c15.423-10.523,34.135-12.444,52.189-14.53
								C340.081,277.628,340.087,276.807,339.563,276.868L339.563,276.868z"/>
						</g>
						<g>
							<path style="opacity:0.3;fill:#961411;" d="M340.522,284.737c-16.994,0.602-33.744,3.501-50.2,7.69
								c-0.513,0.132-0.295,0.922,0.218,0.791c16.386-4.172,33.06-7.063,49.982-7.662
								C341.05,285.538,341.051,284.718,340.522,284.737L340.522,284.737z"/>
						</g>
						<g>
							<path style="opacity:0.3;fill:#961411;" d="M315.271,270.549c-9.385,1.902-18.591,4.64-27.261,8.739
								c-6.563,3.105-13.254,7.355-16.017,14.387c-0.194,0.491,0.599,0.703,0.791,0.218c2.873-7.317,10.205-11.389,16.983-14.524
								c8.167-3.779,16.919-6.246,25.721-8.028C316.008,271.236,315.788,270.445,315.271,270.549L315.271,270.549z"/>
						</g>
						<g>
							<path style="opacity:0.3;fill:#961411;" d="M294.83,270.591c-9.797,5.221-19.184,11.975-24.138,22.218
								c-0.229,0.474,0.478,0.891,0.708,0.413c4.897-10.128,14.159-16.762,23.843-21.923
								C295.709,271.05,295.296,270.343,294.83,270.591L294.83,270.591z"/>
						</g>
						<g>
							<path style="opacity:0.3;fill:#961411;" d="M290.239,265.929c-11.802,1.326-25.305,9.35-26.896,22.097
								c-0.065,0.523,0.754,0.518,0.82,0c1.528-12.251,14.769-20.007,26.076-21.276C290.758,266.69,290.764,265.87,290.239,265.929
								L290.239,265.929z"/>
						</g>
						<g>
							<path style="opacity:0.3;fill:#961411;" d="M207.793,288.613c16.589,2.958,27.677,16.05,34.143,30.867
								c3.327,7.625,5.792,15.651,10.29,22.714c1.96,3.077,4.402,5.964,7.395,8.075c3.551,2.504,8.071,3.344,12.275,3.981
								c0.517,0.078,0.739-0.711,0.218-0.791c-4.45-0.674-8.864-1.631-12.605-4.27c-3.484-2.459-6.046-6.325-8.116-9.977
								c-4.101-7.229-6.425-15.299-9.948-22.801c-6.551-13.944-17.801-25.802-33.434-28.591
								C207.495,287.732,207.274,288.521,207.793,288.613L207.793,288.613z"/>
						</g>
						<g>
							<path style="opacity:0.3;fill:#961411;" d="M266.277,292.455c5.611,8.219,6.499,18.23,6.986,27.895
								c0.263,5.221,0.131,10.396,0.188,15.616c0.058,5.23,1.393,10.167,2.955,15.12c0.159,0.501,0.951,0.286,0.791-0.218
								c-1.719-5.449-2.94-10.725-2.935-16.473c0.007-5.374,0.01-10.684-0.286-16.055c-0.504-9.146-1.707-18.559-6.992-26.299
								C266.689,291.608,265.978,292.017,266.277,292.455L266.277,292.455z"/>
						</g>
						<g>
							<path style="opacity:0.3;fill:#961411;" d="M274.298,297.539c3.422,10.654,4.852,22.786,2.109,33.752
								c-0.128,0.515,0.663,0.73,0.791,0.218c2.776-11.103,1.357-23.395-2.109-34.188
								C274.927,296.82,274.136,297.035,274.298,297.539L274.298,297.539z"/>
						</g>
						<g>
							<path style="opacity:0.3;fill:#961411;" d="M215.004,287.477c20.744,0.965,30.493,23.092,38.031,39.333
								c0.221,0.478,0.929,0.061,0.708-0.413c-7.684-16.555-17.634-38.759-38.739-39.739
								C214.476,286.631,214.478,287.451,215.004,287.477L215.004,287.477z"/>
						</g>
						<g>
							<path style="opacity:0.3;fill:#961411;" d="M182.076,292.452c11.417,2.915,18.15,13.859,24.905,22.618
								c6.585,8.539,14.085,15.909,24.419,19.605c0.5,0.178,0.711-0.615,0.218-0.791c-11.443-4.092-19.135-12.81-26.24-22.268
								c-6.103-8.123-12.715-17.309-23.084-19.956C181.782,291.53,181.564,292.32,182.076,292.452L182.076,292.452z"/>
						</g>
						<g>
							<path style="opacity:0.3;fill:#961411;" d="M241.587,282.17c-4.504-4.029-9.303-7.703-14.717-10.428
								c-5.44-2.737-11.382-4.18-17.432-4.662c-0.527-0.042-0.523,0.778,0,0.819c12.346,0.985,22.478,6.716,31.569,14.85
								C241.4,283.102,241.982,282.523,241.587,282.17L241.587,282.17z"/>
						</g>
						<g>
							<path style="opacity:0.3;fill:#961411;" d="M222.764,264.047c4.599,1.453,8.499,4.002,11.945,7.348
								c1.493,1.448,2.788,3.072,4.198,4.596c1.755,1.897,3.605,3.706,4.49,6.195c0.176,0.495,0.968,0.282,0.79-0.218
								c-0.724-2.036-2.007-3.648-3.451-5.227c-1.809-1.979-3.552-4.031-5.448-5.926c-3.469-3.473-7.624-6.079-12.307-7.56
								C222.477,263.098,222.262,263.888,222.764,264.047L222.764,264.047z"/>
						</g>
						<g>
							<path style="opacity:0.3;fill:#961411;" d="M188.71,271.547c15.696,0.025,32.898,1.799,45.581,11.971
								c0.408,0.326,0.992-0.25,0.58-0.579c-12.87-10.322-30.219-12.186-46.16-12.212
								C188.182,270.726,188.182,271.545,188.71,271.547L188.71,271.547z"/>
						</g>
						<g>
							<path style="opacity:0.3;fill:#961411;" d="M195.812,275.768c12.106,0.063,23.77,3.146,34.723,8.198
								c0.477,0.22,0.894-0.486,0.414-0.708c-11.083-5.112-22.886-8.247-35.137-8.31
								C195.283,274.946,195.283,275.767,195.812,275.768L195.812,275.768z"/>
						</g>
						<g>
							<path style="opacity:0.3;fill:#961411;" d="M156.96,282.473c17.911-2.511,37.164-3.62,53.999,4.18
								c0.476,0.221,0.893-0.485,0.414-0.708c-17.062-7.905-36.476-6.807-54.63-4.263
								C156.22,281.755,156.443,282.544,156.96,282.473L156.96,282.473z"/>
						</g>
						<path style="opacity:0.3;fill:#961411;" d="M271.408,264.866c-6.45,3.18-13.643,8.564-14.184,15.887
							c-0.823-4.545,0.996-9.056,4.12-12.759c0.34-0.401-0.238-0.984-0.579-0.579c-4.06,4.809-5.992,10.876-3.316,16.724
							c0.084,0.42,0.184,0.842,0.313,1.272c0.152,0.505,0.942,0.29,0.791-0.218c-0.029-0.096-0.05-0.19-0.077-0.286
							c0.086-0.115,0.122-0.27,0.035-0.433c-0.101-0.191-0.183-0.384-0.273-0.576c-1.689-8.67,6.534-14.85,13.583-18.324
							C272.295,265.34,271.88,264.633,271.408,264.866z"/>
					</g>
					<path style="opacity:0.3;fill:#961411;" d="M251.404,281.214c0,0-102.038,9.115-104.149,11.609
						C145.144,295.319,176.297,297.818,251.404,281.214z"/>
					<path style="opacity:0.3;fill:#961411;" d="M283.762,366.073c0,0-6.285-22.197,0-40.814
						c6.285-18.618,7.192-29.749,4.532-32.627c-2.662-2.88-29.634,6.326-29.634,6.326s1.83,1.734,0.87,13.633
						C258.571,324.491,262.303,352.552,283.762,366.073z"/>
				</g>
				<g>
					<path style="fill:#C05C44;" d="M251.404,281.214c0,0,4.301-5.922,8.144-5.57c2.356,0.214,7.929,10.07,13.07,10.714
						c5.144,0.642,14.571,0.429,17.358,4.929c0,0,6.214,0.234,5.357,4.286c-0.27,1.275-5.706-1.495-10.877-1.036
						c-5.17,0.459-15.454,6.664-25.796,4.423C258.66,298.959,259.258,290.013,251.404,281.214z"/>
					<path style="fill:#AA4D37;" d="M268.869,293.364c-4.099-0.819-6.283-3.006-9.016-6.011c-2.306-2.306-4.713-3.814-7.397-4.89
						c6.74,8.376,6.203,16.495,6.203,16.495c10.342,2.241,20.626-3.964,25.796-4.423c3.223-0.286,6.548,0.682,8.662,1.143
						c-0.975-0.539-2.022-0.968-3.211-1.223C283.076,293.091,275.7,294.456,268.869,293.364z"/>
				</g>
			</g>
			<g>
				<path style="fill:#3F2117;" d="M258.361,75.651c0,0,9.876-4.063,15.662,4.888c5.787,8.951,0.413,31.271,1.239,36.369
					c0.828,5.098,14.058,6.476,16.335,22.871c2.276,16.396-13.726,36.373-31.353,43.814c-17.625,7.441-54.973,31.688-65.996,28.382
					c-11.021-3.307-16.671-14.191-7.715-25.352c0,0-25.234-30.036,5.501-38.716c0,0-12.39-24.249,12.135-29.897
					c0,0-6.637-25.293,9.369-42.161C231.45,56.974,254.493,61.046,258.361,75.651z"/>
				<g>
					<path style="fill:#662C2A;" d="M252.691,74.471c-1.478,2.851-2.991,5.673-4.849,8.299c-2.165,3.061-4.955,5.491-7.973,7.68
						c-5.695,4.132-12.26,6.869-19.106,8.394c0.005-0.015,0.007-0.03,0.011-0.045c0.049-0.176-0.017-0.313-0.125-0.401
						c4.121-13.045,14.861-23.652,28.089-27.209c0.51-0.137,0.293-0.928-0.218-0.79c-13.934,3.747-25.19,15.16-29.065,29.065
						c-0.06,0.215,0.048,0.372,0.2,0.451c-1.591,7.188,0.176,13.734,4.322,19.901c2.075,3.087,4.378,5.997,5.943,9.395
						c1.871,4.063,1.579,8.628,0.347,12.821c-1.188,4.043-3.278,7.398-6.779,9.776c-2.702,1.835-5.775,3.043-8.238,5.229
						c-4.453,3.951-4.123,10.035-3.211,15.389c0.089,0.52,0.878,0.299,0.79-0.218c-0.523-3.079-0.888-6.216-0.176-9.294
						c0.824-3.563,3.524-5.905,6.561-7.659c2.606-1.505,5.278-2.86,7.47-4.961c2.365-2.265,3.663-5.623,4.567-8.701
						c0.914-3.112,1.073-6.405,0.456-9.583c-0.67-3.455-2.787-6.544-4.759-9.376c-2.308-3.313-4.579-6.502-5.999-10.319
						c-1.518-4.083-1.414-8.412-0.406-12.577c7.118-1.529,13.783-4.377,19.739-8.579c6.045-4.266,9.756-9.793,13.114-16.273
						C253.642,74.416,252.935,74.001,252.691,74.471z"/>
					<path style="fill:#662C2A;" d="M224.255,136.214c-1.068-4.653-4.93-8.381-7.576-12.186c-2.954-4.246-5.416-8.818-6.437-13.928
						c-2.135-10.686,3.118-21.629,10.501-29.063c5.887-5.928,13.306-10.161,20.679-13.952c0.47-0.242,0.055-0.949-0.414-0.707
						c-8.471,4.356-16.85,9.333-23.179,16.584c-6.078,6.964-9.982,16.849-8.572,26.168c0.729,4.821,2.753,9.158,5.34,13.251
						c2.745,4.342,6.806,8.187,8.573,13.065c4.393,12.125-14.157,13.327-21.198,17.077c-9.446,5.031-12.7,16.72-9.531,26.434
						c0.163,0.5,0.955,0.286,0.79-0.218c-1.841-5.645-1.693-11.482,0.973-16.839c2.723-5.473,7.454-8.838,13.12-10.738
						C214.574,148.732,226.624,146.529,224.255,136.214z"/>
					<path style="fill:#662C2A;" d="M202.695,150.952c0.453,0.275,0.865-0.434,0.414-0.707c-6.297-3.816-9.297-10.554-7.327-17.765
						c1.718-6.296,8.087-9.299,13.938-10.619c0.516-0.116,0.297-0.906-0.218-0.79c-6.335,1.429-12.445,4.624-14.511,11.191
						C192.646,139.713,196.274,147.061,202.695,150.952z"/>
					<path style="fill:#662C2A;" d="M215.791,126.176c-9,1.198-13.716,14.606-8.235,21.534c0.328,0.414,0.903-0.169,0.58-0.58
						c-5.007-6.329-0.597-19.037,7.656-20.134C216.306,126.927,216.313,126.107,215.791,126.176z"/>
					<path style="fill:#662C2A;" d="M216.023,146.538c0.016-5.032,0.461-10.124,4.47-13.659c0.398-0.35-0.185-0.928-0.58-0.579
						c-4.167,3.674-4.693,8.99-4.71,14.238C215.202,147.066,216.022,147.066,216.023,146.538z"/>
					<path style="fill:#662C2A;" d="M188.984,182.378c-2.742-2.117-5.153-4.544-6.4-7.838c-1.174-3.101-1.008-6.708-0.176-9.866
						c1.651-6.261,7.327-9.832,13.188-11.563c0.506-0.149,0.29-0.94-0.218-0.79c-6.297,1.859-11.81,5.595-13.76,12.135
						c-1.037,3.479-0.914,7.424,0.369,10.811c1.24,3.274,3.878,5.729,6.583,7.817C188.988,183.409,189.395,182.696,188.984,182.378z
						"/>
					<path style="fill:#662C2A;" d="M192.983,187.322c-3.839,2.013-5.436,6.348-5.917,10.442c-0.565,4.8,1.167,8.446,4.775,11.565
						c0.397,0.344,0.98-0.233,0.579-0.58c-3.26-2.818-5.023-6.075-4.597-10.463c0.385-3.969,1.841-8.3,5.573-10.257
						C193.865,187.784,193.451,187.077,192.983,187.322z"/>
					<path style="fill:#662C2A;" d="M271.907,93.923c0.461,0.257,0.876-0.451,0.413-0.707c-5.375-2.985-9.08-8.263-10.405-14.233
						c-0.113-0.516-0.904-0.297-0.791,0.218C262.493,85.366,266.359,90.842,271.907,93.923z"/>
					<path style="fill:#662C2A;" d="M271.674,158.265c2.374-3.547,1.841-7.769,0.237-11.481c-1.942-4.494-5.397-8.021-7.044-12.696
						c-1.79-5.078-1.066-10.4,1.067-15.239c0.212-0.479-0.494-0.896-0.707-0.414c-3.36,7.624-2.519,15.066,1.895,22.055
						c2.558,4.05,5.601,7.882,5.359,12.951c-0.24,5.068-5.139,9.161-9.659,10.535c-0.505,0.153-0.289,0.944,0.217,0.79
						C266.635,163.673,269.593,161.378,271.674,158.265z"/>
					<path style="fill:#662C2A;" d="M283.646,131.097c-2.379-4.832-6.797-8.494-12.341-8.449c0.006-0.214,0.013-0.428,0.025-0.642
						c0.298-5.493,1.254-10.964,1.853-16.429c0.564-5.131,1.052-10.398-0.255-15.45c-1.223-4.74-3.964-8.979-6.642-13.008
						c-0.29-0.438-1.001-0.028-0.708,0.414c2.552,3.84,4.987,7.754,6.38,12.182c1.528,4.858,0.982,10.104,0.486,15.085
						c-0.508,5.115-1.213,10.213-1.775,15.322c-0.401,3.656-0.423,7.586,1.063,11.024c1.607,3.719,4.513,6.159,7.228,9.044
						c3.348,3.559,5.31,7.634,4.586,12.595c-1.271,8.734-7.666,14.369-15.603,17.37c-0.49,0.185-0.279,0.977,0.217,0.79
						c7.158-2.706,13.314-7.447,15.573-15.018c0.7-2.342,0.971-4.742,0.671-7.085c0.12-0.033,0.23-0.11,0.286-0.254
						C286.95,142.744,286.398,136.684,283.646,131.097z M284.183,147.584c-0.216-0.984-0.531-1.955-0.973-2.902
						c-1.784-3.833-5.275-6.401-8.005-9.491c-2.95-3.342-3.934-7.435-3.915-11.724c5.558-0.051,9.532,3.745,11.87,8.491
						C285.595,136.906,285.947,142.423,284.183,147.584z"/>
				</g>
				<path style="fill:#662C2A;" d="M291.598,139.779c-2.277-16.396-15.507-17.773-16.335-22.871
					c-0.826-5.098,4.548-27.418-1.239-36.369c-5.786-8.951-15.662-4.888-15.662-4.888s11.649-0.729,13.363,13.357
					c1.717,14.087-0.878,26.779-0.435,34.458c0.443,7.679,9.571,7.887,12.142,20.069c0.938,4.449,2.15,10.843,2.17,18.279
					C290.132,154.672,292.586,146.89,291.598,139.779z"/>
			</g>
			<g>
				<g>
					<path style="fill:#AA4D37;" d="M287.323,217.59c0,0,6.943,31.283,23.353,33.778c0,0,6.046-13.743,0.864-24.816
						c-5.182-11.073-11.061-26.235-11.061-26.235L287.323,217.59z"/>
					<path style="opacity:0.5;fill:#AA4D37;" d="M306.545,215.244c-3.357-7.946-6.064-14.926-6.064-14.926l-13.157,17.273
						c0,0,1.737,7.827,5.528,15.963c1.375-2.721,3.061-5.302,4.703-7.6C299.863,222.402,303.768,218.974,306.545,215.244z"/>
				</g>
				<g>
					<path style="fill:#AA4D37;" d="M188.314,213.944c0,0-8.624,25.525-11.312,33.97c-2.687,8.446,7.869,17.465,14.394,9.021
						c6.526-8.444,14.546-28.597,16.102-37.617L188.314,213.944z"/>
					<path style="opacity:0.5;fill:#AA4D37;" d="M205.383,227.373c1-3.111,1.743-5.902,2.114-8.055l-19.184-5.374
						c0,0-1.314,3.888-3.073,9.124C191.416,226.081,198.478,227.631,205.383,227.373z"/>
					<path style="opacity:0.5;fill:#AA4D37;" d="M197.188,234.608c-3.194-0.156-6.545-0.156-9.506-1.48
						c-1.762-0.73-3.331-1.797-4.819-2.969c-0.378,1.13-0.758,2.269-1.137,3.403c3.871,2.682,7.97,4.789,12.813,5.41
						c2.156,0.253,4.311,0.228,6.466,0.093c0.639-1.507,1.252-3.021,1.83-4.517C200.972,234.663,199.107,234.683,197.188,234.608z"
						/>
					<g>
						<g>
							<path style="fill:#CC921D;" d="M199.254,237.331c-11.794,0-18.439-5.762-18.753-6.04c-1.185-1.052-1.292-2.865-0.241-4.05
								c1.048-1.18,2.853-1.292,4.038-0.251c0.315,0.272,7.112,5.976,19.369,4.295c1.574-0.217,3.017,0.882,3.232,2.452
								c0.216,1.569-0.882,3.017-2.452,3.232C202.621,237.221,200.888,237.331,199.254,237.331z"/>
						</g>
						<path style="fill:#CEA224;" d="M192.98,233.283c3.818,0.935,7.948,1.48,11.843,1.792c0.616,0.059,1.249,0.096,1.879,0.132
							c0.185-0.452,0.268-0.952,0.197-1.47c-0.215-1.57-1.658-2.669-3.232-2.452c-10.876,1.491-17.44-2.825-19.004-4.007
							c0.196,0.929,0.608,1.802,1.383,2.577C187.838,231.725,190.565,232.66,192.98,233.283z"/>
					</g>
				</g>
				<g>
					<g>
						<path style="fill:#C05C44;" d="M237.267,126.811c0,0,1.919,15.929,0,20.536c-1.919,4.606-28.222,7.869-28.222,7.869
							s22.588,36.465,42.102,35.506c19.514-0.959,32.285-36.426,32.285-36.426s-22.751-2.342-25.629-6.949
							c-2.88-4.606-4.224-20.536-4.224-20.536H237.267z"/>
						<path style="fill:#AA4D37;" d="M241.173,151.227c1.844-3.381,3.996-6.864,6.659-9.733c2.035-2.093,4.404-3.784,6.913-5.291
							c-0.786-4.901-1.166-9.392-1.166-9.392h-16.313c0,0,1.919,15.929,0,20.536c-1.919,4.606-28.222,7.869-28.222,7.869
							s5.002,8.073,12.331,16.522c1.566-0.971,3.12-1.968,4.634-2.992C232.771,164.136,237.279,158.398,241.173,151.227z"/>
						<path style="fill:#AA4D37;" d="M241.008,145.29c-1.02-0.282-1.454,1.299-0.436,1.581c2.85,0.788,5.805,1.491,8.775,1.003
							c2.643-0.435,5.204-1.122,7.639-2.223c-0.186-0.477-0.363-0.999-0.533-1.555c-2.177,1.015-4.473,1.635-6.831,2.081
							C246.688,146.731,243.831,146.071,241.008,145.29z"/>
					</g>
					<g>
						<path style="fill:#CEA224;" d="M237.272,141.529c0,0,11.914,3.269,19.241,0l0.637,3.132c0,0-7.616,5.311-19.878,0V141.529z"/>
						<path style="fill:#CC921D;" d="M237.272,141.529v3.132c3.304,1.431,6.268,2.086,8.838,2.287
							c1.164-1.268,2.229-2.621,3.181-3.985C243.218,143.158,237.272,141.529,237.272,141.529z"/>
					</g>
				</g>
				<g>
					<path style="fill:#FFC6C6;" d="M185.831,217.207c0,0,8.787,8.061,21.666,6.142c0,0,1.939-14.394,2.899-14.97
						c0.96-0.576,2.891,7.633,2.891,7.633l70.144-9.552l4.504,13.539c0,0,8.79-1.064,17.542-7.301c0,0-6.239-52.875-11.604-56.521
						c-5.364-3.646-16.891-2.725-16.891-2.725s-10.668,26.667-27.435,26.523c-20.419-0.175-36.261-25.355-36.261-25.355
						s-9.799-1.706-13.063,8.466C196.962,173.256,185.831,217.207,185.831,217.207z"/>
					<path style="opacity:0.4;fill:#B77173;" d="M293.874,156.175c-5.364-3.646-16.891-2.725-16.891-2.725
						s-10.668,26.667-27.435,26.523c-3.26-0.028-6.401-0.698-9.381-1.796c-8.562,5.363-16.651,11.615-23.891,18.539
						c-2.971,2.971-5.43,5.942-6.045,10.143c-0.117,0.816-0.202,1.638-0.275,2.462c0.16-0.521,0.31-0.865,0.44-0.943
						c0.96-0.576,2.891,7.633,2.891,7.633l70.144-9.552l4.504,13.539c0,0,8.79-1.064,17.542-7.301
						C305.478,212.696,299.238,159.822,293.874,156.175z"/>
					<path style="fill:#CEA224;" d="M240.337,188.419c14.777,3.455,28.98-5.565,36.658-17.657
						c3.453-5.255,5.612-11.214,7.492-17.234c-4.025-0.354-7.504-0.077-7.504-0.077s-10.668,26.667-27.435,26.523
						c-20.419-0.175-36.261-25.355-36.261-25.355s-1.448-0.25-3.415,0.017C216.306,168.566,224.4,184.7,240.337,188.419z"/>
					<path style="fill:#CC921D;" d="M296.188,204.156c-3.646,1.823-7.633,3.914-11.675,5.555l3.423,10.287
						c0,0,8.79-1.064,17.542-7.301c0,0-0.612-5.185-1.617-12.418C301.359,201.672,298.804,202.96,296.188,204.156z"/>
					<g>
						<path style="fill:#CC921D;" d="M232.182,176.841c7.236,4.548,16.42,6.422,24.582,3.426
							c11.016-4.042,18.022-15.484,22.125-25.898c0.06-0.154,0.12-0.308,0.18-0.463c0.191-0.493-0.603-0.705-0.791-0.217
							c-3.877,9.999-10.19,20.389-20.196,25.143c-8.092,3.844-17.502,1.977-24.978-2.391c-8.494-4.963-14.596-13.26-20.03-21.244
							c-0.295-0.435-1.006-0.024-0.707,0.414C217.827,163.635,223.851,171.605,232.182,176.841z"/>
						<path style="fill:#CC921D;" d="M282.271,153.857c-3.434,16.038-15.435,29.674-32.044,32.349
							c-16.792,2.704-28.811-11.146-35.798-25.132c7.565,11.891,18.01,23.376,32.813,23.862
							c16.248,0.533,30.278-16.015,33.292-30.861c0.105-0.516-0.684-0.736-0.791-0.218c-2.973,14.649-16.581,30.571-32.501,30.259
							c-16.897-0.331-28.164-16.155-35.666-29.4c-0.118-0.207-0.323-0.231-0.493-0.16c-0.012,0.003-0.022,0.009-0.034,0.013
							c-0.009,0.004-0.018,0.007-0.026,0.012c-0.147,0.061-0.245,0.194-0.209,0.375c0.001,0.004,0.003,0.008,0.003,0.012
							c0.005,0.021,0.002,0.04,0.011,0.063c6.104,15.245,18.231,33.402,36.8,32.28c15.35-0.928,28.198-12.417,33.48-26.395
							c0.84-2.223,1.459-4.523,1.956-6.843C283.173,153.559,282.384,153.34,282.271,153.857z"/>
					</g>
					<g>
						<path style="fill:#CEA224;" d="M185.831,217.207c0,0,8.787,8.061,21.666,6.142c0,0,0.908-6.739,1.789-11.18
							c-7.232-1.83-13.933-3.292-20.442-6.757C187.071,212.311,185.831,217.207,185.831,217.207z"/>
						<g>
							<path style="fill:#CC921D;" d="M198.494,210.818c-3.484-0.932-6.777-2.457-9.989-4.089c-0.07,0.274-0.138,0.54-0.206,0.806
								c3.006,1.507,6.064,2.88,9.29,3.876c3.763,1.161,7.626,1.365,11.478,1.914c0.05-0.273,0.102-0.54,0.152-0.801
								C205.629,212.007,202.029,211.764,198.494,210.818z"/>
							<path style="fill:#CC921D;" d="M187.585,210.319c6.615,3.149,13.757,4.718,20.996,5.798c0.044-0.268,0.089-0.534,0.134-0.801
								c-7.214-1.073-14.338-2.64-20.922-5.807C187.722,209.785,187.653,210.056,187.585,210.319z"/>
							<path style="fill:#CC921D;" d="M186.86,213.159c6.803,2.892,13.973,4.649,21.222,6.125c0.04-0.264,0.081-0.533,0.124-0.809
								c-7.223-1.47-14.37-3.215-21.143-6.113C186.994,212.637,186.925,212.904,186.86,213.159z"/>
							<path style="fill:#CC921D;" d="M186.283,215.425c-0.078,0.304-0.146,0.572-0.204,0.802c3.046,1.419,6.339,2.302,9.602,3.101
								c3.936,0.963,7.944,2.201,12.003,2.684c0.035-0.246,0.074-0.518,0.117-0.815c-3.81-0.462-7.559-1.623-11.272-2.508
								C193.051,217.861,189.519,216.96,186.283,215.425z"/>
						</g>
						<path style="fill:#CC921D;" d="M197.527,220.793c-1.159,0.47-2.419,0.794-3.724,1.033c3.616,1.375,8.292,2.327,13.694,1.522
							c0,0,0.908-6.739,1.789-11.18c-0.43-0.109-0.857-0.216-1.284-0.323C205.403,215.688,201.805,219.129,197.527,220.793z"/>
					</g>
				</g>
				<g>
					<path style="fill:#B71E13;" d="M283.432,153.346c0,0-70.329,41.452-73.035,55.032c0,0,1.379,8.829,1.266,10.172
						c-0.114,1.344-2.63,7.869,2.946,10.94c0,0-0.756,5.566,1.931,6.334c0,0,0.384,10.939,3.07,14.393
						c2.687,3.455,39.19,13.663,57.609,1.151c1.695-1.151,8.987-27.635,11.291-42.605c0,0,13.786-28.597,14.091-31.284
						c0.304-2.687-2.12-8.829-2.12-8.829s1.992-10.172,0-10.748c-1.991-0.576-3.719-0.576-3.719-0.576
						S293.132,149.366,283.432,153.346z"/>
					<g>
						<path style="opacity:0.3;fill:#961411;" d="M288.02,206.828c-1.125,1.546-2.196,3.125-3.241,4.721
							c-4.886,6.457-10.28,12.508-15.358,18.815c-6.131,7.614-11.792,15.583-18.197,22.979c-0.417,0.48,0.28,1.183,0.7,0.699
							c6.605-7.625,12.448-15.839,18.77-23.689c3.173-3.941,6.469-7.779,9.682-11.681c-6.922,11.823-12.789,24.301-21.267,35.133
							c-0.388,0.498,0.308,1.204,0.701,0.701c10.261-13.112,16.736-28.6,25.824-42.46c0.261-0.344,0.525-0.685,0.783-1.031
							c-3.762,14.397-11.301,27.388-16.768,41.155c-0.236,0.594,0.723,0.849,0.956,0.263c5.659-14.25,13.548-27.661,17.161-42.672
							c0.045-0.188-0.017-0.337-0.12-0.444c0.253-0.354,0.516-0.703,0.767-1.061c0.091-0.131,0.107-0.261,0.072-0.373
							c0.133-0.184,0.258-0.372,0.391-0.555C289.251,206.811,288.392,206.317,288.02,206.828z"/>
						<path style="opacity:0.3;fill:#961411;" d="M275.052,211.563c-11.151,14.161-25.034,25.926-34.727,41.31
							c-0.445,0.706,0.649,1.357,1.091,0.654c9.634-15.286,23.447-26.97,34.531-41.043
							C276.454,211.838,275.565,210.911,275.052,211.563z"/>
						<path style="opacity:0.3;fill:#961411;" d="M266.122,217.002c0.511-0.549-0.28-1.398-0.789-0.85
							c-5.95,6.391-11.922,12.756-18.297,18.662c-5.896,5.461-10.916,12.155-17.715,16.399c-0.622,0.388-0.06,1.427,0.565,1.036
							c6.342-3.96,11.07-10.019,16.47-15.228C253.112,230.507,259.699,223.902,266.122,217.002z"/>
						<path style="opacity:0.3;fill:#961411;" d="M263.979,216.005c-13.512,11.652-26.955,23.473-41.878,33.318
							c-0.531,0.35-0.035,1.207,0.501,0.855c14.992-9.893,28.501-21.767,42.076-33.474
							C265.163,216.287,264.459,215.59,263.979,216.005z"/>
					</g>
					<path style="opacity:0.3;fill:#961411;" d="M300.48,168.65c0,0,1.992-10.172,0-10.748c-1.991-0.576-3.719-0.576-3.719-0.576
						s-3.63-7.961-13.33-3.98c0,0-70.329,41.452-73.035,55.032c0,0,1.379,8.829,1.266,10.172c-0.114,1.344-2.63,7.869,2.946,10.94
						c0,0-0.756,5.566,1.931,6.334c0,0,0.384,10.939,3.07,14.393c0.321,0.413,1.128,0.922,2.326,1.478
						c8.821-10.856,21.471-18.939,33.288-26.17c10.567-6.426,21.8-12.513,33.436-17.075c1.492-3.102,13.653-28.448,13.94-30.97
						C302.904,174.792,300.48,168.65,300.48,168.65z"/>
					<path style="fill:#E4341C;" d="M300.48,168.65c0,0,1.992-10.172,0-10.748c-1.991-0.576-3.719-0.576-3.719-0.576
						s-3.63-7.961-13.33-3.98c0,0-70.329,41.452-73.035,55.032c0,0,1.379,8.829,1.266,10.172c-0.114,1.344-2.63,7.869,2.946,10.94
						c0,0-0.756,5.566,1.931,6.334l71.971-27.061c0,0,13.786-28.597,14.091-31.284C302.904,174.792,300.48,168.65,300.48,168.65z"/>
					<g>
						<path style="fill:#B71E13;" d="M300.119,167.976c-12.439,11.945-26.584,22.08-40.739,31.868
							c-14.117,9.761-28.575,19.009-42.856,28.524c-0.438,0.291-0.028,1.002,0.414,0.708c14.469-9.641,29.111-19.02,43.413-28.91
							c14.023-9.696,28.026-19.778,40.348-31.611C301.081,168.189,300.5,167.61,300.119,167.976z"/>
						<path style="fill:#B71E13;" d="M276.798,174.798c-7.28,6.542-14.672,12.929-22.323,19.087
							c-10.657,8.575-21.531,16.873-32.276,25.335c-0.415,0.327,0.169,0.902,0.58,0.579c10.746-8.461,21.611-16.769,32.275-25.334
							c10.668-8.568,20.817-17.596,30.867-26.869c0.065-0.06,0.095-0.126,0.111-0.193c3.576-2.993,7.067-6.08,10.426-9.305
							c0.383-0.367-0.198-0.946-0.579-0.58c-12.439,11.945-26.584,22.08-40.74,31.868c-14.117,9.761-28.575,19.009-42.855,28.524
							c-0.438,0.291-0.028,1.001,0.413,0.708c14.469-9.64,29.111-19.02,43.414-28.91C263.08,184.89,270.043,179.975,276.798,174.798
							z"/>
						<path style="fill:#B71E13;" d="M217.129,210.459c5.91-3.21,10.742-7.963,16.152-11.892
							c6.225-4.521,12.618-8.839,18.882-13.311c12.755-9.104,25.922-17.598,39.241-25.849c0.448-0.278,0.037-0.987-0.413-0.708
							c-13.1,8.114-26.052,16.464-38.609,25.399c-6.3,4.482-12.587,8.972-18.952,13.362c-5.703,3.934-10.589,8.964-16.715,12.291
							C216.251,210.003,216.665,210.712,217.129,210.459z"/>
						<path style="fill:#B71E13;" d="M225.849,200.031c9.169-7.343,18.855-13.992,28.699-20.393
							c9.892-6.433,19.683-13.015,29.563-19.463c0.44-0.288,0.031-0.997-0.413-0.708c-10.096,6.589-20.102,13.311-30.211,19.884
							c-9.685,6.298-19.196,12.876-28.217,20.101C224.856,199.782,225.44,200.357,225.849,200.031z"/>
						<path style="fill:#B71E13;" d="M250.14,179.367c10.573-6.606,19.429-15.673,30.517-21.496
							c0.468-0.246,0.055-0.953-0.413-0.708c-11.089,5.822-19.943,14.889-30.517,21.496
							C249.279,178.939,249.69,179.648,250.14,179.367z"/>
						<path style="fill:#B71E13;" d="M296.363,168.68c-17.308,11.026-33.446,23.798-49.708,36.273
							c-0.413,0.317-0.005,1.029,0.414,0.708c16.261-12.475,32.4-25.248,49.707-36.273
							C297.222,169.104,296.811,168.395,296.363,168.68z"/>
						<path style="fill:#B71E13;" d="M299.052,176.357c-4.396,2.707-8.488,5.841-12.535,9.037
							c-4.628,3.653-9.316,7.14-14.144,10.525c-4.488,3.148-8.768,6.587-13.088,9.959c-4.58,3.575-9.464,6.718-14.056,10.272
							c-0.417,0.323,0.167,0.898,0.579,0.579c4.384-3.393,9.119-6.304,13.435-9.788c4.612-3.723,9.328-7.358,14.181-10.761
							c8.803-6.175,16.881-13.474,26.04-19.115C299.913,176.787,299.503,176.078,299.052,176.357z"/>
						<path style="fill:#B71E13;" d="M293.678,193.821c-13.743,6.869-27.522,13.666-41.266,20.536
							c-0.472,0.236-0.058,0.943,0.415,0.708c13.743-6.87,27.521-13.667,41.264-20.536
							C294.564,194.293,294.148,193.586,293.678,193.821z"/>
						<path style="fill:#B71E13;" d="M288.495,202.65c-10.834,4.787-22.373,7.685-33.297,12.242c-0.48,0.2-0.27,0.994,0.218,0.79
							c10.989-4.584,22.594-7.508,33.492-12.325C289.391,203.145,288.974,202.439,288.495,202.65z"/>
						<path style="fill:#B71E13;" d="M247.423,218.196c-8.6,4.253-17.876,7.077-26.102,12.091c-0.45,0.275-0.038,0.983,0.414,0.708
							c8.224-5.014,17.5-7.838,26.102-12.091C248.311,218.669,247.896,217.962,247.423,218.196z"/>
					</g>
					<path style="fill:#B71E13;" d="M247.113,212.991c-7.374,0.921-15.115,0.921-21.565-3.318
						c-3.741-2.564-6.486-6.184-8.747-10.136c-3.596,3.511-5.952,6.568-6.405,8.842c0,0,1.379,8.829,1.266,10.172
						c-0.114,1.344-2.63,7.869,2.946,10.94c0,0-0.756,5.566,1.931,6.334l71.971-27.061c0,0,0.413-0.856,1.087-2.264
						c-1.372,0.217-2.747,0.419-4.145,0.593C272.55,208.382,260.017,211.516,247.113,212.991z"/>
				</g>
			</g>
			<g>
				<path style="fill:#CEA224;" d="M219.609,250.217c0,0,0.557,4.463,1.518,10.095c0,0,34.447,12.021,57.063,0.546l-0.685-9.834
					C277.506,251.023,253.41,246.751,219.609,250.217z"/>
				<path style="fill:#CC921D;" d="M275.383,260.143c-9.189,0.896-18.379,0.784-27.343-1.345
					c-7.046-1.577-15.999-4.006-21.804-9.172c-2.164,0.165-4.372,0.36-6.626,0.591c0,0,0.557,4.463,1.518,10.095
					c0,0,34.447,12.021,57.063,0.546l-0.071-1.037C277.213,259.945,276.302,260.053,275.383,260.143z"/>
				<path style="fill:#CC921D;" d="M253.753,250.985c-9.845-0.573-19.755-0.393-29.511,1.116c-0.521,0.081-0.311,0.874,0.207,0.794
					c9.693-1.5,19.513-1.622,29.292-1.091c4.681,0.253,9.33,0.645,14.021,0.721c3.298,0.053,6.596,0.1,9.874,0.378l-0.058-0.821
					c-2.735-0.23-5.484-0.308-8.237-0.353C264.126,251.645,258.958,251.288,253.753,250.985z"/>
				<path style="fill:#CC921D;" d="M257.092,254.136c-9.672-0.461-19.411-0.268-29.076,0.268c-0.525,0.028-0.54,0.849-0.012,0.819
					c9.67-0.534,19.397-0.694,29.075-0.268c6.935,0.308,13.852,0.936,20.783,1.207l-0.056-0.817
					C270.896,255.079,263.999,254.467,257.092,254.136z"/>
				<path style="fill:#CC921D;" d="M259.021,257.038c-8.448,0.087-16.9-0.108-25.335,0.508c-0.523,0.036-0.539,0.858-0.012,0.819
					c8.434-0.616,16.888-0.439,25.336-0.508c4.292-0.035,8.583,0.01,12.875,0.124c2.021,0.053,4.078,0.256,6.135,0.417l-0.07-1.017
					c-2.009-0.146-4.041-0.163-6.053-0.221C267.607,257.036,263.313,256.993,259.021,257.038z"/>
				<path style="fill:#CC921D;" d="M252.236,260.589c-3.295,0.341-6.557,1.036-9.87,1.178c-0.526,0.022-0.541,0.843-0.012,0.82
					c3.054-0.132,6.057-0.738,9.088-1.092c3.395-0.396,6.812-0.615,10.227-0.78c5.48-0.262,10.981-0.381,16.458-0.77l-0.058-0.821
					c-5.193,0.373-10.412,0.523-15.608,0.738C259.046,260.001,255.637,260.238,252.236,260.589z"/>
			</g>
			<g>
				<g>
					<path style="fill:#C05C44;" d="M255.646,80.539c-4.21,6.928-9.703,12.328-17.446,16.253
						c-4.945,2.536-10.708,5.067-16.429,5.347c-0.222,2.845-0.145,5.846,0.313,8.99c3.236,22.19,21.726,26.352,24.153,26.352
						c2.427,0,20.917-4.162,24.154-26.352c0.456-3.133,0.533-6.125,0.313-8.962C263.608,96.922,258.8,88.972,255.646,80.539z"/>
					<path style="fill:#D8654E;" d="M270.705,102.166c-2.129-1.574-4.048-3.395-5.783-5.395c0.08,1.624,0.075,3.263-0.047,4.92
						c-0.53,6.356-2.649,12.359-5.121,18.186c-3.238,7.679-7.786,12.991-13.525,17.603c0.003,0,0.006,0.001,0.008,0.001
						c2.427,0,20.917-4.162,24.154-26.352C270.848,107.995,270.925,105.004,270.705,102.166z"/>
				</g>
				<g>
					<path style="fill:#681B0B;" d="M240.404,126.019c0,0,3.913-1.607,4.822-1.456c0.91,0.151,1.011,0.708,1.011,0.708
						s0.101-0.557,1.01-0.708c0.91-0.151,4.823,1.456,4.823,1.456s-2.194,3.498-5.833,3.498
						C242.598,129.518,240.404,126.019,240.404,126.019z"/>
					<path style="fill:#060719;" d="M268,111.001c-4.6,2.151-9.761,2.19-14.452,0.32c-0.053-0.021-0.079,0.059-0.037,0.087
						c4.422,2.979,10.954,4.704,14.72-0.109C268.361,111.129,268.201,110.906,268,111.001z"/>
					<path style="fill:#703A30;" d="M254.603,111.367c0.006,0.123,0.18,0.121,0.19,0c0.224-2.517,0.791-4.732,2.352-6.763
						c0.018-0.021-0.02-0.048-0.037-0.029C255.449,106.504,254.463,108.801,254.603,111.367z"/>
					<path style="fill:#3F2117;" d="M255.505,99.975c4.179-0.799,8.2-0.585,12.053,1.441c0.174,0.09,0.317-0.139,0.189-0.27
						c-3.005-3.073-9.072-5.412-12.565-1.672C254.948,99.723,255.224,100.029,255.505,99.975z"/>
					<path style="fill:#681B0B;" d="M246.226,98.21c2.201,0,2.201-3.414,0-3.414C244.024,94.796,244.024,98.21,246.226,98.21z"/>
					<path style="fill:#060719;" d="M239.954,111.408c0.042-0.028,0.017-0.107-0.036-0.087c-4.693,1.87-9.852,1.831-14.453-0.32
						c-0.202-0.095-0.362,0.128-0.23,0.298C228.999,116.111,235.533,114.387,239.954,111.408z"/>
					<path style="fill:#703A30;" d="M236.32,104.604c1.561,2.031,2.128,4.247,2.352,6.763c0.011,0.121,0.184,0.123,0.19,0
						c0.139-2.566-0.847-4.863-2.505-6.792C236.34,104.556,236.304,104.583,236.32,104.604z"/>
					<path style="fill:#3F2117;" d="M224.842,102.869c3.721-2.261,7.721-2.722,11.94-2.183c0.283,0.037,0.54-0.286,0.293-0.52
						c-3.717-3.517-9.628-0.808-12.437,2.445C224.518,102.75,224.677,102.969,224.842,102.869z"/>
					<path style="fill:#703A30;" d="M249.99,117.99c0.116-0.277-0.215-0.537-0.467-0.467c-0.93,0.258-1.649,0.838-2.642,0.97
						c-1.01,0.134-1.954,0.14-2.933-0.186c-0.159-0.053-0.237,0.175-0.108,0.26C245.458,119.644,249.034,120.269,249.99,117.99z"/>
					<path style="fill:#703A30;" d="M239.031,125.23c-0.054-0.026-0.099,0.048-0.047,0.081c4.403,2.829,10.172,3.287,14.494-0.021
						c0.024-0.018,0.003-0.058-0.023-0.041C248.97,128.001,243.61,127.41,239.031,125.23z"/>
					<path style="fill:#BC3E32;" d="M228.493,122.21c3.06-0.195,4.714-3.622,2.357-5.851c-0.078-0.074-0.167-0.129-0.249-0.197
						c-0.944-1.275-2.533-2.206-3.978-2.684c-1.531-0.508-2.999-0.2-3.985,0.602c0.606,2.721,1.451,5.141,2.468,7.285
						C226.255,121.939,227.49,122.273,228.493,122.21z"/>
					<path style="fill:#BC3E32;" d="M267.878,113.38c-1.506,0.318-3.291,1.385-4.313,2.813c-0.006,0.003-0.011,0.006-0.016,0.01
						c-2.23,1.821-1.46,5.53,1.54,5.967c0.637,0.093,1.278,0.065,1.911-0.052c1.287-2.533,2.339-5.46,3.018-8.85
						C269.315,113.17,268.576,113.232,267.878,113.38z"/>
				</g>
			</g>
			<g>
				<path style="fill:#955647;" d="M94.444,314.712c0,0,29.419,39.372,62.001,23.758c28.355-13.588,31.156-63.521,31.156-63.521
					s195.273-112.314,211.894-118.843c16.618-6.528,25.225-5.489,26.264-0.741c1.039,4.748-4.303,6.677-4.303,6.677
					s-1.188-6.233-5.787-5.936c-4.6,0.297-10.388,5.934-8.161,12.167c2.225,6.233,20.329,11.278,28.49-2.076
					c8.161-13.355,0.444-24.632-10.091-27.155c-10.535-2.522-28.639,0-40.954,6.974c-12.316,6.974-181.029,101.792-181.029,101.792
					L94.444,314.712z"/>
				<path style="fill:#BC785B;" d="M94.267,314.419c2.647,4.783,16.767,9.754,49.263-7.58
					c32.496-17.336,41.499-28.167,40.484-43.005c0,0,167.401-94.141,189.511-106.721c22.109-12.579,39.845-21.987,54.496-17.432
					c0,0-12.355-8.651-36.839,0.697C366.699,149.728,178.4,257.422,178.4,257.422s-16.322-5.771-47.631,13.305
					C99.459,289.803,92.042,310.398,94.267,314.419z"/>
				<path style="fill:#3F1811;" d="M136.796,291.517c-5.97,3.783-11.939,5.068-13.332,2.869c-1.394-2.198,2.316-7.047,8.286-10.83
					c5.969-3.782,11.938-5.068,13.331-2.87C146.475,282.886,142.765,287.734,136.796,291.517z"/>
				<g>
					<path style="fill:#955647;" d="M108.217,298.14c0,0,17.082-9.616,42.705-24.04c25.663-14.353,59.879-33.491,94.096-52.629
						c34.284-19.018,68.567-38.037,94.279-52.3c25.752-14.193,42.92-23.655,42.92-23.655s-17.081,9.617-42.704,24.041
						c-25.663,14.354-59.88,33.491-94.097,52.629c-34.283,19.018-68.566,38.036-94.279,52.299
						C125.385,288.677,108.217,298.14,108.217,298.14z"/>
					<path style="fill:#955647;" d="M109.588,299.446c0,0,17.119-9.639,42.797-24.098c25.718-14.387,60.007-33.571,94.297-52.755
						c34.357-19.064,68.713-38.128,94.482-52.426c25.805-14.228,43.011-23.712,43.011-23.712s-17.119,9.639-42.797,24.098
						c-25.717,14.388-60.007,33.572-94.298,52.756c-34.356,19.063-68.714,38.128-94.481,52.426
						C126.793,289.961,109.588,299.446,109.588,299.446z"/>
					<path style="fill:#955647;" d="M109.588,301.857c0,0,17.24-9.729,43.1-24.324c25.899-14.524,60.431-33.89,94.963-53.254
						c34.6-19.246,69.198-38.492,95.147-52.926c25.988-14.363,43.314-23.939,43.314-23.939s-17.239,9.73-43.1,24.324
						c-25.898,14.524-60.432,33.889-94.964,53.254c-34.599,19.245-69.198,38.491-95.147,52.924
						C126.914,292.28,109.588,301.857,109.588,301.857z"/>
					<g>
						<path style="fill:#3F1811;" d="M106.21,297.92c1.177,2.384,2.804,4.513,4.412,6.616c0.948,1.243,3.086,0.022,2.123-1.24
							c-1.608-2.103-3.236-4.232-4.412-6.616C107.632,295.257,105.511,296.504,106.21,297.92L106.21,297.92z"/>
					</g>
					<g>
						<path style="fill:#3F1811;" d="M382.31,145.547c0.781,1.011,1.86,1.914,2.928,2.807c0.629,0.527,2.049,0.009,1.409-0.526
							c-1.066-0.892-2.147-1.795-2.929-2.807C383.252,144.417,381.845,144.946,382.31,145.547L382.31,145.547z"/>
					</g>
				</g>
				<path style="opacity:0.5;fill:#3F1811;" d="M141.274,342.123c4.907-0.085,9.999-1.174,15.17-3.653
					c28.355-13.588,31.156-63.521,31.156-63.521l-3.586-11.114C184.015,263.834,190.037,313.257,141.274,342.123z"/>
				<path style="opacity:0.5;fill:#3F1811;" d="M421.02,165.246c-1.012,2.831-3.303,4.179-6,5.123
					c2.157,1.348,4.381,1.82,6.942,1.213c3.305-0.809,6.473-3.033,8.022-6.066c1.819-3.572,0.875-7.549-1.753-10.448
					c-2.831-3.1-5.864-5.999-18.803-2.244c10.146-2.596,15.522-1.148,16.329,2.54c1.039,4.748-4.303,6.677-4.303,6.677
					s-0.017-0.08-0.045-0.199C421.519,162.977,421.416,164.12,421.02,165.246z"/>
			</g>
			<g>
				<path style="fill:#C05C44;" d="M310.677,251.368c7.954-2.507,13.283-37.451,16.629-41.23c0.726-0.818,3.313-5.024,3.831-7.527
					c0.518-2.503,0.724-17.306,0.724-18.755s-3.857-5.724-4.967-6.314c-1.111-0.591-6.315-0.932-7.247-0.828
					c-0.932,0.104,1.407,1.885,3.933,3.05c2.526,1.165,3.625,4.081,3.625,4.811c0,0.73-0.415,6.165-0.415,6.165
					s-2.161-6.861-3.317-8.34c-1.155-1.479-6.723-3.105-8.275-2.636c-1.554,0.469,0.056,7.63,1.668,10.746
					c0.443,0.859-0.825,5.064,0.417,9.619c1.243,4.555,1.968,4.771,0.678,8.168c-1.553,4.091-17.136,17.768-18.301,27.11
					C298.715,242.962,305.641,250.146,310.677,251.368z"/>
				<g>
					<path style="fill:#AA4D37;" d="M314.952,179.943c1.064,1.922,2.68,3.572,3.908,5.404c1.601,2.39,2.282,4.808,2.758,7.599
						c0.052,0.303,0.561,0.304,0.611,0c0.738-4.407-3.518-10.914-7.221-13.06C314.974,179.866,314.934,179.907,314.952,179.943
						L314.952,179.943z"/>
				</g>
			</g>
			<g>
				<path style="fill:#AA4D37;" d="M147.661,256.184c0,0-11.744,4.133-14.76,5.838c-1.674,0.948-4.297,3.799-4.541,4.705
					c-0.449,1.665,3.559-1.05,7.137-2.271c2.524-0.861,9.326-2.085,9.326-2.085L147.661,256.184z"/>
				<path style="fill:#C05C44;" d="M194.295,245.316c0,0-9.165-4.136-19.545-3.893c-10.382,0.243-19.141,1.054-19.708,1.054
					c-0.568,0-9.246,15.16-11.598,17.84c-1.322,1.507-2.954,3.704-4.315,5.701c-1.059,1.553-1.955,2.983-2.417,3.87
					c-1.054,2.028-0.887,11.449-0.486,12.972c0.4,1.521,3-2.022,3.568-4.86c0,0,0.324,4.531,0.324,5.225
					c0,0.694,3.672-2.168,4.35-5.278c0.678-3.11-0.254-7.408,2.686-10.246c2.938-2.839,9.872-7.191,12.083-9.475
					c0.001-0.001,0.003-0.003,0.004-0.005c2.208-2.28,3.018-4.882,3.423-3.541c0.231,0.763,0.156,1.752-0.371,2.879
					c-0.398,0.852-1.049,1.778-2.062,2.758c-2.352,2.273-4.223,6.646-2.757,8.843c0.324,0.485,3.115-3.832,5.653-5.769
					c1.814-1.384,4.229-3.856,5.048-6.648c0.328-1.112,0.408-2.275,0.085-3.442c0,0,3.974,0.67,7.056,2.396
					c0.678,0.38,1.453,0.927,2.316,1.515c0.51,0.122,0.766,0.211,0.766,0.211s8.702-4.969,18.763-10.697
					C195.352,245.682,194.295,245.316,194.295,245.316z"/>
				<g>
					<path style="fill:#AA4D37;" d="M139.835,278.243c0.412-5.198,0.677-9.53,4.063-13.788c2.168-2.727,4.732-5.146,7.17-7.623
						c0.104-0.107-0.057-0.267-0.164-0.164c-3.149,3.049-6.403,6-8.909,9.621c-2.507,3.621-2.046,7.783-2.242,11.954
						C139.75,278.296,139.832,278.294,139.835,278.243L139.835,278.243z"/>
				</g>
				<path style="fill:#AA4D37;" d="M164.617,247.94c1.582,1.583,2.865,3.23,3.624,5.335c1.105,0.225,4.602,1.034,7.077,2.422
					c0.678,0.38,1.453,0.927,2.316,1.515c0.51,0.122,0.766,0.211,0.766,0.211s1.951-1.113,5.073-2.894
					C178.649,250.054,171.133,247.648,164.617,247.94z"/>
			</g>
			<g>
				<path style="fill:#D38489;" d="M203.933,103.054c0,0-0.955-2.684-7.821-6.38c0,0-1.248,4.444,0.029,9.73L203.933,103.054z"/>
				<path style="fill:#D38489;" d="M197.476,107.317c0,0-2.528-1.308-10.069,0.683c0,0,2.126,4.097,6.671,7.087L197.476,107.317z"/>
				<path style="fill:#D38489;" d="M197.044,116.095c0,0-2.706,0.889-6.565,7.666c0,0,4.414,1.35,9.73,0.2L197.044,116.095z"/>
				<path style="fill:#FFC6C6;" d="M203.329,94.74c9.366,7.199,6.669,16.473,2.694,17.098
					C202.051,112.464,195.742,104.432,203.329,94.74z"/>
				<path style="fill:#FFC6C6;" d="M191.157,102.975c11.522-2.595,16.925,5.411,14.866,8.865
					C203.963,115.293,193.753,115.006,191.157,102.975z"/>
				<path style="fill:#FFC6C6;" d="M189.127,115.6c6.599-9.798,16.023-7.687,16.896-3.76
					C206.897,115.764,199.276,122.566,189.127,115.6z"/>
				<path style="fill:#FFC6C6;" d="M197.352,126.82c-2.746-11.489,5.188-16.996,8.671-14.98
					C209.503,113.853,209.35,124.066,197.352,126.82z"/>
				<path style="fill:#FFECE9;" d="M203.329,94.74c0,0,0.275,0.179,0.741,0.51c0.232,0.167,0.512,0.37,0.836,0.602
					c0.323,0.23,0.646,0.556,1.014,0.891c0.183,0.169,0.373,0.348,0.571,0.53c0.186,0.194,0.355,0.415,0.541,0.632
					c0.372,0.434,0.771,0.889,1.084,1.436c0.169,0.264,0.341,0.533,0.515,0.805c0.14,0.291,0.283,0.588,0.426,0.885
					c0.312,0.586,0.477,1.248,0.699,1.885c0.09,0.326,0.13,0.665,0.196,0.995c0.071,0.33,0.114,0.663,0.119,0.999
					c0.013,0.335,0.055,0.665,0.028,0.992c-0.028,0.327-0.057,0.649-0.084,0.967c-0.114,0.625-0.227,1.237-0.468,1.775
					c-0.178,0.557-0.495,1.025-0.761,1.455c-0.323,0.401-0.617,0.762-0.968,0.996c-0.303,0.283-0.659,0.401-0.912,0.538
					c-0.264,0.127-0.51,0.119-0.654,0.162c-0.151,0.026-0.23,0.041-0.23,0.041s0.076-0.03,0.217-0.09
					c0.137-0.072,0.356-0.12,0.587-0.276c0.223-0.17,0.524-0.322,0.762-0.632c0.281-0.259,0.496-0.637,0.75-1.023
					c0.193-0.427,0.43-0.872,0.557-1.396c0.18-0.503,0.225-1.074,0.311-1.645c0.012-0.291,0.021-0.587,0.033-0.887
					c0.005-0.299-0.046-0.602-0.057-0.907c-0.008-0.307-0.053-0.612-0.126-0.916c-0.067-0.303-0.107-0.614-0.193-0.913
					c-0.199-0.593-0.335-1.207-0.621-1.76c-0.124-0.285-0.248-0.565-0.368-0.845c-0.152-0.263-0.302-0.525-0.449-0.782
					c-0.275-0.526-0.613-0.991-0.935-1.438c-0.158-0.223-0.314-0.439-0.463-0.648c-0.167-0.198-0.329-0.384-0.484-0.567
					c-0.321-0.354-0.577-0.718-0.859-0.999c-0.282-0.28-0.528-0.525-0.731-0.727C203.551,94.981,203.329,94.74,203.329,94.74z"/>
				<path style="fill:#FFECE9;" d="M191.157,102.975c0,0,0.313-0.097,0.866-0.243c0.276-0.071,0.611-0.157,0.997-0.256
					c0.385-0.102,0.84-0.142,1.333-0.211c0.248-0.032,0.507-0.064,0.774-0.099c0.268-0.019,0.545-0.008,0.831-0.013
					c0.571-0.007,1.177-0.022,1.796,0.085c0.313,0.039,0.628,0.079,0.949,0.12c0.315,0.078,0.633,0.159,0.954,0.239
					c0.651,0.135,1.265,0.43,1.897,0.669c0.307,0.138,0.592,0.323,0.889,0.484c0.299,0.156,0.584,0.336,0.845,0.546
					c0.265,0.204,0.545,0.384,0.78,0.613c0.232,0.231,0.463,0.459,0.689,0.684c0.409,0.488,0.807,0.965,1.066,1.494
					c0.314,0.495,0.473,1.038,0.634,1.517c0.101,0.503,0.19,0.961,0.145,1.381c0.024,0.414-0.11,0.763-0.169,1.046
					c-0.069,0.283-0.234,0.466-0.293,0.606c-0.076,0.133-0.115,0.204-0.115,0.204s0.026-0.078,0.07-0.226
					c0.033-0.151,0.136-0.351,0.164-0.628c0.009-0.279,0.086-0.606-0.001-0.988c-0.02-0.382-0.174-0.79-0.307-1.233
					c-0.204-0.421-0.395-0.887-0.718-1.319c-0.271-0.459-0.679-0.86-1.064-1.29c-0.218-0.196-0.438-0.394-0.66-0.592
					c-0.226-0.196-0.493-0.352-0.735-0.538c-0.24-0.19-0.505-0.35-0.785-0.489c-0.275-0.141-0.539-0.309-0.826-0.434
					c-0.582-0.227-1.143-0.515-1.749-0.65c-0.299-0.086-0.592-0.171-0.885-0.256c-0.299-0.052-0.596-0.104-0.887-0.155
					c-0.582-0.126-1.156-0.165-1.703-0.203c-0.274-0.021-0.54-0.04-0.797-0.059c-0.257,0.004-0.506,0.006-0.744,0.011
					c-0.479,0.019-0.922-0.017-1.318,0.02c-0.395,0.038-0.741,0.07-1.025,0.096C191.484,102.959,191.157,102.975,191.157,102.975z"
					/>
				<path style="fill:#FFECE9;" d="M189.127,115.6c0,0,0.162-0.286,0.463-0.771c0.153-0.242,0.337-0.536,0.55-0.871
					c0.209-0.337,0.512-0.68,0.823-1.07c0.159-0.192,0.324-0.393,0.496-0.603c0.183-0.197,0.39-0.378,0.595-0.58
					c0.411-0.396,0.84-0.825,1.365-1.171c0.254-0.186,0.512-0.374,0.772-0.564c0.282-0.16,0.569-0.319,0.857-0.483
					c0.566-0.347,1.215-0.554,1.837-0.813c0.32-0.111,0.655-0.172,0.981-0.259c0.326-0.091,0.654-0.156,0.99-0.183
					c0.332-0.033,0.659-0.095,0.987-0.09c0.329,0.009,0.652,0.016,0.971,0.025c0.632,0.075,1.249,0.148,1.8,0.354
					c0.567,0.144,1.056,0.429,1.501,0.667c0.421,0.298,0.799,0.57,1.056,0.905c0.301,0.284,0.441,0.63,0.593,0.875
					c0.144,0.254,0.15,0.502,0.203,0.643c0.038,0.148,0.056,0.228,0.056,0.228s-0.036-0.074-0.105-0.213
					c-0.079-0.131-0.14-0.348-0.311-0.567c-0.186-0.211-0.355-0.502-0.679-0.721c-0.276-0.265-0.668-0.454-1.069-0.685
					c-0.438-0.166-0.897-0.373-1.428-0.466c-0.512-0.147-1.086-0.157-1.661-0.208c-0.291,0.008-0.587,0.016-0.887,0.022
					c-0.298,0.013-0.598,0.084-0.902,0.115c-0.306,0.026-0.608,0.091-0.905,0.183c-0.299,0.087-0.605,0.145-0.899,0.251
					c-0.58,0.234-1.186,0.41-1.719,0.729c-0.275,0.142-0.548,0.283-0.819,0.421c-0.253,0.168-0.505,0.334-0.751,0.497
					c-0.51,0.307-0.953,0.673-1.377,1.021c-0.212,0.173-0.419,0.341-0.62,0.503c-0.185,0.179-0.363,0.353-0.535,0.519
					c-0.334,0.343-0.681,0.621-0.944,0.92c-0.262,0.3-0.491,0.56-0.679,0.773C189.354,115.363,189.127,115.6,189.127,115.6z"/>
				<path style="fill:#FFECE9;" d="M197.352,126.82c0,0-0.1-0.312-0.253-0.864c-0.076-0.275-0.168-0.61-0.271-0.993
					c-0.105-0.383-0.153-0.838-0.227-1.329c-0.035-0.249-0.072-0.507-0.11-0.773c-0.023-0.27-0.014-0.545-0.023-0.831
					c-0.015-0.57-0.039-1.176,0.063-1.797c0.034-0.313,0.069-0.63,0.105-0.952c0.074-0.316,0.149-0.634,0.227-0.957
					c0.126-0.653,0.413-1.27,0.644-1.903c0.135-0.311,0.318-0.598,0.474-0.896c0.151-0.303,0.327-0.588,0.536-0.853
					c0.2-0.268,0.376-0.55,0.603-0.787c0.229-0.236,0.453-0.471,0.674-0.699c0.484-0.415,0.955-0.818,1.481-1.086
					c0.489-0.319,1.032-0.485,1.508-0.652c0.503-0.107,0.96-0.202,1.379-0.164c0.414-0.029,0.764,0.102,1.047,0.155
					c0.284,0.066,0.471,0.229,0.61,0.286c0.133,0.074,0.205,0.113,0.205,0.113s-0.078-0.025-0.227-0.068
					c-0.151-0.031-0.352-0.132-0.629-0.154c-0.28-0.006-0.609-0.078-0.989,0.011c-0.382,0.027-0.787,0.187-1.229,0.324
					c-0.419,0.21-0.883,0.407-1.309,0.735c-0.455,0.276-0.851,0.692-1.277,1.082c-0.192,0.22-0.387,0.442-0.584,0.668
					c-0.192,0.229-0.343,0.497-0.526,0.741c-0.186,0.244-0.344,0.509-0.478,0.791c-0.14,0.278-0.303,0.543-0.425,0.831
					c-0.22,0.586-0.501,1.15-0.626,1.758c-0.082,0.299-0.164,0.595-0.245,0.887c-0.048,0.302-0.096,0.599-0.144,0.891
					c-0.118,0.582-0.148,1.157-0.179,1.704c-0.017,0.273-0.033,0.54-0.049,0.798c0.006,0.256,0.014,0.504,0.021,0.744
					c0.025,0.478-0.004,0.922,0.037,1.318c0.043,0.395,0.079,0.739,0.11,1.022C197.332,126.493,197.352,126.82,197.352,126.82z"/>
			</g>
		</g>
	</g>
</g>
</svg>
