<svg xmlns="http://www.w3.org/2000/svg" xmlns:xlink="http://www.w3.org/1999/xlink" viewBox="0 0 179.89 200"><defs><style>.cls-1{fill:url(#linear-gradient);}.cls-2{fill:url(#linear-gradient-2);}.cls-3{fill:url(#linear-gradient-3);}.cls-4{fill:url(#linear-gradient-4);}.cls-5{fill:url(#linear-gradient-5);}.cls-6{fill:url(#linear-gradient-6);}</style><linearGradient id="linear-gradient" x1="0.45" y1="100" x2="179.59" y2="100" gradientUnits="userSpaceOnUse"><stop offset="0" stop-color="#b91c1c"/><stop offset="1" stop-color="#ef4444"/></linearGradient><linearGradient id="linear-gradient-2" x1="0.45" y1="39.97" x2="179.59" y2="39.97" xlink:href="#linear-gradient"/><linearGradient id="linear-gradient-3" x1="0.45" y1="39.98" x2="179.59" y2="39.98" xlink:href="#linear-gradient"/><linearGradient id="linear-gradient-4" x1="0.45" y1="39.99" x2="179.59" y2="39.99" xlink:href="#linear-gradient"/><linearGradient id="linear-gradient-5" x1="0.45" y1="79.96" x2="179.59" y2="79.96" xlink:href="#linear-gradient"/><linearGradient id="linear-gradient-6" x1="0.45" y1="93.28" x2="179.59" y2="93.28" xlink:href="#linear-gradient"/></defs><g id="Layer_2" data-name="Layer 2"><g id="Layer_1-2" data-name="Layer 1"><path class="cls-1" d="M179.88,44.05c0-8.4-5.68-14-14.12-14.06l-5.82,0c0-5.55,0-11.1-.06-16.64A13.22,13.22,0,0,0,146.66.05Q89.63,0,32.6,0C26,0,20,6.29,20,12.93c0,4,0,7.91,0,11.87,0,1.65.54,3.85-.3,4.81-1,1.13-3.26.34-5,.35C5.42,30,0,35.39,0,44.69q0,48.6,0,97.2c0,.7,0,1.39,0,2.08.33,6.54,5.92,12.44,12.23,12.55,7.42.14,14.85,0,22.27,0,10.82,0,21.64,0,32.46.09,2,0,4.79-.9,6,.43,1,1.15.17,3.84.36,5.82.17,1.77-.48,2.47-2.19,2.93-5.41,1.45-10.51,3.64-14.42,7.84-4.57,4.91-4.55,10.91,0,15.87a21.33,21.33,0,0,0,7.8,5.42c16.69,6.74,33.48,6.75,50.25.31a21.38,21.38,0,0,0,9.2-6.6,10.74,10.74,0,0,0,0-14.14,20.21,20.21,0,0,0-5.69-4.8,31.2,31.2,0,0,0-9.93-3.93c-1.43-.28-1.78-1-1.71-2.26a31.77,31.77,0,0,0,0-4.78c-.17-1.74.4-2.18,2.14-2.17q28.52.09,57,0c8.46,0,14.12-5.64,14.14-14.06q0-13.42,0-26.85Q179.88,79.85,179.88,44.05ZM26.69,14.69c0-5.5,2.48-8,8-8l110.48,0c5.64,0,8.07,2.44,8.08,8.11q0,10.31.06,20.6c0,2.56-.08,5.12-.08,7.69q0,27.87,0,55.74c0,5.25-2.53,7.78-7.78,7.78q-28.81,0-57.62,0c-.83,0-1.66.05-2.49.08L35,106.61c-6,0-8.32-2.35-8.32-8.28Q26.67,56.51,26.69,14.69Zm81.12,157.67c3.36,1.18,6.65,2.44,9.41,4.74,3.59,3,3.61,6,0,9-4.7,3.76-10.36,5.19-16.12,6.22a56.08,56.08,0,0,1-11.52.91,57.2,57.2,0,0,1-21.9-4.1,16.86,16.86,0,0,1-5.73-3.68c-2.48-2.56-2.52-5.19,0-7.65,3.19-3.09,7.33-4.38,11.42-5.72.84-.28,1,.3,1.31.91a16.49,16.49,0,0,0,30.19.67C105.59,172,106.29,171.83,107.81,172.36Zm-8.35-3.18c-1.56,5.46-6.45,8-11.64,7.26-4.09-.61-7.66-5.13-7.82-9.41-.12-3,0-6.09-.06-9.13,0-1.18.46-1.36,1.47-1.35,2.91,0,5.82,0,8.72,0h8.52c.6,0,1.33-.13,1.29.85C99.78,161.35,100.56,165.36,99.46,169.18Zm73.76-26.47c0,4.56-2.79,7.2-7.54,7.2H42.25c-.9,0-1.8,0-2.7.08h0l-25.39-.07c-4.79,0-7.48-2.67-7.48-7.45q0-49.21,0-98.42c0-4.64,2.71-7.33,7.36-7.36a34.67,34.67,0,0,0,3.95,0c1.72-.21,2,.51,2,2.07,0,20,.15,40-.09,59.92a14.07,14.07,0,0,0,14.64,14.7c15.26-.28,30.52-.12,45.77-.14,6,0,12.07.07,18.11.07q23.52,0,47,0c8.88,0,14.4-5.54,14.41-14.42,0-20,0-40,0-59.95,0-1.81.39-2.49,2.26-2.27a42.39,42.39,0,0,0,4.37,0,6.69,6.69,0,0,1,6.72,6.75c0,.14,0,.28,0,.42Q173.22,93.27,173.22,142.71Z"/><path class="cls-2" d="M80.34,66.61c1.54-.13,2.4-1.33,3.07-2.91q9.3-21.78,18.65-43.52a25.77,25.77,0,0,0,1-2.5,3.2,3.2,0,0,0-1.93-4.07,3.14,3.14,0,0,0-4.1,1.46,10.86,10.86,0,0,0-.71,1.5Q89.81,31.82,83.28,47.1C81.19,52,79.06,56.86,77,61.77A3.35,3.35,0,0,0,80.34,66.61Z"/><path class="cls-3" d="M108.11,53.78c-1.78,1.79-2,3.65-.55,5.12s3.38,1.41,5.12-.31C118,53.32,123.27,48,128.56,42.72A3.86,3.86,0,0,0,129.9,40a4,4,0,0,0-1.46-2.87c-2-1.93-3.89-3.88-5.83-5.82-3.46-3.46-6.87-7-10.41-10.35a3.13,3.13,0,0,0-4.77.34c-1.21,1.48-1.05,3.16.58,4.81,4.14,4.18,8.27,8.38,12.51,12.45,1.23,1.18,1.07,1.8,0,2.9C116.29,45.51,112.21,49.65,108.11,53.78Z"/><path class="cls-4" d="M64,55.36c1.22,1.23,2.4,2.51,3.7,3.65a3.19,3.19,0,0,0,4.52,0,3.26,3.26,0,0,0,.15-4.67c-.44-.53-1-1-1.45-1.49C66.94,48.89,63,44.9,59,41c-.94-.92-.62-1.39.14-2.13,3-3,6-6,9-9,1.42-1.42,2.88-2.81,4.24-4.29A3.05,3.05,0,0,0,72.89,22,3.35,3.35,0,0,0,70,20a4.47,4.47,0,0,0-3.13,1.65Q59.25,29.35,51.59,37c-2.23,2.23-2.22,3.77,0,6Q57.78,49.21,64,55.36Z"/><path class="cls-5" d="M40.86,83.29H79.09c2.59,0,4.15-1.28,4.14-3.33s-1.56-3.3-4.17-3.31q-9.56,0-19.11,0H40.84c-2.59,0-4.15,1.28-4.14,3.34S38.26,83.29,40.86,83.29Z"/><path class="cls-6" d="M65.81,90H53.32c-4.23,0-8.47,0-12.7,0-2.41,0-3.94,1.36-3.91,3.36s1.54,3.28,4,3.29q12.6,0,25.19,0c2.46,0,4-1.26,4-3.25S68.39,90,65.81,90Z"/></g></g></svg>