<svg xmlns="http://www.w3.org/2000/svg" xmlns:xlink="http://www.w3.org/1999/xlink" viewBox="0 0 200 184.68"><defs><style>.cls-1{fill:url(#linear-gradient);}.cls-2{fill:url(#linear-gradient-2);}.cls-3{fill:url(#linear-gradient-3);}.cls-4{fill:url(#linear-gradient-4);}.cls-5{fill:url(#linear-gradient-5);}.cls-6{fill:url(#linear-gradient-6);}.cls-7{fill:url(#linear-gradient-7);}.cls-8{fill:url(#linear-gradient-8);}.cls-9{fill:url(#linear-gradient-9);}</style><linearGradient id="linear-gradient" x1="9.21" y1="92.34" x2="193.82" y2="92.34" gradientUnits="userSpaceOnUse"><stop offset="0" stop-color="#b91c1c"/><stop offset="1" stop-color="#ef4444"/></linearGradient><linearGradient id="linear-gradient-2" x1="9.21" y1="97.59" x2="193.82" y2="97.59" xlink:href="#linear-gradient"/><linearGradient id="linear-gradient-3" x1="9.21" y1="173.74" x2="193.82" y2="173.74" xlink:href="#linear-gradient"/><linearGradient id="linear-gradient-4" x1="9.21" y1="49.8" x2="193.82" y2="49.8" xlink:href="#linear-gradient"/><linearGradient id="linear-gradient-5" x1="9.21" y1="79.54" x2="193.82" y2="79.54" xlink:href="#linear-gradient"/><linearGradient id="linear-gradient-6" x1="9.21" y1="43.74" x2="193.82" y2="43.74" xlink:href="#linear-gradient"/><linearGradient id="linear-gradient-7" x1="9.21" y1="115.93" x2="193.82" y2="115.93" xlink:href="#linear-gradient"/><linearGradient id="linear-gradient-8" x1="9.21" y1="39.57" x2="193.82" y2="39.57" xlink:href="#linear-gradient"/><linearGradient id="linear-gradient-9" x1="9.21" y1="182.61" x2="193.82" y2="182.61" xlink:href="#linear-gradient"/></defs><g id="Layer_2" data-name="Layer 2"><g id="Layer_1-2" data-name="Layer 1"><path class="cls-1" d="M17.33,158.56H188.68c0-.58.09-1,.09-1.44q0-53.64,0-107.26A13,13,0,0,0,176,36.72c-6.7-.18-13.4-.06-20.1-.06a8,8,0,0,0-1,.13V48.65H173.7c2.9,0,3.06.16,3.06,3.1q0,46.41,0,92.83v3.95H29.44c0-.84-.1-1.56-.1-2.27q0-47.4,0-94.8c0-2.59.22-2.79,2.93-2.79q21.53,0,43.05,0c.81,0,2-.06,2.37-.56,2.77-3.61,5.38-7.34,8.23-11.3-.85-.06-1.33-.13-1.81-.13q-26,0-52,0c-9.42,0-14.75,5.36-14.75,14.78q0,46.42,0,92.84Zm177.08,4.29H11.56c-.56,7.66,1.67,13.9,7.9,18.46.56.41,1.31.86,1.49,1.44.48,1.6,1.54,1.89,3,1.88,6.41,0,12.82,0,19.22,0H167q15.07,0,30.14,0c1.34,0,2.65-.14,2.84-1.7.23-1.83-1-2.36-2.62-2.35-3.07,0-6.15,0-9.72,0C193.18,175.55,195.18,169.76,194.41,162.85ZM107.37,14c-10,13.84-19.75,27.34-29.44,40.89a2.37,2.37,0,0,0-.09,2c5,9.2,10.08,18.35,15.07,27.56a1.94,1.94,0,0,0,2.19,1.2q19.08-1.09,38.16-2.13c3.83-.22,7.67-.5,11.82-.78ZM64.89,99.23c2.76,2.3,3,2.32,6.25.57Q79.08,95.47,87,91.11c2.94-1.62,3.34-2.92,1.76-5.8Q81.84,72.57,74.84,59.88c-1.45-2.65-2.87-3-5.53-1.58q-8.12,4.46-16.24,8.93c-3,1.63-3.21,2.09-2.68,5.41-1.16.66-2.39,1.3-3.54,2-2,1.31-2.72,3.37-1.59,5.48q5.19,9.72,10.59,19.31c1.24,2.2,3.4,2.68,5.66,1.58C62.67,100.47,63.8,99.82,64.89,99.23ZM161.54,81.7c-.5-1.18-.91-2.42-1.52-3.54q-15.27-27.93-30.57-55.84c-3.53-6.44-7-12.9-10.62-19.29C117-.19,114-.85,110.85,1.09c-2.81,1.76-3.42,4.51-1.64,7.76q16,29.18,31.94,58.33c3.18,5.8,6.33,11.61,9.56,17.39a5.09,5.09,0,0,0,6.06,2.68A6.18,6.18,0,0,0,161.54,81.7Zm-89,22c5.61,10.21,11.07,20.2,16.61,30.15.89,1.61,2.41,1.72,4,.88,2.43-1.3,4.81-2.71,7.27-4C106,128,106.46,126.93,102,122c-6.73-7.39-12.7-15.33-16.06-24.92,0-.17-.31-.27-.54-.46Zm76.19-54.6a11.67,11.67,0,0,0,1.09-13c-2.35-4.12-7.1-6.64-11.43-5.88C141.83,36.48,145.23,42.7,148.73,49.08ZM7.33,184.61a34.93,34.93,0,0,0,5.42-.09c.79-.13,1.42-1.23,2.13-1.89-.7-.68-1.36-1.9-2.1-1.94a91.94,91.94,0,0,0-10.63,0c-.75,0-1.44,1.24-2.15,1.91.71.67,1.33,1.78,2.13,1.93A30,30,0,0,0,7.33,184.61Z"/><path class="cls-2" d="M17.33,158.56V144.24q0-46.41,0-92.84c0-9.42,5.33-14.77,14.75-14.78q26,0,52,0c.48,0,1,.07,1.81.13-2.85,4-5.46,7.69-8.23,11.3-.38.5-1.56.56-2.37.56q-21.52,0-43,0c-2.71,0-2.93.2-2.93,2.79q0,47.4,0,94.8c0,.71.06,1.43.1,2.27H176.76v-3.95q0-46.41,0-92.83c0-2.94-.16-3.1-3.06-3.1H154.84V36.79a8,8,0,0,1,1-.13c6.7,0,13.4-.12,20.1.06a13,13,0,0,1,12.78,13.14q.06,53.63,0,107.26c0,.43-.05.86-.09,1.44Z"/><path class="cls-3" d="M194.41,162.85c.77,6.91-1.23,12.7-6.78,17.74,3.57,0,6.65,0,9.72,0,1.61,0,2.85.52,2.62,2.35-.19,1.56-1.5,1.7-2.84,1.7q-15.06,0-30.14,0H43.16c-6.4,0-12.81,0-19.22,0-1.45,0-2.51-.28-3-1.88-.18-.58-.93-1-1.49-1.44-6.23-4.56-8.46-10.8-7.9-18.46Z"/><path class="cls-4" d="M107.37,14l37.71,68.79c-4.15.28-8,.56-11.82.78q-19.08,1.07-38.16,2.13a1.94,1.94,0,0,1-2.19-1.2c-5-9.21-10.08-18.36-15.07-27.56a2.37,2.37,0,0,1,.09-2C87.62,41.29,97.38,27.79,107.37,14Z"/><path class="cls-5" d="M64.89,99.23c-1.09.59-2.22,1.24-3.38,1.82-2.26,1.1-4.42.62-5.66-1.58q-5.41-9.59-10.59-19.31c-1.13-2.11-.44-4.17,1.59-5.48,1.15-.74,2.38-1.38,3.54-2-.53-3.32-.28-3.78,2.68-5.41q8.13-4.45,16.24-8.93c2.66-1.46,4.08-1.07,5.53,1.58q7,12.7,13.94,25.43c1.58,2.88,1.18,4.18-1.76,5.8q-7.93,4.36-15.88,8.69C67.91,101.55,67.65,101.53,64.89,99.23Z"/><path class="cls-6" d="M161.54,81.7a6.18,6.18,0,0,1-4.77,5.55,5.09,5.09,0,0,1-6.06-2.68c-3.23-5.78-6.38-11.59-9.56-17.39Q125.18,38,109.21,8.85c-1.78-3.25-1.17-6,1.64-7.76C114-.85,117-.19,118.83,3c3.6,6.39,7.09,12.85,10.62,19.29Q144.73,50.24,160,78.16C160.63,79.28,161,80.52,161.54,81.7Z"/><path class="cls-7" d="M72.54,103.68l12.84-7.05c.23.19.49.29.54.46,3.36,9.59,9.33,17.53,16.06,24.92,4.48,4.92,4,5.94-1.59,8.75-2.46,1.24-4.84,2.65-7.27,4-1.56.84-3.08.73-4-.88C83.61,123.88,78.15,113.89,72.54,103.68Z"/><path class="cls-8" d="M148.73,49.08c-3.5-6.38-6.9-12.6-10.34-18.89,4.33-.76,9.08,1.76,11.43,5.88A11.67,11.67,0,0,1,148.73,49.08Z"/><path class="cls-9" d="M7.33,184.61a30,30,0,0,1-5.2-.09c-.8-.15-1.42-1.26-2.13-1.93.71-.67,1.4-1.86,2.15-1.91a91.94,91.94,0,0,1,10.63,0c.74,0,1.4,1.26,2.1,1.94-.71.66-1.34,1.76-2.13,1.89A34.93,34.93,0,0,1,7.33,184.61Z"/></g></g></svg>