<svg xmlns="http://www.w3.org/2000/svg" xmlns:xlink="http://www.w3.org/1999/xlink" viewBox="0 0 200 198.52"><defs><style>.cls-1{fill:url(#linear-gradient);}.cls-2{fill:url(#linear-gradient-2);}.cls-3{fill:url(#linear-gradient-3);}.cls-4{fill:url(#linear-gradient-4);}</style><linearGradient id="linear-gradient" y1="99.26" x2="207.07" y2="99.26" gradientUnits="userSpaceOnUse"><stop offset="0" stop-color="#b91c1c"/><stop offset="1" stop-color="#ef4444"/></linearGradient><linearGradient id="linear-gradient-2" x1="0.06" y1="32.79" x2="207.13" y2="32.79" xlink:href="#linear-gradient"/><linearGradient id="linear-gradient-3" x1="0.06" y1="56.07" x2="207.13" y2="56.07" xlink:href="#linear-gradient"/><linearGradient id="linear-gradient-4" x1="0.06" y1="11.18" x2="207.13" y2="11.18" xlink:href="#linear-gradient"/></defs><g id="Layer_2" data-name="Layer 2"><g id="Layer_1-2" data-name="Layer 1"><path class="cls-1" d="M123.42,17.59c6-4.28,11.87-8.43,17.69-12.68,4.38-3.2,9.59-3.9,14.66-4.83,3.1-.57,5.74,1.88,6.69,5.36,2,7.23,3.88,14.46,5.81,21.69,3.23,12.12,6.44,24.25,9.74,36.35a6.32,6.32,0,0,0,1.86,2.82q8,7,16.07,13.88A11.06,11.06,0,0,1,200,89.13q0,49.25,0,98.5c0,6.8-4.1,10.88-10.92,10.88q-85,0-169.92,0c-2.85,0-5.69,0-8.54,0C4.16,198.43.05,194.34,0,187.9q0-32.39,0-64.76c0-11.25.05-22.49,0-33.74A11.59,11.59,0,0,1,4.32,80q39.63-34.06,79.2-68.21C86.77,8.93,90,6.1,93.3,3.32a9.91,9.91,0,0,1,13.46,0c4.66,4,9.28,8,13.92,11.93C121.56,16,122.46,16.78,123.42,17.59ZM9.06,84.71c.4.37.55.52.71.65q31,24.77,61.91,49.57c1.06.86,1.68.71,2.64-.07,6.19-5,12.44-10,18.66-15,4.62-3.71,9.18-3.81,13.82-.15q9.48,7.48,18.85,15.1c1,.84,1.7,1,2.81.06q28.89-23.2,57.84-46.34c1.53-1.23,3-2.5,4.67-3.83l-11.48-9.83a40.38,40.38,0,0,1-5.85,2.82c-3.37,1-6.92,2.51-10.27,2.25-16.18-1.25-32.32-3-48.48-4.6-2-.2-4-.33-6.28-.5,2,7.41,3.85,14.51,5.77,21.59a10.54,10.54,0,0,1-.41,7.32,10,10,0,0,1-9.52,5.87,9.74,9.74,0,0,1-9-6.89c-1.4-4.57-2.54-9.22-3.8-13.83-.82-3-1.67-6.08-2.52-9.19C85,81,81,81.72,77,80.86c-9.09-1.93-15.81-9.6-16.1-18.29A20.59,20.59,0,0,1,75.78,41.91C80.85,40.48,85.91,39,91,37.85a29.48,29.48,0,0,0,11.74-5.43c4.82-3.72,9.86-7.13,15.09-10.87-.6-.48-1-.82-1.44-1.17L103,8.88c-2.35-2-3.65-2-6,0L22.55,73.07Zm177,107.05c-.93-.79-1.49-1.28-2.08-1.75l-80.12-64.09c-3.61-2.89-4.13-2.88-7.66-.06L17.39,188.91c-1,.84-2.05,1.71-3.4,2.85ZM67.6,140.19,6.89,91.64v97.12Zm64.83,0,60.73,48.58V91.6Zm11-128.46a6.83,6.83,0,0,0-.93.45Q123.18,26,103.87,39.77c-1,.69-.88,1.31-.62,2.27,2.14,7.88,4.31,15.77,6.29,23.7.52,2.08,1.53,2.66,3.52,2.83,9.74.86,19.46,1.86,29.2,2.8,5.71.55,11.43,1.06,17.56,1.63C154.31,52.43,148.88,32.15,143.41,11.74ZM96.64,43.21c-7.06,1.94-14,3.55-20.75,5.8-5.87,2-9.15,8.06-8.31,14.08A12.86,12.86,0,0,0,79.79,74.41c2.89.1,5.87-.74,8.74-1.44,5-1.2,9.87-2.62,15-4ZM149.44,8.4c5.77,21.53,11.5,42.91,17.24,64.35L173.09,71c-5.77-21.53-11.48-42.84-17.23-64.28ZM102.08,76.32,95.68,78c.73,2.74,1.41,5.33,2.1,7.91,1.28,4.81,2.53,9.62,3.88,14.41a3.29,3.29,0,1,0,6.45-1.3C106.18,91.54,104.15,84.08,102.08,76.32Z"/><path class="cls-2" d="M181.25,37.86c-2.43-.13-3.57-1-3.9-2.72a2.91,2.91,0,0,1,2-3.64q6.75-2,13.59-3.68A3,3,0,0,1,196.53,30c.56,1.59.24,3.37-1.4,3.9C190.35,35.42,185.47,36.67,181.25,37.86Z"/><path class="cls-3" d="M195.8,61.07c-4.12-1.14-8.73-2.33-13.29-3.72a2.89,2.89,0,0,1-1.94-3.67c.41-1.78,1.72-3,3.48-2.55,4.71,1.08,9.37,2.36,14,3.74a2.85,2.85,0,0,1,1.81,3.73C199.41,60.35,198.16,61.22,195.8,61.07Z"/><path class="cls-4" d="M173.14,19.43c-.94-.79-2.24-1.39-2.61-2.35a4,4,0,0,1,.44-3.39c3.13-3.43,6.46-6.68,9.81-9.9a3.16,3.16,0,0,1,4.5.18,3.11,3.11,0,0,1,.07,4.49c-3.17,3.3-6.42,6.52-9.7,9.71A10.93,10.93,0,0,1,173.14,19.43Z"/></g></g></svg>