<svg xmlns="http://www.w3.org/2000/svg" viewBox="0 0 500 500"><defs><style>.cls-1{fill:#fff;}.cls-2{fill:#e63a37;}</style></defs><g id="Layer_2" data-name="Layer 2"><g id="Layer_1-2" data-name="Layer 1"><rect class="cls-1" width="500" height="500" rx="250"/><path d="M358.28,347q-17.68,0-29.39-4t-18.8-10.83a37.39,37.39,0,0,1-9.93-16.35,68.62,68.62,0,0,1-2.88-20.11V100.81H245.12V296.2a135.88,135.88,0,0,0,6,41.32A81.41,81.41,0,0,0,270.31,370q13.26,13.69,34.26,21.42t50.62,7.75h43.9V347Z"/><path class="cls-2" d="M218.64,153h78.64V100.81H220.41q-25.2,0-43.32,7.3t-29.83,19.45A75.39,75.39,0,0,0,130,156.07a105.53,105.53,0,0,0-5.53,34A113.87,113.87,0,0,0,128,218.17a93.52,93.52,0,0,0,11,26.09,81.38,81.38,0,0,0,19.46,21.44q11.92,9.27,29.17,14.14L100.91,399.19h57.9l85.47-115.37.84-1.16,35.58-48.79H218.64q-11,0-19-3.54A34.91,34.91,0,0,1,186.82,221a38.67,38.67,0,0,1-7.3-13.26,50.19,50.19,0,0,1-2.43-15.47A41.26,41.26,0,0,1,187,164.7Q197,153,218.64,153Z"/></g></g></svg>