<svg xmlns="http://www.w3.org/2000/svg" xmlns:xlink="http://www.w3.org/1999/xlink" viewBox="0 0 200 199.88"><defs><style>.cls-1{fill:url(#linear-gradient);}.cls-2{fill:url(#linear-gradient-2);}.cls-3{fill:url(#linear-gradient-3);}.cls-4{fill:url(#linear-gradient-4);}.cls-5{fill:url(#linear-gradient-5);}.cls-6{fill:url(#linear-gradient-6);}</style><linearGradient id="linear-gradient" x1="-7.22" y1="99.89" x2="199.83" y2="99.89" gradientUnits="userSpaceOnUse"><stop offset="0" stop-color="#b91c1c"/><stop offset="1" stop-color="#ef4444"/></linearGradient><linearGradient id="linear-gradient-2" x1="-7.22" y1="105.97" x2="199.83" y2="105.97" xlink:href="#linear-gradient"/><linearGradient id="linear-gradient-3" x1="-7.22" y1="175.37" x2="199.83" y2="175.37" xlink:href="#linear-gradient"/><linearGradient id="linear-gradient-4" x1="-7.22" y1="63.87" x2="199.83" y2="63.87" xlink:href="#linear-gradient"/><linearGradient id="linear-gradient-5" x1="-7.22" y1="63.83" x2="199.83" y2="63.83" xlink:href="#linear-gradient"/><linearGradient id="linear-gradient-6" x1="-7.22" y1="63.86" x2="199.83" y2="63.86" xlink:href="#linear-gradient"/></defs><g id="Layer_2" data-name="Layer 2"><g id="Layer_1-2" data-name="Layer 1"><path class="cls-1" d="M145.27,144.14Q134,129.82,122.73,115.46c-.88-1.13-1.53-1.44-2.67-.33s-2.35,1.84-3.49,2.81c-.72.63-1.15.68-1.81-.18-2.27-3-4.63-6-7-8.87-.74-.9-.83-1.44.08-2.36A62.63,62.63,0,0,0,106,17.14,61.09,61.09,0,0,0,70.58.54h0c-.44-.06-.88-.1-1.32-.15h0c-6-.88-15.88,0-15.88,0C23.72,7.14,6,25.15.31,55.3h0s-.7,12.6,0,13.9a76.23,76.23,0,0,0,2.55,11.7c8.1,24,24.44,38.78,49.32,43.59,15.07,2.91,29.34,0,42.58-7.72,1.26-.74,1.81-.53,2.61.54,2.13,2.87,4.33,5.7,6.64,8.43.94,1.12.78,1.73-.36,2.37a2.6,2.6,0,0,0-.31.25c-1.36,1.17-3.79,2-3.88,3.5-.09,1.33,1.85,2.8,2.93,4.17q22.69,28.82,45.37,57.62a16,16,0,0,0,7.58,5.55h.08l.09,0h.06a16.56,16.56,0,0,0,7.25.22,1.44,1.44,0,0,1,.68-.12h0l.14,0c9.83-3.25,13.54-14.29,7.25-22.52C162.53,165.81,153.84,155,145.27,144.14ZM63.16,114.3a51.49,51.49,0,1,1,51.27-51.56A51.6,51.6,0,0,1,63.16,114.3Z"/><path class="cls-2" d="M199.94,63.23Q165.31,75.41,130.6,87.61A3.89,3.89,0,0,0,132.37,89q8.69,5.22,17.39,10.4c2.7,1.6,2.7,1.6,1.36,4.41L151,104c-3.12,6.53-7.74,12-12.58,17.23-.88,1-1,1.55-.13,2.56,2.13,2.55,4.13,5.19,6.19,7.8L158,148.71c.39-.36.69-.62,1-.89a153.73,153.73,0,0,0,20.88-25.41c.81-1.24,1.37-1.48,2.65-.53,3,2.2,6,4.28,9.14,6.31,2.76,1.81,5.29,4,8.28,5.42,0-4.94.05-9.88.05-14.82Z"/><path class="cls-3" d="M105.79,151.89c-1-1.3-1.6-1.3-2.89-.39a304.9,304.9,0,0,1-39.68,23.94A232.38,232.38,0,0,1,17.75,193.1c-5.47,1.44-11,2.57-16.59,3.58a59.71,59.71,0,0,0,10,2c3.06.41,6.14.75,9.21,1.12,3.8,0,7.6.05,11.4,0a45.26,45.26,0,0,0,7.45-.28,191.22,191.22,0,0,0,30.85-4.4,196.86,196.86,0,0,0,51.58-19.45c1.52-.83,1.92-1.32.67-2.86Q113.93,162.49,105.79,151.89Z"/><path class="cls-4" d="M99.67,60.31a12.14,12.14,0,0,0-10.19-10.4C83.25,48.81,77.9,51,75.19,55.85a14.66,14.66,0,0,0-1.7,7.9c0,.72,0,1.43,0,2.15A12.34,12.34,0,0,0,85.35,78.05c7.3.55,12.7-3.24,14.18-10A20,20,0,0,0,99.67,60.31Zm-6.25,8.56a6.88,6.88,0,0,1-5.93,4.42,6.56,6.56,0,0,1-5.85-2c-2.78-3.16-3-6.9-2.22-10.83a7.34,7.34,0,0,1,10-5.61c3.09,1.14,4.4,3.66,4.78,6.77.08.71.07,1.43.11,2.14A11.9,11.9,0,0,1,93.42,68.87Z"/><path class="cls-5" d="M68.16,73q-4,.14-8,0c-1.86-.06-4.38.92-5.38-.38s-.19-3.61-.33-5.48c-.11-1.38.5-1.6,1.69-1.58,3.45.06,6.9,0,10.34,0,1.37,0,1.93-.38,1.73-1.74a4.17,4.17,0,0,1,0-1.17c.17-1.31-.24-1.85-1.68-1.78-2.53.11-5.07,0-7.6,0-4.54,0-4.48,0-4.51-4.45,0-1.38.4-1.78,1.76-1.75,3.83.09,7.67,0,11.51.08,1.31,0,1.76-.39,1.57-1.64a5.24,5.24,0,0,1,0-1.37c.15-1.21-.21-1.7-1.57-1.68q-8.58.1-17.17,0c-1.34,0-1.61.44-1.59,1.67.07,4,0,8.06,0,12.09s0,8.2,0,12.3c0,.89.07,1.44,1.22,1.43,6.11,0,12.23,0,18.34,0,.9,0,1.35-.26,1.27-1.22a10.23,10.23,0,0,1,0-1.75C69.91,73.35,69.46,72.9,68.16,73Z"/><path class="cls-6" d="M39,62c-1.57-.59-3.21-1-4.83-1.48a21.27,21.27,0,0,1-4.59-1.57,2.15,2.15,0,0,1-.92-3.27c1.28-1.8,7.58-2.3,8.53.72.59,1.88,1.64,2,2.75,1.8.82,0,1.21-.1,1.6-.07,1.55.15,2.07-.35,1.61-2a7.81,7.81,0,0,0-5.29-5.74,16.17,16.17,0,0,0-9-.26,7.41,7.41,0,0,0-5.78,6.58,7.05,7.05,0,0,0,4.35,7.34,32.89,32.89,0,0,0,3.28,1.21c2,.71,4.2.88,6.14,1.83A2.85,2.85,0,0,1,37.61,72c-2.62,2.53-8.2,1.68-9.5-1.7-.73-1.88-1.67-2.3-3.39-1.93A9.29,9.29,0,0,1,23,68.6c-.93,0-1,.49-.85,1.28.84,3.87,2.94,6.64,6.88,7.66a16.69,16.69,0,0,0,9.42-.21A7.93,7.93,0,0,0,44.2,70C44.21,65.81,42.64,63.37,39,62Z"/></g></g></svg>